SplineFontDB: 3.0
FontName: DuctusMono
FullName: Ductus Mono
FamilyName: DuctusMono
Weight: Book
Copyright: 
Version: 001.000
ItalicAngle: 0
UnderlinePosition: -150
UnderlineWidth: 50
Ascent: 800
Descent: 200
InvalidEm: 0
sfntRevision: 0x00010000
LayerCount: 2
Layer: 0 1 "Arri+AOgA-re" 1
Layer: 1 1 "Avant" 0
XUID: [1021 706 -322349554 4190971]
StyleMap: 0x0000
FSType: 0
OS2Version: 4
OS2_WeightWidthSlopeOnly: 0
OS2_UseTypoMetrics: 1
CreationTime: 1510948569
ModificationTime: 1519142690
PfmFamily: 17
TTFWeight: 400
TTFWidth: 5
LineGap: 90
VLineGap: 0
Panose: 2 0 5 9 0 0 0 0 0 0
OS2TypoAscent: 800
OS2TypoAOffset: 0
OS2TypoDescent: -200
OS2TypoDOffset: 0
OS2TypoLinegap: 90
OS2WinAscent: 1194
OS2WinAOffset: 0
OS2WinDescent: 231
OS2WinDOffset: 0
HheadAscent: 1194
HheadAOffset: 0
HheadDescent: -231
HheadDOffset: 0
OS2SubXSize: 650
OS2SubYSize: 700
OS2SubXOff: 0
OS2SubYOff: 140
OS2SupXSize: 650
OS2SupYSize: 700
OS2SupXOff: 0
OS2SupYOff: 480
OS2StrikeYSize: 49
OS2StrikeYPos: 258
OS2CapHeight: 731
OS2XHeight: 522
OS2Vendor: 'PfEd'
OS2CodePages: 00000001.00000000
OS2UnicodeRanges: 00000003.00000000.00000000.00000000
MarkAttachClasses: 1
DEI: 91125
ShortTable: cvt  2
  33
  633
EndShort
ShortTable: maxp 16
  1
  0
  263
  103
  5
  0
  0
  2
  0
  1
  1
  0
  64
  46
  0
  0
EndShort
LangName: 1033 "" "" "Mono"
GaspTable: 1 65535 2 0
Encoding: UnicodeBmp
UnicodeInterp: none
NameList: AGL For New Fonts
DisplaySize: -48
AntiAlias: 1
FitToEm: 0
WinInfo: 0 30 11
BeginPrivate: 0
EndPrivate
Grid
-1000 732.599975586 m 0
 2000 732.599975586 l 1024
572 1300 m 0
 572 -700 l 1024
74 1300 m 0
 74 -700 l 1024
EndSplineSet
BeginChars: 65543 263

StartChar: .notdef
Encoding: 65536 -1 0
Width: 646
Flags: W
LayerCount: 2
Fore
SplineSet
33 0 m 1,0,-1
 33 666 l 1,1,-1
 298 666 l 1,2,-1
 298 0 l 1,3,-1
 33 0 l 1,0,-1
66 33 m 1,4,-1
 265 33 l 1,5,-1
 265 633 l 1,6,-1
 66 633 l 1,7,-1
 66 33 l 1,4,-1
EndSplineSet
EndChar

StartChar: exclam
Encoding: 33 33 34
Width: 646
Flags: W
LayerCount: 2
Fore
SplineSet
323 730 m 1,0,-1
 363 730 l 1,1,-1
 363 243 l 1,2,-1
 323 243 l 1,3,-1
 283 243 l 1,4,-1
 283 730 l 1,5,-1
 323 730 l 1,0,-1
323 97 m 1,6,-1
 363 97 l 1,7,-1
 363 0 l 1,8,-1
 323 0 l 1,9,-1
 283 0 l 1,10,-1
 283 97 l 1,11,-1
 323 97 l 1,6,-1
EndSplineSet
EndChar

StartChar: quotedbl
Encoding: 34 34 35
Width: 646
Flags: W
LayerCount: 2
Fore
SplineSet
226 694 m 1,0,-1
 186 694 l 1,1,-1
 186 840 l 1,2,-1
 226 840 l 1,3,-1
 266 840 l 1,4,-1
 266 694 l 1,5,-1
 226 694 l 1,0,-1
420 694 m 1,6,-1
 380 694 l 1,7,-1
 380 840 l 1,8,-1
 420 840 l 1,9,-1
 460 840 l 1,10,-1
 460 694 l 1,11,-1
 420 694 l 1,6,-1
EndSplineSet
EndChar

StartChar: numbersign
Encoding: 35 35 36
Width: 646
Flags: W
LayerCount: 2
Fore
SplineSet
533 167 m 1,0,-1
 533 127 l 1,1,-1
 113 127 l 1,2,-1
 113 167 l 1,3,-1
 113 207 l 1,4,-1
 533 207 l 1,5,-1
 533 167 l 1,0,-1
533 354 m 1,6,-1
 533 314 l 1,7,-1
 113 314 l 1,8,-1
 113 354 l 1,9,-1
 113 394 l 1,10,-1
 533 394 l 1,11,-1
 533 354 l 1,6,-1
276 493 m 1,12,-1
 316 489 l 1,13,-1
 270 24 l 1,14,-1
 230 28 l 1,15,-1
 190 32 l 1,16,-1
 237 497 l 1,17,-1
 276 493 l 1,12,-1
416 493 m 1,18,-1
 456 489 l 1,19,-1
 409 24 l 1,20,-1
 370 28 l 1,21,-1
 330 32 l 1,22,-1
 376 497 l 1,23,-1
 416 493 l 1,18,-1
EndSplineSet
EndChar

StartChar: dollar
Encoding: 36 36 37
Width: 646
Flags: W
LayerCount: 2
Fore
SplineSet
502 526 m 1,0,-1
 468 506 l 1,1,2
 434 563 434 563 375 585 c 0,3,4
 320 606 320 606 267 585 c 128,-1,5
 214 564 214 564 195 512 c 0,6,7
 188 491 188 491 197 474 c 128,-1,8
 206 457 206 457 226 445 c 128,-1,9
 246 433 246 433 279 419 c 128,-1,10
 312 405 312 405 346.5 392.5 c 128,-1,11
 381 380 381 380 424 358.5 c 128,-1,12
 467 337 467 337 502 313 c 0,13,14
 539 287 539 287 557.5 254 c 128,-1,15
 576 221 576 221 572 176 c 128,-1,16
 568 131 568 131 535 83 c 0,17,18
 533 81 533 81 531 78 c 0,19,20
 506 53 506 53 477 35 c 0,21,22
 410 -6 410 -6 332.5 -8.5 c 128,-1,23
 255 -11 255 -11 185 26 c 128,-1,24
 115 63 115 63 72 132 c 1,25,-1
 107 153 l 1,26,-1
 141 174 l 1,27,28
 188 97 188 97 275 77 c 128,-1,29
 362 57 362 57 435 104 c 0,30,31
 455 116 455 116 472 132 c 1,32,33
 488 156 488 156 494 173 c 128,-1,34
 500 190 500 190 496 203.5 c 128,-1,35
 492 217 492 217 482 226.5 c 128,-1,36
 472 236 472 236 453 249 c 0,37,38
 441 257 441 257 418.5 267 c 128,-1,39
 396 277 396 277 371 286.5 c 128,-1,40
 346 296 346 296 316 308 c 128,-1,41
 286 320 286 320 259 332.5 c 128,-1,42
 232 345 232 345 205 361 c 128,-1,43
 178 377 178 377 159 394.5 c 128,-1,44
 140 412 140 412 126 435 c 128,-1,45
 112 458 112 458 111.5 483 c 128,-1,46
 111 508 111 508 120 539 c 0,47,48
 133 574 133 574 156 601.5 c 128,-1,49
 179 629 179 629 207.5 645 c 128,-1,50
 236 661 236 661 269 668.5 c 128,-1,51
 302 676 302 676 336.5 674 c 128,-1,52
 371 672 371 672 403 660 c 0,53,54
 489 628 489 628 537 546 c 1,55,-1
 502 526 l 1,0,-1
330 703 m 1,56,-1
 370 703 l 1,57,-1
 370 -40 l 1,58,-1
 330 -40 l 1,59,-1
 290 -40 l 1,60,-1
 290 703 l 1,61,-1
 330 703 l 1,56,-1
EndSplineSet
EndChar

StartChar: percent
Encoding: 37 37 38
Width: 646
Flags: W
LayerCount: 2
Fore
SplineSet
268 537 m 1,0,-1
 302 515 l 1,1,2
 281 483 281 483 249.5 468.5 c 128,-1,3
 218 454 218 454 187.5 457.5 c 128,-1,4
 157 461 157 461 131 477 c 0,5,6
 104 494 104 494 88 521.5 c 128,-1,7
 72 549 72 549 72.5 584.5 c 128,-1,8
 73 620 73 620 96 653 c 1,9,-1
 128 630 l 1,10,-1
 135 626 l 1,11,-1
 141 621 l 1,12,-1
 161 607 l 1,13,14
 135 569 135 569 174 545 c 0,15,16
 211 521 211 521 234 558 c 1,17,-1
 268 537 l 1,0,-1
128 630 m 1,18,-1
 95 651 l 1,19,20
 110 676 110 676 132.5 690.5 c 128,-1,21
 155 705 155 705 178 708 c 128,-1,22
 201 711 201 711 224 706.5 c 128,-1,23
 247 702 247 702 266 690 c 0,24,25
 293 673 293 673 309 645.5 c 128,-1,26
 325 618 325 618 324.5 582 c 128,-1,27
 324 546 324 546 301 514 c 1,28,-1
 268 537 l 1,29,-1
 261 542 l 1,30,-1
 254 547 l 1,31,-1
 235 560 l 1,32,33
 262 597 262 597 223 622 c 0,34,35
 186 646 186 646 162 609 c 1,36,-1
 128 630 l 1,18,-1
518 71 m 5,37,-1
 551 50 l 5,38,39
 531 17 531 17 499 2.5 c 132,-1,40
 467 -12 467 -12 436.5 -8.5 c 132,-1,41
 406 -5 406 -5 380 11 c 4,42,43
 353 28 353 28 337 55.5 c 132,-1,44
 321 83 321 83 321.5 119 c 132,-1,45
 322 155 322 155 345 187 c 5,46,-1
 378 164 l 5,47,-1
 394 153 l 5,48,-1
 411 141 l 5,49,50
 384 104 384 104 423 79 c 4,51,52
 460 55 460 55 484 92 c 5,53,-1
 518 71 l 5,37,-1
378 164 m 5,54,-1
 344 186 l 5,55,56
 365 218 365 218 396.5 232.5 c 132,-1,57
 428 247 428 247 458.5 243.5 c 132,-1,58
 489 240 489 240 515 224 c 4,59,60
 542 207 542 207 558 179.5 c 132,-1,61
 574 152 574 152 573.5 116.5 c 132,-1,62
 573 81 573 81 550 48 c 5,63,-1
 518 71 l 5,64,-1
 512 75 l 5,65,-1
 506 79 l 5,66,-1
 485 94 l 5,67,68
 511 132 511 132 472 156 c 4,69,70
 435 180 435 180 412 143 c 5,71,-1
 378 164 l 5,54,-1
532 675 m 1,72,-1
 565 653 l 1,73,-1
 146 1 l 1,74,-1
 112 22 l 1,75,-1
 79 44 l 1,76,-1
 498 696 l 1,77,-1
 532 675 l 1,72,-1
EndSplineSet
EndChar

StartChar: ampersand
Encoding: 38 38 39
Width: 646
Flags: W
LayerCount: 2
Fore
SplineSet
511 391 m 1,0,-1
 551 391 l 1,1,2
 551 314 551 314 530 245 c 0,3,4
 533 242 533 242 534 240 c 0,5,6
 560 208 560 208 572 173 c 128,-1,7
 584 138 584 138 578 96 c 128,-1,8
 572 54 572 54 544 14 c 1,9,-1
 511 37 l 1,10,-1
 478 60 l 1,11,12
 492 80 492 80 497.5 97 c 128,-1,13
 503 114 503 114 501.5 127.5 c 128,-1,14
 500 141 500 141 493 157 c 1,15,16
 459 96 459 96 410 55 c 0,17,18
 363 16 363 16 309 0 c 128,-1,19
 255 -16 255 -16 200.5 -2 c 128,-1,20
 146 12 146 12 108 58 c 0,21,22
 72 100 72 100 66.5 149 c 128,-1,23
 61 198 61 198 82 244.5 c 128,-1,24
 103 291 103 291 135 331.5 c 128,-1,25
 167 372 167 372 209 407 c 1,26,27
 173 443 173 443 154.5 481 c 128,-1,28
 136 519 136 519 139 568 c 128,-1,29
 142 617 142 617 176 665 c 0,30,31
 196 694 196 694 226 704.5 c 128,-1,32
 256 715 256 715 284.5 709 c 128,-1,33
 313 703 313 703 337 686 c 0,34,35
 370 662 370 662 390 624.5 c 128,-1,36
 410 587 410 587 408 537.5 c 128,-1,37
 406 488 406 488 374 442 c 0,38,39
 371 438 371 438 366 433 c 128,-1,40
 361 428 361 428 356.5 424 c 128,-1,41
 352 420 352 420 345.5 414 c 128,-1,42
 339 408 339 408 336 405 c 1,43,44
 340 402 340 402 389.5 365.5 c 128,-1,45
 439 329 439 329 463 309 c 1,46,47
 471 349 471 349 471 391 c 1,48,-1
 511 391 l 1,0,-1
438 226 m 1,49,50
 411 250 411 250 346.5 297.5 c 128,-1,51
 282 345 282 345 271 354 c 1,52,53
 216 310 216 310 184 264.5 c 128,-1,54
 152 219 152 219 148 179.5 c 128,-1,55
 144 140 144 140 169 109 c 0,56,57
 201 69 201 69 253.5 70.5 c 128,-1,58
 306 72 306 72 359 116 c 0,59,60
 408 158 408 158 438 226 c 1,49,50
278 457 m 1,61,62
 297 472 297 472 309 489 c 0,63,64
 327 515 327 515 328.5 542 c 128,-1,65
 330 569 330 569 319.5 588.5 c 128,-1,66
 309 608 309 608 291 621 c 0,67,68
 258 644 258 644 241 620 c 0,69,70
 219 589 219 589 217.5 562 c 128,-1,71
 216 535 216 535 231 511 c 128,-1,72
 246 487 246 487 278 457 c 1,61,62
EndSplineSet
EndChar

StartChar: quotesingle
Encoding: 39 39 40
Width: 646
Flags: W
LayerCount: 2
Fore
SplineSet
296 604 m 1,0,-1
 261 623 l 1,1,2
 305 706 305 706 305 799 c 1,3,-1
 345 799 l 1,4,-1
 385 799 l 1,5,6
 385 686 385 686 332 586 c 1,7,-1
 296 604 l 1,0,-1
EndSplineSet
EndChar

StartChar: parenleft
Encoding: 40 40 41
Width: 646
Flags: W
LayerCount: 2
Fore
SplineSet
430 22 m 1,0,-1
 410 -13 l 1,1,2
 301 53 301 53 241 161 c 0,3,4
 196 241 196 241 186 333.5 c 128,-1,5
 176 426 176 426 198 512.5 c 128,-1,6
 220 599 220 599 278.5 676 c 128,-1,7
 337 753 337 753 425 802 c 1,8,-1
 444 767 l 1,9,-1
 464 732 l 1,10,11
 415 705 415 705 376.5 666.5 c 128,-1,12
 338 628 338 628 313.5 584.5 c 128,-1,13
 289 541 289 541 275.5 491.5 c 128,-1,14
 262 442 262 442 262 392.5 c 128,-1,15
 262 343 262 343 274 293.5 c 128,-1,16
 286 244 286 244 311 200 c 0,17,18
 360 110 360 110 451 56 c 1,19,-1
 430 22 l 1,0,-1
EndSplineSet
EndChar

StartChar: parenright
Encoding: 41 41 42
Width: 646
Flags: W
LayerCount: 2
Fore
SplineSet
205 769 m 1,0,-1
 225 803 l 1,1,2
 335 740 335 740 398 632 c 0,3,4
 443 553 443 553 455.5 461 c 128,-1,5
 468 369 468 369 447.5 282.5 c 128,-1,6
 427 196 427 196 369.5 117.5 c 128,-1,7
 312 39 312 39 225 -11 c 1,8,-1
 205 23 l 1,9,-1
 185 58 l 1,10,11
 281 113 281 113 332 206.5 c 128,-1,12
 383 300 383 300 381 402 c 128,-1,13
 379 504 379 504 328 592 c 0,14,15
 277 681 277 681 185 734 c 1,16,-1
 205 769 l 1,0,-1
EndSplineSet
EndChar

StartChar: asterisk
Encoding: 42 42 43
Width: 646
Flags: W
LayerCount: 2
Fore
SplineSet
323 804 m 1,0,-1
 363 804 l 1,1,-1
 363 453 l 1,2,-1
 323 453 l 1,3,-1
 283 453 l 1,4,-1
 283 804 l 1,5,-1
 323 804 l 1,0,-1
466.056640625 730.766601562 m 5,6,-1
 489 698 l 5,7,-1
 189 488 l 5,8,-1
 166.057617188 520.765625 l 5,9,-1
 143.114257812 553.532226562 l 5,10,-1
 443.114257812 763.532226562 l 5,11,-1
 466.056640625 730.766601562 l 5,6,-1
166.057617188 737.234375 m 5,12,-1
 189 770 l 5,13,-1
 498 551 l 5,14,-1
 475.056640625 518.233398438 l 5,15,-1
 452.114257812 485.467773438 l 5,16,-1
 143.114257812 704.467773438 l 5,17,-1
 166.057617188 737.234375 l 5,12,-1
EndSplineSet
EndChar

StartChar: plus
Encoding: 43 43 44
Width: 646
Flags: W
LayerCount: 2
Fore
SplineSet
469 277 m 5,0,-1
 469 237 l 5,1,-1
 177 237 l 5,2,-1
 177 277 l 5,3,-1
 177 317 l 5,4,-1
 469 317 l 5,5,-1
 469 277 l 5,0,-1
323 423 m 5,6,-1
 363 423 l 5,7,-1
 363 131 l 5,8,-1
 323 131 l 5,9,-1
 283 131 l 5,10,-1
 283 423 l 5,11,-1
 323 423 l 5,6,-1
EndSplineSet
EndChar

StartChar: comma
Encoding: 44 44 45
Width: 646
Flags: W
LayerCount: 2
Fore
SplineSet
297 -155 m 5,0,-1
 260 -140 l 5,1,2
 306 -31 306 -31 306 88 c 5,3,-1
 346 88 l 5,4,-1
 386 88 l 5,5,6
 386 -46 386 -46 334 -171 c 5,7,-1
 297 -155 l 5,0,-1
EndSplineSet
EndChar

StartChar: hyphen
Encoding: 45 45 46
Width: 646
Flags: W
LayerCount: 2
Fore
SplineSet
469 298 m 1,0,-1
 469 258 l 1,1,-1
 177 258 l 1,2,-1
 177 298 l 1,3,-1
 177 338 l 1,4,-1
 469 338 l 1,5,-1
 469 298 l 1,0,-1
EndSplineSet
EndChar

StartChar: period
Encoding: 46 46 47
Width: 646
Flags: W
LayerCount: 2
Fore
SplineSet
323 97 m 1,0,-1
 363 97 l 1,1,-1
 363 0 l 1,2,-1
 323 0 l 1,3,-1
 283 0 l 1,4,-1
 283 97 l 1,5,-1
 323 97 l 1,0,-1
EndSplineSet
EndChar

StartChar: slash
Encoding: 47 47 48
Width: 646
Flags: W
LayerCount: 2
Fore
SplineSet
533 672 m 5,0,-1
 566 650 l 5,1,-1
 147 -2 l 5,2,-1
 113 19 l 5,3,-1
 80 41 l 5,4,-1
 499 693 l 5,5,-1
 533 672 l 5,0,-1
EndSplineSet
EndChar

StartChar: zero
Encoding: 48 48 49
Width: 646
Flags: W
LayerCount: 2
Fore
SplineSet
276 589 m 1,0,-1
 293 553 l 1,1,2
 228 523 228 523 191.5 470 c 128,-1,3
 155 417 155 417 148 354 c 0,4,5
 141 287 141 287 164.5 226 c 128,-1,6
 188 165 188 165 243 121.5 c 128,-1,7
 298 78 298 78 374 70 c 1,8,-1
 370 31 l 1,9,-1
 365 -9 l 1,10,11
 305 -3 305 -3 253.5 21.5 c 128,-1,12
 202 46 202 46 166 83 c 128,-1,13
 130 120 130 120 106 165.5 c 128,-1,14
 82 211 82 211 72.5 261.5 c 128,-1,15
 63 312 63 312 68 362 c 0,16,17
 74 417 74 417 96.5 465.5 c 128,-1,18
 119 514 119 514 161 556.5 c 128,-1,19
 203 599 203 599 260 626 c 1,20,-1
 276 589 l 1,0,-1
370 31 m 1,21,-1
 353 67 l 1,22,23
 418 97 418 97 454.5 150 c 128,-1,24
 491 203 491 203 498 266 c 0,25,26
 505 333 505 333 481.5 394 c 128,-1,27
 458 455 458 455 403 498.5 c 128,-1,28
 348 542 348 542 272 550 c 1,29,-1
 276 589 l 1,30,-1
 281 629 l 1,31,32
 356 621 356 621 416.5 585.5 c 128,-1,33
 477 550 477 550 513.5 498 c 128,-1,34
 550 446 550 446 567 383.5 c 128,-1,35
 584 321 584 321 578 258 c 0,36,37
 569 174 569 174 520 104 c 128,-1,38
 471 34 471 34 386 -6 c 1,39,-1
 370 31 l 1,21,-1
323 263 m 1,40,-1
 283 263 l 1,41,-1
 283 357 l 1,42,-1
 323 357 l 1,43,-1
 363 357 l 1,44,-1
 363 263 l 1,45,-1
 323 263 l 1,40,-1
EndSplineSet
EndChar

StartChar: one
Encoding: 49 49 50
Width: 646
Flags: W
LayerCount: 2
Fore
SplineSet
95 328 m 1,0,-1
 92 367 l 1,1,2
 208 378 208 378 310 434.5 c 128,-1,3
 412 491 412 491 482 584 c 0,4,5
 493 598 493 598 510.5 600 c 128,-1,6
 528 602 528 602 541 590 c 0,7,8
 554 579 554 579 554 560 c 2,9,-1
 554 2 l 1,10,-1
 514 2 l 1,11,-1
 474 2 l 1,12,-1
 474 456 l 1,13,14
 398 384 398 384 301 340.5 c 128,-1,15
 204 297 204 297 99 288 c 1,16,-1
 95 328 l 1,0,-1
EndSplineSet
EndChar

StartChar: two
Encoding: 50 50 51
Width: 646
Flags: W
LayerCount: 2
Fore
SplineSet
164 458 m 1,0,-1
 129 478 l 1,1,2
 164 537 164 537 220 564.5 c 0,3,4
 278 593 278 593 337 586 c 0,5,6
 378 581 378 581 414.5 565.5 c 128,-1,7
 451 550 451 550 479.5 524.5 c 128,-1,8
 508 499 508 499 522 459 c 128,-1,9
 536 419 536 419 530 371 c 0,10,11
 525 335 525 335 504.5 305 c 128,-1,12
 484 275 484 275 454 255.5 c 128,-1,13
 424 236 424 236 388.5 219 c 128,-1,14
 353 202 353 202 316.5 188 c 128,-1,15
 280 174 280 174 249 159.5 c 128,-1,16
 218 145 218 145 195 125.5 c 128,-1,17
 172 106 172 106 164 83 c 1,18,-1
 571 83 l 5,19,-1
 571 43 l 5,20,-1
 571 3 l 5,21,-1
 97 3 l 2,22,23
 85 3 85 3 81 12.5 c 128,-1,24
 77 22 77 22 77 43 c 0,25,26
 77 93 77 93 97 132 c 128,-1,27
 117 171 117 171 149 194.5 c 128,-1,28
 181 218 181 218 219.5 236 c 128,-1,29
 258 254 258 254 297.5 268 c 128,-1,30
 337 282 337 282 370 296 c 128,-1,31
 403 310 403 310 425 331 c 128,-1,32
 447 352 447 352 450 379 c 0,33,34
 456 438 456 438 421.5 469 c 128,-1,35
 387 500 387 500 329 506 c 0,36,37
 303 509 303 509 280 503 c 128,-1,38
 257 497 257 497 235.5 480.5 c 128,-1,39
 214 464 214 464 199 438 c 1,40,-1
 164 458 l 1,0,-1
EndSplineSet
EndChar

StartChar: three
Encoding: 51 51 52
Width: 646
Flags: W
LayerCount: 2
Fore
SplineSet
340 318 m 1,0,-1
 327 355 l 1,1,2
 363 368 363 368 389 392 c 128,-1,3
 415 416 415 416 406 443 c 0,4,5
 393 477 393 477 340.5 496 c 128,-1,6
 288 515 288 515 249 501 c 0,7,8
 227 492 227 492 204 473 c 1,9,-1
 178 504 l 1,10,-1
 153 534 l 1,11,12
 186 563 186 563 221 576 c 0,13,14
 276 593 276 593 328.5 585.5 c 128,-1,15
 381 578 381 578 424 546.5 c 128,-1,16
 467 515 467 515 481 471 c 0,17,18
 496 419 496 419 458.5 361.5 c 128,-1,19
 421 304 421 304 354 280 c 1,20,-1
 340 318 l 1,0,-1
340 318 m 1,21,-1
 340 358 l 1,22,23
 385 358 385 358 433 336.5 c 128,-1,24
 481 315 481 315 514 277 c 128,-1,25
 547 239 547 239 547 196 c 0,26,27
 547 155 547 155 536.5 122.5 c 128,-1,28
 526 90 526 90 510.5 70.5 c 128,-1,29
 495 51 495 51 470 35.5 c 128,-1,30
 445 20 445 20 424.5 13 c 128,-1,31
 404 6 404 6 375 -2 c 0,32,33
 344 -8 344 -8 311.5 -8.5 c 128,-1,34
 279 -9 279 -9 245 2.5 c 128,-1,35
 211 14 211 14 182 31.5 c 128,-1,36
 153 49 153 49 130.5 79 c 128,-1,37
 108 109 108 109 99 146 c 1,38,-1
 138 156 l 1,39,-1
 177 165 l 1,40,41
 182 143 182 143 196.5 124.5 c 128,-1,42
 211 106 211 106 230 95 c 128,-1,43
 249 84 249 84 271 77.5 c 128,-1,44
 293 71 293 71 314 71.5 c 128,-1,45
 335 72 335 72 355 76 c 0,46,47
 378 81 378 81 394.5 88.5 c 128,-1,48
 411 96 411 96 429 109.5 c 128,-1,49
 447 123 447 123 457 145 c 128,-1,50
 467 167 467 167 467 196 c 0,51,52
 467 227 467 227 422.5 252.5 c 128,-1,53
 378 278 378 278 340 278 c 1,54,-1
 340 318 l 1,21,-1
EndSplineSet
EndChar

StartChar: four
Encoding: 52 52 53
Width: 646
Flags: W
LayerCount: 2
Fore
SplineSet
429 221 m 1,0,-1
 529 221 l 1,1,-1
 529 181 l 1,2,-1
 529 141 l 1,3,-1
 429 141 l 1,4,-1
 429 0 l 1,5,-1
 389 0 l 1,6,-1
 349 0 l 1,7,-1
 349 141 l 1,8,-1
 157 141 l 2,9,10
 140 141 140 141 128 153 c 256,11,12
 116 165 116 165 117 183 c 128,-1,13
 118 201 118 201 131 212 c 0,14,15
 212 280 212 280 268.5 370 c 128,-1,16
 325 460 325 460 351 563 c 0,17,18
 354 575 354 575 364 583.5 c 128,-1,19
 374 592 374 592 386 593 c 0,20,21
 404 595 404 595 416.5 583 c 128,-1,22
 429 571 429 571 429 554 c 2,23,-1
 429 221 l 1,0,-1
349 221 m 1,24,-1
 349 349 l 1,25,26
 310 280 310 280 256 221 c 1,27,-1
 349 221 l 1,24,-1
EndSplineSet
EndChar

StartChar: five
Encoding: 53 53 54
Width: 646
Flags: W
LayerCount: 2
Fore
SplineSet
513 536 m 1,0,-1
 513 496 l 1,1,-1
 182 496 l 1,2,-1
 182 388 l 1,3,4
 207 403 207 403 248 408.5 c 128,-1,5
 289 414 289 414 324 412.5 c 128,-1,6
 359 411 359 411 392 406 c 0,7,8
 498 389 498 389 542.5 319 c 128,-1,9
 587 249 587 249 557 147 c 0,10,11
 529 49 529 49 419 11 c 0,12,13
 372 -5 372 -5 322 -5.5 c 128,-1,14
 272 -6 272 -6 225 9 c 128,-1,15
 178 24 178 24 138.5 60 c 128,-1,16
 99 96 99 96 77 150 c 1,17,-1
 114 165 l 1,18,-1
 151 181 l 1,19,20
 166 144 166 144 193 119.5 c 128,-1,21
 220 95 220 95 252.5 85.5 c 128,-1,22
 285 76 285 76 319 76 c 128,-1,23
 353 76 353 76 388 85 c 0,24,25
 462 104 462 104 479 161 c 0,26,27
 491 205 491 205 485 239 c 128,-1,28
 479 273 479 273 451.5 296 c 128,-1,29
 424 319 424 319 378 327 c 0,30,31
 325 336 325 336 265 325.5 c 128,-1,32
 205 315 205 315 172 277 c 0,33,34
 161 265 161 265 145 263 c 0,35,36
 134 263 134 263 124 268 c 128,-1,37
 114 273 114 273 108 282.5 c 128,-1,38
 102 292 102 292 102 303 c 2,39,-1
 102 546 l 2,40,41
 102 557 102 557 103 562 c 128,-1,42
 104 567 104 567 109.5 571.5 c 128,-1,43
 115 576 115 576 127 576 c 2,44,-1
 513 576 l 1,45,-1
 513 536 l 1,0,-1
EndSplineSet
EndChar

StartChar: six
Encoding: 54 54 55
Width: 646
Flags: W
LayerCount: 2
Fore
SplineSet
130 215 m 1,0,-1
 99 240 l 1,1,2
 105 247 105 247 111 254 c 0,3,4
 116 259 116 259 122 265 c 1,5,6
 122 276 122 276 123 286 c 0,7,8
 129 365 129 365 204 442.5 c 128,-1,9
 279 520 279 520 397 575 c 1,10,-1
 431 502 l 1,11,12
 376 477 376 477 332 449.5 c 128,-1,13
 288 422 288 422 255.5 390 c 128,-1,14
 223 358 223 358 213 329 c 1,15,16
 272 353 272 353 333 345 c 128,-1,17
 394 337 394 337 445.5 307 c 128,-1,18
 497 277 497 277 520 237 c 0,19,20
 541 201 541 201 546 161 c 128,-1,21
 551 121 551 121 533.5 81.5 c 128,-1,22
 516 42 516 42 475 18 c 0,23,24
 457 8 457 8 438 2 c 0,25,26
 381 -16 381 -16 316 4.5 c 128,-1,27
 251 25 251 25 201.5 71.5 c 128,-1,28
 152 118 152 118 135 174 c 1,29,-1
 130 215 l 1,0,-1
204 231 m 1,30,31
 204 231 204 231 204 230 c 0,32,33
 211 183 211 183 247 144.5 c 128,-1,34
 283 106 283 106 325.5 88 c 128,-1,35
 368 70 368 70 400 75 c 0,36,37
 418 78 418 78 435 87 c 0,38,39
 463 103 463 103 467 132.5 c 128,-1,40
 471 162 471 162 451 197 c 0,41,42
 425 242 425 242 356 260 c 128,-1,43
 287 278 287 278 227 247 c 0,44,45
 219 243 219 243 212 237 c 0,46,47
 208 235 208 235 204 231 c 1,30,31
EndSplineSet
EndChar

StartChar: seven
Encoding: 55 55 56
Width: 646
Flags: W
LayerCount: 2
Fore
SplineSet
93 535 m 1,0,-1
 93 575 l 1,1,-1
 532 575 l 2,2,3
 543 575 543 575 548 569 c 128,-1,4
 553 563 553 563 553 553.5 c 128,-1,5
 553 544 553 544 552 532 c 0,6,7
 551 516 551 516 538 505 c 0,8,9
 289 296 289 296 273 -5 c 1,10,-1
 233 -2 l 1,11,-1
 193 0 l 1,12,13
 208 275 208 275 412 495 c 1,14,-1
 93 495 l 1,15,-1
 93 535 l 1,0,-1
168 230 m 1,16,-1
 168 270 l 1,17,-1
 419 270 l 1,18,-1
 419 230 l 1,19,-1
 419 190 l 1,20,-1
 168 190 l 1,21,-1
 168 230 l 1,16,-1
EndSplineSet
EndChar

StartChar: eight
Encoding: 56 56 57
Width: 646
Flags: W
LayerCount: 2
Fore
SplineSet
246 315 m 1,0,-1
 262 268 l 1,1,2
 191 227 191 227 183 205 c 0,3,4
 171 172 171 172 195 132.5 c 128,-1,5
 219 93 219 93 262 77 c 0,6,7
 277 71 277 71 296 68 c 128,-1,8
 315 65 315 65 339.5 67 c 128,-1,9
 364 69 364 69 387 76.5 c 128,-1,10
 410 84 410 84 431 103.5 c 128,-1,11
 452 123 452 123 464 152 c 0,12,13
 468 160 468 160 468.5 167 c 128,-1,14
 469 174 469 174 466 180.5 c 128,-1,15
 463 187 463 187 458.5 191.5 c 128,-1,16
 454 196 454 196 444.5 202 c 128,-1,17
 435 208 435 208 426.5 213 c 128,-1,18
 418 218 418 218 403.5 226 c 128,-1,19
 389 234 389 234 378 241 c 0,20,21
 372 244 372 244 358.5 248 c 128,-1,22
 345 252 345 252 329 255 c 128,-1,23
 313 258 313 258 297.5 261 c 128,-1,24
 282 264 282 264 272 266 c 2,25,-1
 262 268 l 1,26,-1
 246 315 l 1,0,-1
393 325 m 2,27,-1
 380 329 l 1,28,29
 424 354 424 354 434.5 387.5 c 128,-1,30
 445 421 445 421 425 451 c 0,31,32
 406 485 406 485 343.5 499.5 c 128,-1,33
 281 514 281 514 250 495 c 0,34,35
 236 487 236 487 222 471 c 0,36,37
 205 447 205 447 204.5 430 c 128,-1,38
 204 413 204 413 215.5 399 c 128,-1,39
 227 385 227 385 257 365 c 0,40,41
 262 361 262 361 269 357 c 0,42,43
 277 352 277 352 328.5 342 c 128,-1,44
 380 332 380 332 393 325 c 2,27,-1
190 315 m 1,45,46
 160 339 160 339 143 368.5 c 128,-1,47
 126 398 126 398 127.5 438 c 128,-1,48
 129 478 129 478 158 519 c 0,49,50
 159 520 159 520 160 521 c 0,51,52
 173 537 173 537 187 548 c 0,53,54
 227 581 227 581 287 584.5 c 128,-1,55
 347 588 347 588 399 568 c 128,-1,56
 451 548 451 548 477 516 c 0,57,58
 504 483 504 483 514 444 c 128,-1,59
 524 405 524 405 510.5 362 c 128,-1,60
 497 319 497 319 456 285 c 1,61,62
 462 281 462 281 479.5 269.5 c 128,-1,63
 497 258 497 258 505.5 252 c 128,-1,64
 514 246 514 246 526.5 232 c 128,-1,65
 539 218 539 218 543 204.5 c 128,-1,66
 547 191 547 191 547 170 c 128,-1,67
 547 149 547 149 539 124 c 0,68,69
 527 83 527 83 498.5 53.5 c 128,-1,70
 470 24 470 24 436 10 c 128,-1,71
 402 -4 402 -4 363.5 -9 c 128,-1,72
 325 -14 325 -14 292 -10.5 c 128,-1,73
 259 -7 259 -7 234 2 c 0,74,75
 165 28 165 28 123 94.5 c 128,-1,76
 81 161 81 161 108 233 c 0,77,78
 116 254 116 254 136.5 273 c 128,-1,79
 157 292 157 292 190 315 c 1,45,46
EndSplineSet
EndChar

StartChar: nine
Encoding: 57 57 58
Width: 646
Flags: W
LayerCount: 2
Fore
SplineSet
513 329 m 1,0,-1
 540 299 l 1,1,2
 533 293 533 293 526 287 c 0,3,4
 521 283 521 283 515 278 c 1,5,6
 513 267 513 267 511 257 c 0,7,8
 493 178 493 178 404.5 102 c 128,-1,9
 316 26 316 26 195 -11 c 1,10,-1
 172 65 l 1,11,12
 254 90 254 90 323.5 137 c 128,-1,13
 393 184 393 184 415 227 c 1,14,15
 353 212 353 212 293 226.5 c 128,-1,16
 233 241 233 241 185.5 277 c 128,-1,17
 138 313 138 313 120 355 c 0,18,19
 109 384 109 384 107 414.5 c 128,-1,20
 105 445 105 445 112 474 c 128,-1,21
 119 503 119 503 140.5 527.5 c 128,-1,22
 162 552 162 552 196 566 c 0,23,24
 215 574 215 574 235 577 c 0,25,26
 294 587 294 587 356 559 c 128,-1,27
 418 531 418 531 461.5 479.5 c 128,-1,28
 505 428 505 428 514 370 c 1,29,-1
 513 329 l 1,0,-1
438 323 m 1,30,31
 438 323 438 323 438 324 c 0,32,33
 438 371 438 371 406.5 413 c 128,-1,34
 375 455 375 455 334.5 477.5 c 128,-1,35
 294 500 294 500 262 499 c 0,36,37
 244 499 244 499 226 492 c 0,38,39
 196 480 196 480 187.5 451.5 c 128,-1,40
 179 423 179 423 195 385 c 0,41,42
 214 338 214 338 283 312 c 128,-1,43
 352 286 352 286 413 311 c 0,44,45
 421 314 421 314 429 318 c 0,46,47
 433 320 433 320 438 323 c 1,30,31
EndSplineSet
EndChar

StartChar: colon
Encoding: 58 58 59
Width: 646
Flags: W
LayerCount: 2
Fore
SplineSet
323 134 m 1,0,-1
 363 134 l 1,1,-1
 363 37 l 1,2,-1
 323 37 l 1,3,-1
 283 37 l 1,4,-1
 283 134 l 1,5,-1
 323 134 l 1,0,-1
323 377 m 1,6,-1
 283 377 l 1,7,-1
 283 475 l 1,8,-1
 323 475 l 1,9,-1
 363 475 l 1,10,-1
 363 377 l 1,11,-1
 323 377 l 1,6,-1
EndSplineSet
EndChar

StartChar: semicolon
Encoding: 59 59 60
Width: 646
Flags: W
LayerCount: 2
Fore
SplineSet
297 -110 m 1,0,-1
 260 -95 l 1,1,2
 306 14 306 14 306 133 c 1,3,-1
 346 133 l 1,4,-1
 386 133 l 1,5,6
 386 -1 386 -1 334 -126 c 1,7,-1
 297 -110 l 1,0,-1
346 389 m 1,8,-1
 306 389 l 1,9,-1
 306 486 l 1,10,-1
 346 486 l 1,11,-1
 386 486 l 1,12,-1
 386 389 l 1,13,-1
 346 389 l 1,8,-1
EndSplineSet
EndChar

StartChar: less
Encoding: 60 60 61
Width: 646
Flags: W
LayerCount: 2
Fore
SplineSet
375 134 m 1,0,-1
 342 112 l 1,1,-1
 244 258 l 2,2,3
 229 280 229 280 244 302 c 2,4,-1
 342 448 l 1,5,-1
 375 426 l 1,6,-1
 408 404 l 1,7,-1
 326 280 l 1,8,-1
 408 156 l 1,9,-1
 375 134 l 1,0,-1
EndSplineSet
EndChar

StartChar: equal
Encoding: 61 61 62
Width: 646
Flags: W
LayerCount: 2
Fore
SplineSet
498 216 m 1,0,-1
 498 176 l 1,1,-1
 148 176 l 1,2,-1
 148 216 l 1,3,-1
 148 256 l 1,4,-1
 498 256 l 1,5,-1
 498 216 l 1,0,-1
498 362 m 1,6,-1
 498 322 l 1,7,-1
 148 322 l 1,8,-1
 148 362 l 1,9,-1
 148 402 l 1,10,-1
 498 402 l 1,11,-1
 498 362 l 1,6,-1
EndSplineSet
EndChar

StartChar: greater
Encoding: 62 62 63
Width: 646
Flags: W
LayerCount: 2
Fore
SplineSet
271 426 m 1,0,-1
 304 448 l 1,1,-1
 402 302 l 2,2,3
 417 280 417 280 402 258 c 2,4,-1
 304 112 l 1,5,-1
 271 134 l 1,6,-1
 238 156 l 1,7,-1
 320 280 l 1,8,-1
 238 404 l 1,9,-1
 271 426 l 1,0,-1
EndSplineSet
EndChar

StartChar: question
Encoding: 63 63 64
Width: 646
Flags: W
LayerCount: 2
Fore
SplineSet
127 563 m 1,0,-1
 90 580 l 1,1,2
 158 724 158 724 270 739 c 0,3,4
 312 744 312 744 353 731.5 c 128,-1,5
 394 719 394 719 427 692.5 c 128,-1,6
 460 666 460 666 487.5 631 c 128,-1,7
 515 596 515 596 532 556 c 128,-1,8
 549 516 549 516 554 477 c 0,9,10
 565 391 565 391 514 326 c 128,-1,11
 463 261 463 261 353 246 c 1,12,-1
 353 174 l 1,13,-1
 313 174 l 1,14,-1
 273 174 l 1,15,-1
 273 283 l 2,16,17
 273 299 273 299 284 311 c 128,-1,18
 295 323 295 323 311 323 c 0,19,20
 406 327 406 327 442 362 c 128,-1,21
 478 397 478 397 476 452 c 0,22,23
 474 501 474 501 444.5 550.5 c 128,-1,24
 415 600 415 600 372 631 c 128,-1,25
 329 662 329 662 289 660 c 0,26,27
 215 657 215 657 163 546 c 1,28,-1
 127 563 l 1,0,-1
313 96 m 1,29,-1
 353 96 l 1,30,-1
 353 2 l 1,31,-1
 313 2 l 1,32,-1
 273 2 l 1,33,-1
 273 96 l 1,34,-1
 313 96 l 1,29,-1
EndSplineSet
EndChar

StartChar: at
Encoding: 64 64 65
Width: 646
Flags: W
LayerCount: 2
Fore
SplineSet
387 302 m 1,0,-1
 347 305 l 1,1,2
 348 311 348 311 344 316 c 0,3,4
 333 329 333 329 320 318 c 0,5,6
 288 292 288 292 297 253 c 0,7,8
 303 225 303 225 325.5 210 c 128,-1,9
 348 195 348 195 378 202 c 1,10,-1
 396 124 l 1,11,12
 332 109 332 109 282 143.5 c 128,-1,13
 232 178 232 178 219 235 c 0,14,15
 210 273 210 273 222.5 312 c 128,-1,16
 235 351 235 351 268 380 c 0,17,18
 303 406 303 406 342 401.5 c 128,-1,19
 381 397 381 397 406 367 c 0,20,21
 429 338 429 338 427 300 c 1,22,-1
 387 302 l 1,0,-1
387 349 m 1,23,-1
 427 349 l 1,24,-1
 427 226 l 1,25,26
 449 239 449 239 465 255 c 0,27,28
 516 311 516 311 509 381 c 128,-1,29
 502 451 502 451 448 505 c 0,30,31
 417 536 417 536 382 549.5 c 128,-1,32
 347 563 347 563 306.5 553.5 c 128,-1,33
 266 544 266 544 229 507 c 0,34,35
 126 404 126 404 137 262 c 0,36,37
 142 202 142 202 169 146.5 c 128,-1,38
 196 91 196 91 239.5 49.5 c 128,-1,39
 283 8 283 8 345.5 -14 c 128,-1,40
 408 -36 408 -36 477 -30 c 1,41,-1
 480 -70 l 1,42,-1
 484 -110 l 1,43,44
 396 -117 396 -117 318 -89 c 128,-1,45
 240 -61 240 -61 185.5 -9.5 c 128,-1,46
 131 42 131 42 97 111.5 c 128,-1,47
 63 181 63 181 57 256 c 0,48,49
 51 339 51 339 79.5 419 c 128,-1,50
 108 499 108 499 173 563 c 0,51,52
 213 604 213 604 259.5 622 c 128,-1,53
 306 640 306 640 350 635.5 c 128,-1,54
 394 631 394 631 433.5 612 c 128,-1,55
 473 593 473 593 504 561 c 0,56,57
 538 527 538 527 560 482.5 c 128,-1,58
 582 438 582 438 588.5 389 c 128,-1,59
 595 340 595 340 578.5 289.5 c 128,-1,60
 562 239 562 239 522 198 c 0,61,62
 475 152 475 152 401 125 c 0,63,64
 396 123 396 123 390 123 c 0,65,66
 373 121 373 121 360 133 c 128,-1,67
 347 145 347 145 347 163 c 2,68,-1
 347 349 l 1,69,-1
 387 349 l 1,23,-1
EndSplineSet
EndChar

StartChar: A
Encoding: 65 65 66
Width: 646
Flags: W
LayerCount: 2
Fore
SplineSet
108 12 m 5,0,-1
 70 24 l 5,1,-1
 282 704 l 6,2,3
 287 720 287 720 303 727.5 c 132,-1,4
 319 735 319 735 335 729 c 4,5,6
 352 721 352 721 358 704 c 6,7,-1
 576 24 l 5,8,-1
 538 12 l 5,9,-1
 500 0 l 5,10,-1
 320 561 l 5,11,-1
 146 0 l 5,12,-1
 108 12 l 5,0,-1
176 226 m 5,13,-1
 176 266 l 5,14,-1
 446 266 l 5,15,-1
 446 226 l 5,16,-1
 446 186 l 5,17,-1
 176 186 l 5,18,-1
 176 226 l 5,13,-1
EndSplineSet
EndChar

StartChar: B
Encoding: 66 66 67
Width: 646
Flags: W
LayerCount: 2
Fore
SplineSet
117 4 m 1,0,-1
 77 4 l 1,1,-1
 77 703 l 2,2,3
 77 705 77 705 77 709 c 128,-1,4
 77 713 77 713 77 715 c 128,-1,5
 77 717 77 717 77 720 c 128,-1,6
 77 723 77 723 77.5 724 c 128,-1,7
 78 725 78 725 78.5 727 c 128,-1,8
 79 729 79 729 80 730 c 128,-1,9
 81 731 81 731 83 732 c 128,-1,10
 85 733 85 733 87.5 733.5 c 128,-1,11
 90 734 90 734 93 735 c 0,12,13
 155 740 155 740 218.5 722.5 c 128,-1,14
 282 705 282 705 321 673 c 0,15,16
 364 637 364 637 386 589 c 128,-1,17
 408 541 408 541 403 487 c 128,-1,18
 398 433 398 433 362 390 c 1,19,-1
 331 415 l 1,20,-1
 300 441 l 1,21,22
 321 465 321 465 324 495.5 c 128,-1,23
 327 526 327 526 313 556.5 c 128,-1,24
 299 587 299 587 270 611 c 0,25,26
 223 651 223 651 157 655 c 1,27,-1
 157 4 l 1,28,-1
 117 4 l 1,0,-1
117 415 m 1,29,-1
 117 455 l 1,30,-1
 331 455 l 2,31,32
 420 455 420 455 486 400 c 0,33,34
 555 343 555 343 567.5 255.5 c 128,-1,35
 580 168 580 168 520 92 c 0,36,37
 498 66 498 66 471.5 47.5 c 128,-1,38
 445 29 445 29 415.5 19.5 c 128,-1,39
 386 10 386 10 357 4.5 c 128,-1,40
 328 -1 328 -1 294 -1.5 c 128,-1,41
 260 -2 260 -2 233.5 -1.5 c 128,-1,42
 207 -1 207 -1 172 1 c 128,-1,43
 137 3 137 3 117 3 c 1,44,-1
 117 4 l 1,45,-1
 117 83 l 1,46,47
 142 83 142 83 187 81.5 c 128,-1,48
 232 80 232 80 256.5 80 c 128,-1,49
 281 80 281 80 316 82.5 c 128,-1,50
 351 85 351 85 373 91 c 128,-1,51
 395 97 395 97 418.5 110 c 128,-1,52
 442 123 442 123 459 143 c 0,53,54
 496 189 496 189 488 245 c 128,-1,55
 480 301 480 301 435 339 c 0,56,57
 391 375 391 375 331 375 c 2,58,-1
 117 375 l 1,59,-1
 117 415 l 1,29,-1
EndSplineSet
EndChar

StartChar: C
Encoding: 67 67 68
Width: 646
Flags: W
LayerCount: 2
Fore
SplineSet
550 647 m 5,0,-1
 524 617 l 5,1,2
 488 647 488 647 442 658 c 132,-1,3
 396 669 396 669 342.5 658 c 128,-1,4
 289 647 289 647 252.5 616.5 c 128,-1,5
 216 586 216 586 192.5 542 c 128,-1,6
 169 498 169 498 161.5 451.5 c 128,-1,7
 154 405 154 405 157 360 c 128,-1,8
 160 315 160 315 172 276 c 0,9,10
 195 204 195 204 252 152.5 c 128,-1,11
 309 101 309 101 380 80 c 132,-1,12
 451 59 451 59 538 86 c 5,13,-1
 550 48 l 5,14,-1
 562 10 l 5,15,16
 455 -22 455 -22 359.5 3 c 4,17,18
 253 30 253 30 188.5 96 c 0,19,20
 127 159 127 159 96 251 c 0,21,22
 83 290 83 290 78.5 334 c 128,-1,23
 74 378 74 378 78.5 425.5 c 128,-1,24
 83 473 83 473 96.5 518 c 128,-1,25
 110 563 110 563 137 605 c 128,-1,26
 164 647 164 647 201 678 c 0,27,28
 279 743 279 743 396.5 743 c 4,29,30
 498 743 498 743 576 678 c 5,31,-1
 550 647 l 5,0,-1
EndSplineSet
EndChar

StartChar: D
Encoding: 68 68 69
Width: 646
Flags: W
LayerCount: 2
Fore
SplineSet
154 73 m 1,0,1
 232 75 232 75 284 90.5 c 132,-1,2
 336 106 336 106 378 134 c 132,-1,3
 420 162 420 162 446 201 c 4,4,5
 513 302 513 302 482 412.5 c 132,-1,6
 451 523 451 523 345 597 c 4,7,8
 265 653 265 653 154 662 c 1,9,-1
 154 73 l 1,0,1
74 22 m 2,10,-1
 74 712 l 2,11,12
 74 730 74 730 78 737 c 128,-1,13
 82 744 82 744 94 744 c 0,14,15
 165 744 165 744 215 734 c 132,-1,16
 265 724 265 724 310 705.5 c 132,-1,17
 355 687 355 687 391 662 c 4,18,19
 453 619 453 619 496.5 558.5 c 132,-1,20
 540 498 540 498 559.5 431 c 132,-1,21
 579 364 579 364 567.5 291 c 132,-1,22
 556 218 556 218 512 155 c 4,23,24
 480 110 480 110 432.5 77 c 132,-1,25
 385 44 385 44 331 26.5 c 132,-1,26
 277 9 277 9 224.5 0.5 c 132,-1,27
 172 -8 172 -8 99 -8 c 0,28,29
 83 -8 83 -8 78.5 -0.5 c 128,-1,30
 74 7 74 7 74 22 c 2,10,-1
EndSplineSet
EndChar

StartChar: E
Encoding: 69 69 70
Width: 646
Flags: W
LayerCount: 2
Fore
SplineSet
114 1 m 1,0,-1
 74 1 l 1,1,-1
 74 704 l 2,2,3
 74 722 74 722 78 728 c 128,-1,4
 82 734 82 734 94 734 c 2,5,-1
 525 734 l 5,6,-1
 525 694 l 5,7,-1
 525 654 l 5,8,-1
 154 654 l 1,9,-1
 154 1 l 1,10,-1
 114 1 l 1,0,-1
114 386 m 1,11,-1
 114 426 l 1,12,-1
 478 426 l 5,13,-1
 478 386 l 5,14,-1
 478 346 l 5,15,-1
 114 346 l 1,16,-1
 114 386 l 1,11,-1
114 1 m 1,17,-1
 114 81 l 1,18,-1
 572 81 l 5,19,-1
 572 41 l 5,20,-1
 572 1 l 5,21,-1
 114 1 l 1,17,-1
EndSplineSet
EndChar

StartChar: F
Encoding: 70 70 71
Width: 646
Flags: W
LayerCount: 2
Fore
SplineSet
114 1 m 1,0,-1
 74 1 l 1,1,-1
 74 709 l 2,2,3
 74 721 74 721 77 726.5 c 128,-1,4
 80 732 80 732 84.5 733 c 128,-1,5
 89 734 89 734 99 734 c 2,6,-1
 573 734 l 5,7,-1
 572 731 l 5,8,-1
 573 654 l 5,9,-1
 154 654 l 1,10,-1
 154 1 l 1,11,-1
 114 1 l 1,0,-1
114 387 m 1,12,-1
 114 427 l 1,13,-1
 495 427 l 5,14,-1
 495 387 l 5,15,-1
 495 347 l 5,16,-1
 114 347 l 1,17,-1
 114 387 l 1,12,-1
EndSplineSet
EndChar

StartChar: G
Encoding: 71 71 72
Width: 646
Flags: W
LayerCount: 2
Fore
SplineSet
550 652 m 1,0,-1
 524 621 l 1,1,2
 464 671 464 671 386.5 671 c 128,-1,3
 309 671 309 671 249 621 c 0,4,5
 177 561 177 561 151.5 483 c 128,-1,6
 126 405 126 405 143 325 c 0,7,8
 155 265 155 265 188 214 c 128,-1,9
 221 163 221 163 269 127.5 c 128,-1,10
 317 92 317 92 378.5 77.5 c 128,-1,11
 440 63 440 63 510 78 c 1,12,-1
 510 286 l 1,13,-1
 363 286 l 1,14,-1
 363 326 l 1,15,-1
 363 366 l 1,16,-1
 570 366 l 2,17,18
 578 366 578 366 582.5 363.5 c 128,-1,19
 587 361 587 361 588.5 355 c 128,-1,20
 590 349 590 349 590 336 c 2,21,-1
 590 32 l 2,22,23
 590 29 590 29 589 26 c 128,-1,24
 588 23 588 23 587.5 21.5 c 128,-1,25
 587 20 587 20 585 18 c 128,-1,26
 583 16 583 16 582 15.5 c 128,-1,27
 581 15 581 15 577.5 13.5 c 128,-1,28
 574 12 574 12 573 11.5 c 128,-1,29
 572 11 572 11 567 10 c 128,-1,30
 562 9 562 9 561 8 c 0,31,32
 442 -26 442 -26 342 4 c 128,-1,33
 242 34 242 34 171.5 106.5 c 128,-1,34
 101 179 101 179 73 275 c 0,35,36
 57 327 57 327 56.5 380.5 c 128,-1,37
 56 434 56 434 69.5 487 c 128,-1,38
 83 540 83 540 116 591 c 128,-1,39
 149 642 149 642 198 683 c 0,40,41
 252 728 252 728 319.5 744 c 128,-1,42
 387 760 387 760 454 744 c 128,-1,43
 521 728 521 728 575 683 c 1,44,-1
 550 652 l 1,0,-1
EndSplineSet
EndChar

StartChar: H
Encoding: 72 72 73
Width: 646
Flags: W
LayerCount: 2
Fore
SplineSet
113 1 m 1,0,-1
 73 1 l 1,1,-1
 73 731 l 1,2,-1
 113 731 l 1,3,-1
 153 731 l 1,4,-1
 153 1 l 1,5,-1
 113 1 l 1,0,-1
113 377 m 1,6,-1
 113 417 l 1,7,-1
 533 417 l 1,8,-1
 533 377 l 1,9,-1
 533 337 l 1,10,-1
 113 337 l 1,11,-1
 113 377 l 1,6,-1
533 731 m 1,12,-1
 573 731 l 1,13,-1
 573 1 l 1,14,-1
 533 1 l 1,15,-1
 493 1 l 1,16,-1
 493 731 l 1,17,-1
 533 731 l 1,12,-1
EndSplineSet
EndChar

StartChar: I
Encoding: 73 73 74
Width: 646
Flags: W
LayerCount: 2
Fore
SplineSet
74 653 m 1,0,-1
 74 733 l 1,1,-1
 572 733 l 1,2,-1
 572 693 l 1,3,-1
 572 653 l 1,4,-1
 74 653 l 1,0,-1
74 0 m 1,5,-1
 74 80 l 1,6,-1
 572 80 l 1,7,-1
 572 40 l 1,8,-1
 572 0 l 1,9,-1
 74 0 l 1,5,-1
323 67 m 1,10,-1
 283 67 l 1,11,-1
 283 722 l 5,12,-1
 323 722 l 5,13,-1
 363 722 l 5,14,-1
 363 67 l 1,15,-1
 323 67 l 1,10,-1
EndSplineSet
EndChar

StartChar: J
Encoding: 74 74 75
Width: 646
Flags: W
LayerCount: 2
Fore
SplineSet
124 652 m 5,0,-1
 124 732 l 5,1,-1
 572 732 l 1,2,-1
 572 692 l 1,3,-1
 572 652 l 1,4,-1
 124 652 l 5,0,-1
532 661 m 1,5,-1
 572 661 l 1,6,-1
 572 244 l 2,7,8
 572 207.181818182 572 207.181818182 559 154 c 0,9,10
 548 108 548 108 470.5 49.5 c 0,11,12
 417 9 417 9 354 -1.5 c 128,-1,13
 291 -12 291 -12 218.5 -9 c 128,-1,14
 146 -6 146 -6 77 20 c 1,15,-1
 90 57 l 1,16,-1
 104 95 l 1,17,18
 185 67 185 67 261 71 c 0,19,20
 373 76 373 76 398 94 c 0,21,22
 473 145 473 145 484 181 c 0,23,24
 492 206 492 206 492 244 c 2,25,-1
 492 661 l 1,26,-1
 532 661 l 1,5,-1
EndSplineSet
EndChar

StartChar: K
Encoding: 75 75 76
Width: 646
Flags: W
LayerCount: 2
Fore
SplineSet
115 -1 m 1,0,-1
 75 -1 l 1,1,-1
 75 730 l 1,2,-1
 115 730 l 1,3,-1
 155 730 l 1,4,-1
 155 -1 l 1,5,-1
 115 -1 l 1,0,-1
115 332 m 1,6,-1
 85 359 l 1,7,-1
 427 731 l 1,8,-1
 457 704 l 1,9,-1
 486 677 l 1,10,-1
 144 304 l 1,11,-1
 115 332 l 1,6,-1
208 406 m 1,12,-1
 238 432 l 1,13,-1
 571 41 l 1,14,-1
 541 14 l 1,15,-1
 511 -12 l 1,16,-1
 178 380 l 1,17,-1
 208 406 l 1,12,-1
EndSplineSet
EndChar

StartChar: L
Encoding: 76 76 77
Width: 646
Flags: W
LayerCount: 2
Fore
SplineSet
114 1 m 1,0,-1
 74 1 l 1,1,-1
 74 732 l 1,2,-1
 114 732 l 1,3,-1
 154 732 l 1,4,-1
 154 1 l 1,5,-1
 114 1 l 1,0,-1
137 1 m 5,6,-1
 137 81 l 5,7,-1
 572 81 l 5,8,-1
 572 41 l 5,9,-1
 572 1 l 5,10,-1
 137 1 l 5,6,-1
EndSplineSet
EndChar

StartChar: M
Encoding: 77 77 78
Width: 646
Flags: W
LayerCount: 2
Fore
SplineSet
113 1 m 1,0,-1
 73 1 l 1,1,-1
 73 674 l 2,2,3
 73 684 73 684 79.5 689 c 128,-1,4
 86 694 86 694 95.5 694 c 128,-1,5
 105 694 105 694 117 693 c 0,6,7
 124 693 124 693 131.5 688.5 c 128,-1,8
 139 684 139 684 143.5 679 c 128,-1,9
 148 674 148 674 150 669 c 2,10,-1
 323 247 l 1,11,-1
 496 669 l 2,12,13
 502 685 502 685 518.5 691 c 128,-1,14
 535 697 535 697 551 689 c 0,15,16
 555 687 555 687 560 686 c 128,-1,17
 565 685 565 685 567.5 685 c 128,-1,18
 570 685 570 685 571.5 683.5 c 128,-1,19
 573 682 573 682 573 679 c 2,20,-1
 573 1 l 1,21,-1
 533 1 l 1,22,-1
 493 1 l 1,23,-1
 493 450 l 1,24,-1
 360 126 l 2,25,26
 354 112 354 112 341 105 c 0,27,28
 326 98 326 98 309.5 104 c 128,-1,29
 293 110 293 110 286 126 c 2,30,-1
 153 450 l 1,31,-1
 153 1 l 1,32,-1
 113 1 l 1,0,-1
EndSplineSet
EndChar

StartChar: N
Encoding: 78 78 79
Width: 646
Flags: W
LayerCount: 2
Fore
SplineSet
113 1 m 1,0,-1
 73 1 l 1,1,-1
 73 692 l 2,2,3
 73 709 73 709 86 721 c 128,-1,4
 99 733 99 733 117 731 c 0,5,6
 136 730 136 730 147 713 c 2,7,-1
 493 176 l 1,8,-1
 493 730 l 1,9,-1
 533 730 l 1,10,-1
 573 730 l 1,11,-1
 573 39 l 2,12,13
 573 20 573 20 557 8 c 0,14,15
 543 -3 543 -3 525.5 0 c 128,-1,16
 508 3 508 3 499 18 c 2,17,-1
 153 555 l 1,18,-1
 153 1 l 1,19,-1
 113 1 l 1,0,-1
EndSplineSet
EndChar

StartChar: O
Encoding: 79 79 80
Width: 646
Flags: W
LayerCount: 2
Fore
SplineSet
273 709 m 5,0,-1
 308 669 l 5,1,2
 191 601 191 601 160 474 c 4,3,4
 141 395 141 395 165.5 311 c 132,-1,5
 190 227 190 227 255.5 161 c 132,-1,6
 321 95 321 95 410 73 c 5,7,-1
 401 34 l 5,8,-1
 391 -5 l 5,9,10
 349 6 349 6 309.5 25 c 132,-1,11
 270 44 270 44 238 69.5 c 132,-1,12
 206 95 206 95 179 126 c 132,-1,13
 152 157 152 157 132 191.5 c 132,-1,14
 112 226 112 226 98 264 c 132,-1,15
 84 302 84 302 77.5 340.5 c 132,-1,16
 71 379 71 379 72 418 c 132,-1,17
 73 457 73 457 82 493 c 4,18,19
 101 568 101 568 148 632 c 132,-1,20
 195 696 195 696 268 738 c 5,21,-1
 273 709 l 5,0,-1
381 27 m 1,22,-1
 341 59 l 1,23,24
 462 129 462 129 490 254 c 0,25,26
 500 298 500 298 497 352.5 c 0,27,28
 494 403 494 403 473.5 453 c 128,-1,29
 453 503 453 503 422 545 c 128,-1,30
 391 587 391 587 344.5 618.5 c 128,-1,31
 298 650 298 650 244 663 c 1,32,-1
 253 702 l 1,33,-1
 263 741 l 1,34,35
 319 727 319 727 369 697.5 c 128,-1,36
 419 668 419 668 455.5 628 c 128,-1,37
 492 588 492 588 520 540 c 128,-1,38
 548 492 548 492 561.5 440.5 c 128,-1,39
 575 389 575 389 578 336 c 0,40,41
 581 288 581 288 567 235 c 0,42,43
 547 157 547 157 502 96 c 0,44,45
 455 32 455 32 381 -10 c 1,46,-1
 381 27 l 1,22,-1
EndSplineSet
EndChar

StartChar: P
Encoding: 80 80 81
Width: 646
Flags: W
LayerCount: 2
Fore
SplineSet
165 278 m 1,0,-1
 165 1 l 1,1,-1
 125 1 l 1,2,-1
 85 1 l 1,3,-1
 85 317 l 1,4,-1
 85 704 l 2,5,6
 85 721 85 721 89.5 726 c 128,-1,7
 94 731 94 731 108 731 c 0,8,9
 365 731 365 731 478 636 c 0,10,11
 516 605 516 605 538.5 564 c 128,-1,12
 561 523 561 523 560.5 475.5 c 128,-1,13
 560 428 560 428 528 389 c 0,14,15
 501 357 501 357 464.5 335 c 128,-1,16
 428 313 428 313 396 302 c 128,-1,17
 364 291 364 291 317 285 c 128,-1,18
 270 279 270 279 241 278 c 128,-1,19
 212 277 212 277 165 278 c 1,0,-1
165 358 m 1,20,21
 278 357 278 357 350.5 373 c 128,-1,22
 423 389 423 389 467 441 c 0,23,24
 490 472 490 472 479 506.5 c 128,-1,25
 468 541 468 541 426 575 c 0,26,27
 350 639 350 639 165 649 c 1,28,-1
 165 358 l 1,20,21
EndSplineSet
EndChar

StartChar: Q
Encoding: 81 81 82
Width: 646
Flags: W
LayerCount: 2
Fore
SplineSet
268 709 m 1,0,-1
 307 677 l 1,1,2
 249 643 249 643 211 588.5 c 128,-1,3
 173 534 173 534 158 472 c 0,4,5
 139 393 139 393 162.5 308.5 c 128,-1,6
 186 224 186 224 250.5 157 c 128,-1,7
 315 90 315 90 404 68 c 1,8,-1
 395 29 l 1,9,-1
 385 -10 l 1,10,11
 329 4 329 4 279 33.5 c 128,-1,12
 229 63 229 63 192.5 102 c 128,-1,13
 156 141 156 141 128 188.5 c 128,-1,14
 100 236 100 236 86.5 286.5 c 128,-1,15
 73 337 73 337 70 390 c 128,-1,16
 67 443 67 443 80 491 c 0,17,18
 99 568 99 568 146.5 636.5 c 128,-1,19
 194 705 194 705 267 746 c 1,20,-1
 268 709 l 1,0,-1
373 25 m 1,21,-1
 338 60 l 1,22,23
 396 94 396 94 433.5 148.5 c 128,-1,24
 471 203 471 203 486 265 c 0,25,26
 505 344 505 344 480.5 428 c 128,-1,27
 456 512 456 512 391 578 c 128,-1,28
 326 644 326 644 236 666 c 1,29,-1
 246 705 l 1,30,-1
 255 744 l 1,31,32
 298 734 298 734 337 714.5 c 128,-1,33
 376 695 376 695 408 670 c 128,-1,34
 440 645 440 645 467.5 613.5 c 128,-1,35
 495 582 495 582 515 547.5 c 128,-1,36
 535 513 535 513 548.5 475 c 128,-1,37
 562 437 562 437 568.5 398.5 c 128,-1,38
 575 360 575 360 574 321 c 128,-1,39
 573 282 573 282 564 246 c 0,40,41
 545 169 545 169 497.5 100.5 c 128,-1,42
 450 32 450 32 378 -9 c 1,43,-1
 373 25 l 1,21,-1
323 313 m 5,44,-1
 356 335 l 5,45,-1
 561 37 l 5,46,-1
 528 14 l 5,47,-1
 495 -8 l 5,48,-1
 290 290 l 5,49,-1
 323 313 l 5,44,-1
EndSplineSet
EndChar

StartChar: R
Encoding: 82 82 83
Width: 646
Flags: W
LayerCount: 2
Fore
SplineSet
164 278 m 1,0,-1
 164 2 l 1,1,-1
 124 2 l 1,2,-1
 84 2 l 1,3,-1
 84 317 l 1,4,-1
 84 690 l 2,5,6
 84 715 84 715 88 722.5 c 128,-1,7
 92 730 92 730 106 730 c 0,8,9
 235 730 235 730 325.5 711.5 c 128,-1,10
 416 693 416 693 472 646 c 0,11,12
 513 613 513 613 537.5 569 c 128,-1,13
 562 525 562 525 561.5 474.5 c 128,-1,14
 561 424 561 424 527 384 c 0,15,16
 505 357 505 357 476.5 337.5 c 128,-1,17
 448 318 448 318 418.5 307 c 128,-1,18
 389 296 389 296 356 289 c 128,-1,19
 323 282 323 282 291.5 280.5 c 128,-1,20
 260 279 260 279 227 277.5 c 128,-1,21
 194 276 194 276 164 278 c 1,0,-1
164 358 m 1,22,23
 222 357 222 357 258 359 c 128,-1,24
 294 361 294 361 337.5 368 c 128,-1,25
 381 375 381 375 412 391.5 c 128,-1,26
 443 408 443 408 466 436 c 0,27,28
 491 468 491 468 478.5 508 c 128,-1,29
 466 548 466 548 421 585 c 0,30,31
 381 618 381 618 319.5 633.5 c 128,-1,32
 258 649 258 649 164 653 c 1,33,-1
 164 358 l 1,22,23
497 17 m 1,34,-1
 469 -11 l 1,35,-1
 189 289 l 1,36,-1
 217 318 l 1,37,-1
 246 346 l 1,38,-1
 525 46 l 1,39,-1
 497 17 l 1,34,-1
EndSplineSet
EndChar

StartChar: S
Encoding: 83 83 84
Width: 646
Flags: W
LayerCount: 2
Fore
SplineSet
490 612 m 1,0,-1
 455 592 l 1,1,2
 424 646 424 646 369 666 c 0,3,4
 317 686 317 686 268 667 c 128,-1,5
 219 648 219 648 201 599 c 0,6,7
 197 587 197 587 196.5 576 c 128,-1,8
 196 565 196 565 201 554 c 128,-1,9
 206 543 206 543 211 534 c 128,-1,10
 216 525 216 525 228.5 513.5 c 128,-1,11
 241 502 241 502 250 494.5 c 128,-1,12
 259 487 259 487 278.5 474 c 128,-1,13
 298 461 298 461 309.5 454 c 128,-1,14
 321 447 321 447 345 432 c 0,15,16
 411 390 411 390 447 365 c 0,17,18
 633 235 633 235 523 77 c 0,19,20
 521 74 521 74 518 72 c 0,21,22
 493 47 493 47 464 29 c 0,23,24
 400 -8 400 -8 327 -9.5 c 128,-1,25
 254 -11 254 -11 188 24.5 c 128,-1,26
 122 60 122 60 83 126 c 1,27,-1
 117 147 l 1,28,-1
 152 167 l 1,29,30
 194 96 194 96 274.5 76.5 c 128,-1,31
 355 57 355 57 423 98 c 0,32,33
 442 110 442 110 459 126 c 1,34,35
 479 155 479 155 484 179 c 128,-1,36
 489 203 489 203 478 224.5 c 128,-1,37
 467 246 467 246 447.5 264 c 128,-1,38
 428 282 428 282 392 306 c 0,39,40
 378 316 378 316 354.5 329.5 c 128,-1,41
 331 343 331 343 310.5 355 c 128,-1,42
 290 367 290 367 265 382 c 128,-1,43
 240 397 240 397 219.5 412.5 c 128,-1,44
 199 428 199 428 179 446 c 128,-1,45
 159 464 159 464 145.5 484 c 128,-1,46
 132 504 132 504 123.5 526 c 128,-1,47
 115 548 115 548 115.5 573.5 c 128,-1,48
 116 599 116 599 126 626 c 0,49,50
 141 668 141 668 171.5 698 c 128,-1,51
 202 728 202 728 238.5 741 c 128,-1,52
 275 754 275 754 316.5 755.5 c 128,-1,53
 358 757 358 757 397 742 c 0,54,55
 479 712 479 712 525 632 c 1,56,-1
 490 612 l 1,0,-1
EndSplineSet
EndChar

StartChar: T
Encoding: 84 84 85
Width: 646
Flags: W
LayerCount: 2
Fore
SplineSet
323 1 m 1,0,-1
 283 1 l 1,1,-1
 283 692 l 1,2,-1
 323 692 l 1,3,-1
 363 692 l 1,4,-1
 363 1 l 1,5,-1
 323 1 l 1,0,-1
110 652 m 1,6,-1
 70 652 l 1,7,-1
 70 712 l 2,8,9
 70 718 70 718 70.5 722 c 128,-1,10
 71 726 71 726 71 728 c 128,-1,11
 71 730 71 730 73.5 731 c 128,-1,12
 76 732 76 732 77 732.5 c 128,-1,13
 78 733 78 733 83 732.5 c 128,-1,14
 88 732 88 732 90 732 c 2,15,-1
 556 732 l 2,16,17
 562 732 562 732 565.5 731.5 c 128,-1,18
 569 731 569 731 571.5 731 c 128,-1,19
 574 731 574 731 575 728.5 c 128,-1,20
 576 726 576 726 576 725 c 128,-1,21
 576 724 576 724 576 719 c 128,-1,22
 576 714 576 714 576 712 c 2,23,-1
 576 652 l 1,24,-1
 536 652 l 1,25,-1
 496 652 l 1,26,-1
 150 652 l 1,27,-1
 110 652 l 1,6,-1
EndSplineSet
EndChar

StartChar: U
Encoding: 85 85 86
Width: 646
Flags: W
LayerCount: 2
Fore
SplineSet
533 0 m 5,0,-1
 493 0 l 5,1,-1
 493 730 l 5,2,-1
 533 730 l 5,3,-1
 573 730 l 5,4,-1
 573 0 l 5,5,-1
 533 0 l 5,0,-1
533 133 m 5,6,-1
 553 99 l 5,7,8
 467 49 467 49 383.5 20.5 c 132,-1,9
 300 -8 300 -8 232 -9 c 4,10,11
 165 -9 165 -9 119 27 c 132,-1,12
 73 63 73 63 73 133 c 6,13,-1
 73 730 l 5,14,-1
 113 730 l 5,15,-1
 153 730 l 5,16,-1
 153 133 l 6,17,18
 153 99 153 99 170.5 85 c 132,-1,19
 188 71 188 71 232 71 c 4,20,21
 284 71 284 71 360 97 c 132,-1,22
 436 123 436 123 513 168 c 5,23,-1
 533 133 l 5,6,-1
EndSplineSet
EndChar

StartChar: V
Encoding: 86 86 87
Width: 646
Flags: W
LayerCount: 2
Fore
SplineSet
533 731 m 1,0,-1
 571 718 l 1,1,-1
 361 20 l 2,2,3
 356 4 356 4 340 -3.5 c 128,-1,4
 324 -11 324 -11 308 -5 c 0,5,6
 291 3 291 3 285 20 c 2,7,-1
 75 718 l 1,8,-1
 113 731 l 1,9,-1
 151 743 l 1,10,-1
 323 163 l 1,11,-1
 495 743 l 1,12,-1
 533 731 l 1,0,-1
EndSplineSet
EndChar

StartChar: W
Encoding: 87 87 88
Width: 646
Flags: W
LayerCount: 2
Fore
SplineSet
113 731 m 1,0,-1
 153 738 l 1,1,-1
 233 268 l 1,2,-1
 283 605 l 2,3,4
 286 622 286 622 300.5 632 c 128,-1,5
 315 642 315 642 332 638 c 0,6,7
 344 636 344 636 352 627 c 128,-1,8
 360 618 360 618 362 606 c 2,9,-1
 422 265 l 1,10,-1
 493 737 l 1,11,-1
 533 731 l 1,12,-1
 572 724 l 1,13,-1
 463 25 l 2,14,15
 462 18 462 18 458 11 c 128,-1,16
 454 4 454 4 447.5 -0.5 c 128,-1,17
 441 -5 441 -5 434 -7 c 0,18,19
 417 -12 417 -12 402 -2.5 c 128,-1,20
 387 7 387 7 384 24 c 2,21,-1
 326 347 l 1,22,-1
 277 25 l 2,23,24
 276 18 276 18 272 11.5 c 128,-1,25
 268 5 268 5 261.5 0 c 128,-1,26
 255 -5 255 -5 248 -7 c 0,27,28
 231 -12 231 -12 216 -2.5 c 128,-1,29
 201 7 201 7 198 24 c 2,30,-1
 74 723 l 1,31,-1
 113 731 l 1,0,-1
EndSplineSet
EndChar

StartChar: X
Encoding: 88 88 89
Width: 646
Flags: W
LayerCount: 2
Fore
SplineSet
113 729 m 1,0,-1
 147 750 l 1,1,-1
 566 28 l 1,2,-1
 533 6 l 1,3,-1
 499 -15 l 1,4,-1
 80 707 l 1,5,-1
 113 729 l 1,0,-1
533 729 m 1,6,-1
 566 707 l 1,7,-1
 357 342 l 1,8,-1
 323 364 l 1,9,-1
 289 385 l 1,10,-1
 499 750 l 1,11,-1
 533 729 l 1,6,-1
323 364 m 1,12,-1
 357 342 l 1,13,-1
 147 -15 l 1,14,-1
 113 6 l 1,15,-1
 80 28 l 1,16,-1
 289 385 l 1,17,-1
 323 364 l 1,12,-1
EndSplineSet
EndChar

StartChar: Y
Encoding: 89 89 90
Width: 646
Flags: W
LayerCount: 2
Fore
SplineSet
113 729 m 5,0,-1
 147 750 l 5,1,-1
 357 379 l 6,2,3
 363 369 363 369 363 358 c 6,4,-1
 363 1 l 5,5,-1
 323 1 l 5,6,-1
 283 1 l 5,7,-1
 283 346 l 5,8,-1
 80 707 l 5,9,-1
 113 729 l 5,0,-1
533 729 m 5,10,-1
 566 707 l 5,11,-1
 357 336 l 5,12,-1
 323 358 l 5,13,-1
 289 379 l 5,14,-1
 499 750 l 5,15,-1
 533 729 l 5,10,-1
EndSplineSet
EndChar

StartChar: Z
Encoding: 90 90 91
Width: 646
Flags: W
LayerCount: 2
Fore
SplineSet
141 693 m 1,0,-1
 141 733 l 1,1,-1
 550 733 l 2,2,3
 560 733 560 733 565 726.5 c 0,4,5
 569 722 569 722 570 710.5 c 0,6,7
 571 701 571 701 570 689 c 0,8,9
 568.947121535 680.576972281 568.947121535 680.576972281 563 671 c 2,10,-1
 196 80 l 1,11,-1
 572 80 l 1,12,-1
 572 40 l 1,13,-1
 572 0 l 1,14,-1
 123 0 l 2,15,16
 97 0 97 0 89 5 c 0,17,18
 79 10 79 10 77 20.5 c 0,19,20
 76 28 76 28 78.5 41 c 0,21,22
 80.2120866591 47.8483466363 80.2120866591 47.8483466363 89 62 c 2,23,-1
 456 653 l 1,24,-1
 141 653 l 1,25,-1
 141 693 l 1,0,-1
EndSplineSet
EndChar

StartChar: bracketleft
Encoding: 91 91 92
Width: 646
Flags: W
LayerCount: 2
Fore
SplineSet
399 776 m 1,0,-1
 399 736 l 1,1,-1
 327 736 l 1,2,-1
 327 37 l 1,3,-1
 399 37 l 1,4,-1
 399 -3 l 1,5,-1
 399 -43 l 1,6,-1
 267 -43 l 2,7,8
 264 -43 264 -43 260.5 -43 c 128,-1,9
 257 -43 257 -43 255.5 -43 c 128,-1,10
 254 -43 254 -43 252 -42.5 c 128,-1,11
 250 -42 250 -42 249.5 -41 c 128,-1,12
 249 -40 249 -40 248 -37.5 c 128,-1,13
 247 -35 247 -35 247 -31.5 c 128,-1,14
 247 -28 247 -28 247 -23 c 2,15,-1
 247 796 l 2,16,17
 247 798 247 798 247 801.5 c 128,-1,18
 247 805 247 805 247 806 c 128,-1,19
 247 807 247 807 247 809.5 c 128,-1,20
 247 812 247 812 248 812.5 c 128,-1,21
 249 813 249 813 250 814 c 128,-1,22
 251 815 251 815 253.5 815 c 128,-1,23
 256 815 256 815 259 815.5 c 128,-1,24
 262 816 262 816 267 816 c 2,25,-1
 399 816 l 1,26,-1
 399 776 l 1,0,-1
EndSplineSet
EndChar

StartChar: bracketright
Encoding: 93 93 94
Width: 646
Flags: W
LayerCount: 2
Fore
SplineSet
247 776 m 1,0,-1
 247 736 l 1,1,-1
 319 736 l 1,2,-1
 319 37 l 1,3,-1
 247 37 l 1,4,-1
 247 -3 l 1,5,-1
 247 -43 l 1,6,-1
 379 -43 l 2,7,8
 382 -43 382 -43 385.5 -43 c 128,-1,9
 389 -43 389 -43 390.5 -43 c 128,-1,10
 392 -43 392 -43 394 -42.5 c 128,-1,11
 396 -42 396 -42 396.5 -41 c 128,-1,12
 397 -40 397 -40 398 -37.5 c 128,-1,13
 399 -35 399 -35 399 -31.5 c 128,-1,14
 399 -28 399 -28 399 -23 c 2,15,-1
 399 796 l 2,16,17
 399 798 399 798 399 802 c 128,-1,18
 399 806 399 806 399 807 c 128,-1,19
 399 808 399 808 398.5 810.5 c 128,-1,20
 398 813 398 813 397 813.5 c 128,-1,21
 396 814 396 814 393.5 814.5 c 128,-1,22
 391 815 391 815 387.5 815.5 c 128,-1,23
 384 816 384 816 379 816 c 2,24,-1
 247 816 l 1,25,-1
 247 776 l 1,0,-1
EndSplineSet
EndChar

StartChar: asciicircum
Encoding: 94 94 95
Width: 646
Flags: W
LayerCount: 2
Fore
SplineSet
177 791 m 5,0,-1
 155 824 l 5,1,-1
 301 921 l 6,2,3
 323 936 323 936 345 921 c 6,4,-1
 491 824 l 5,5,-1
 469 791 l 5,6,-1
 447 757 l 5,7,-1
 323 840 l 5,8,-1
 199 757 l 5,9,-1
 177 791 l 5,0,-1
EndSplineSet
EndChar

StartChar: underscore
Encoding: 95 95 96
Width: 646
Flags: W
LayerCount: 2
Fore
SplineSet
518 -39 m 1,0,-1
 518 -79 l 1,1,-1
 128 -79 l 1,2,-1
 128 -39 l 1,3,-1
 128 1 l 1,4,-1
 518 1 l 1,5,-1
 518 -39 l 1,0,-1
EndSplineSet
EndChar

StartChar: grave
Encoding: 96 96 97
Width: 646
Flags: W
LayerCount: 2
Fore
SplineSet
177 817 m 5,0,-1
 190 855 l 5,1,-1
 482 757 l 5,2,-1
 469 719 l 5,3,-1
 456 681 l 5,4,-1
 164 779 l 5,5,-1
 177 817 l 5,0,-1
EndSplineSet
EndChar

StartChar: a
Encoding: 97 97 98
Width: 646
Flags: W
LayerCount: 2
Fore
SplineSet
159 394 m 1,0,-1
 122 408 l 1,1,2
 164 523 164 523 314 538 c 0,3,4
 373 544 373 544 428.5 522.5 c 128,-1,5
 484 501 484 501 524.5 450.5 c 128,-1,6
 565 400 565 400 572 330 c 0,7,8
 572 328 572 328 572 326 c 2,9,-1
 572 3 l 1,10,-1
 532 3 l 1,11,-1
 492 3 l 1,12,-1
 492 324 l 1,13,14
 484 392 484 392 433.5 429 c 128,-1,15
 383 466 383 466 321 459 c 0,16,17
 297 456 297 456 281.5 452.5 c 128,-1,18
 266 449 266 449 248 441 c 128,-1,19
 230 433 230 433 217.5 418 c 128,-1,20
 205 403 205 403 197 380 c 1,21,-1
 159 394 l 1,0,-1
518 280 m 5,22,-1
 518 240 l 5,23,-1
 176 240 l 6,24,25
 175 239 175 239 170 234 c 4,26,27
 158 223 158 223 155 204.5 c 132,-1,28
 152 186 152 186 161.5 162.5 c 132,-1,29
 171 139 171 139 192 118 c 4,30,31
 215 95 215 95 244.5 82.5 c 132,-1,32
 274 70 274 70 312.5 69 c 132,-1,33
 351 68 351 68 397 90.5 c 132,-1,34
 443 113 443 113 490 159 c 5,35,-1
 518 131 l 5,36,-1
 546 102 l 5,37,38
 490 46 490 46 429 18 c 132,-1,39
 368 -10 368 -10 314.5 -9.5 c 132,-1,40
 261 -9 261 -9 215.5 9 c 132,-1,41
 170 27 170 27 136 61 c 4,42,43
 104 93 104 93 87.5 132.5 c 132,-1,44
 71 172 71 172 76 215.5 c 4,45,46
 81 262 81 262 113 291 c 4,47,48
 127 304 127 304 144 314 c 4,49,50
 153 320 153 320 164 320 c 6,51,-1
 518 320 l 5,52,-1
 518 280 l 5,22,-1
EndSplineSet
EndChar

StartChar: b
Encoding: 98 98 99
Width: 646
Flags: W
LayerCount: 2
Fore
SplineSet
131 406 m 1,0,-1
 100 430 l 1,1,2
 145 489 145 489 207 514.5 c 128,-1,3
 269 540 269 540 328.5 534 c 128,-1,4
 388 528 388 528 441 498 c 0,5,6
 499 464 499 464 536 401.5 c 128,-1,7
 573 339 573 339 576.5 264 c 128,-1,8
 580 189 580 189 538 112 c 0,9,10
 518 77 518 77 487 51 c 0,11,12
 455 24 455 24 415 8.5 c 128,-1,13
 375 -7 375 -7 333 -8 c 128,-1,14
 291 -9 291 -9 249.5 1.5 c 128,-1,15
 208 12 208 12 169 36.5 c 128,-1,16
 130 61 130 61 101 97 c 1,17,-1
 131 122 l 1,18,-1
 162 148 l 1,19,20
 199 103 199 103 251 84.5 c 128,-1,21
 303 66 303 66 351.5 74.5 c 128,-1,22
 400 83 400 83 436 112 c 0,23,24
 456 129 456 129 469 152 c 0,25,26
 512 234 512 234 489 312.5 c 128,-1,27
 466 391 466 391 401 428 c 0,28,29
 363 450 363 450 322 454.5 c 128,-1,30
 281 459 281 459 238 441 c 128,-1,31
 195 423 195 423 163 381 c 1,32,-1
 131 406 l 1,0,-1
76 787 m 5,33,-1
 76 827 l 5,34,-1
 135 827 l 6,35,36
 142 827 142 827 145.5 826.5 c 132,-1,37
 149 826 149 826 151.5 826 c 132,-1,38
 154 826 154 826 154.5 823.5 c 132,-1,39
 155 821 155 821 155.5 820 c 132,-1,40
 156 819 156 819 155.5 814 c 132,-1,41
 155 809 155 809 155 807 c 6,42,-1
 155 22 l 6,43,44
 155 15 155 15 154.5 11.5 c 132,-1,45
 154 8 154 8 154 5.5 c 132,-1,46
 154 3 154 3 151.5 2.5 c 132,-1,47
 149 2 149 2 148 1.5 c 132,-1,48
 147 1 147 1 142.5 1.5 c 132,-1,49
 138 2 138 2 135 2 c 6,50,-1
 76 2 l 5,51,-1
 76 42 l 5,52,-1
 76 82 l 5,53,-1
 75 82 l 5,54,-1
 75 747 l 5,55,-1
 76 747 l 5,56,-1
 76 787 l 5,33,-1
EndSplineSet
EndChar

StartChar: c
Encoding: 99 99 100
Width: 646
Flags: W
LayerCount: 2
Fore
SplineSet
527 385 m 1,0,-1
 493 365 l 1,1,2
 469 406 469 406 429.5 429 c 128,-1,3
 390 452 390 452 344 453 c 128,-1,4
 298 454 298 454 256 431 c 128,-1,5
 214 408 214 408 189 365 c 0,6,7
 164 321 164 321 164 273.5 c 128,-1,8
 164 226 164 226 182 190 c 132,-1,9
 200 154 200 154 231 124 c 4,10,11
 269 88 269 88 313 76 c 128,-1,12
 357 64 357 64 406.5 76.5 c 128,-1,13
 456 89 456 89 498 133 c 1,14,-1
 527 106 l 1,15,-1
 556 78 l 1,16,17
 498 17 498 17 426 -0.5 c 128,-1,18
 354 -18 354 -18 290.5 0 c 128,-1,19
 227 18 227 18 176 66 c 4,20,21
 133 107 133 107 108.5 159 c 132,-1,22
 84 211 84 211 84.5 278 c 128,-1,23
 85 345 85 345 120 405 c 0,24,25
 156 468 156 468 217 501 c 128,-1,26
 278 534 278 534 345 533 c 0,27,28
 408 532 408 532 469 498 c 0,29,30
 528 465 528 465 562 405 c 1,31,-1
 527 385 l 1,0,-1
EndSplineSet
EndChar

StartChar: d
Encoding: 100 100 101
Width: 646
Flags: W
LayerCount: 2
Fore
SplineSet
534 377 m 1,0,-1
 503 351 l 1,1,2
 486 371 486 371 466 388 c 0,3,4
 395 447 395 447 316.5 450 c 128,-1,5
 238 453 238 453 192 397 c 0,6,7
 155 354 155 354 148.5 299 c 128,-1,8
 142 244 142 244 162 196.5 c 128,-1,9
 182 149 182 149 220 117 c 0,10,11
 260 83 260 83 306.5 71.5 c 128,-1,12
 353 60 353 60 406.5 77.5 c 128,-1,13
 460 95 460 95 503 147 c 1,14,-1
 534 122 l 1,15,-1
 564 96 l 1,16,17
 520 44 520 44 466 16.5 c 128,-1,18
 412 -11 412 -11 359.5 -12 c 128,-1,19
 307 -13 307 -13 257.5 4.5 c 128,-1,20
 208 22 208 22 168 56 c 0,21,22
 117 99 117 99 90 164.5 c 128,-1,23
 63 230 63 230 71.5 307.5 c 128,-1,24
 80 385 80 385 130 449 c 0,25,26
 178 509 178 509 249 525.5 c 128,-1,27
 320 542 320 542 389.5 520.5 c 128,-1,28
 459 499 459 499 518 449 c 0,29,30
 543 428 543 428 564 402 c 1,31,-1
 534 377 l 1,0,-1
572 786 m 5,32,-1
 572 746 l 5,33,-1
 571 746 l 5,34,-1
 571 80 l 5,35,-1
 572 80 l 5,36,-1
 572 40 l 5,37,-1
 572 0 l 5,38,-1
 511 0 l 6,39,40
 508 0 508 0 505 0 c 4,41,42
 501 0 501 0 500 0 c 132,-1,43
 499 0 499 0 496.5 0.5 c 132,-1,44
 494 1 494 1 493.5 2 c 132,-1,45
 493 3 493 3 492.5 5.5 c 132,-1,46
 492 8 492 8 491.5 11.5 c 132,-1,47
 491 15 491 15 491 20 c 6,48,-1
 491 806 l 6,49,50
 491 808 491 808 491 812 c 132,-1,51
 491 816 491 816 491 817 c 132,-1,52
 491 818 491 818 491.5 820.5 c 132,-1,53
 492 823 492 823 493 823.5 c 132,-1,54
 494 824 494 824 496.5 824.5 c 132,-1,55
 499 825 499 825 502.5 825.5 c 132,-1,56
 506 826 506 826 511 826 c 6,57,-1
 572 826 l 5,58,-1
 572 786 l 5,32,-1
EndSplineSet
EndChar

StartChar: e
Encoding: 101 101 102
Width: 646
Flags: W
LayerCount: 2
Fore
SplineSet
133 243 m 1,0,-1
 119 281 l 1,1,-1
 510 359 l 1,2,-1
 560 369 l 1,3,-1
 573 291 l 1,4,-1
 147 206 l 1,5,-1
 133 243 l 1,0,-1
523 353 m 1,6,-1
 486 339 l 1,7,8
 467 393 467 393 421 424 c 0,9,10
 384 449 384 449 339.5 453 c 128,-1,11
 295 457 295 457 253 437.5 c 128,-1,12
 211 418 211 418 184 377 c 0,13,14
 112 263 112 263 199 147 c 4,15,16
 230 105 230 105 278 85.5 c 128,-1,17
 326 66 326 66 383 71.5 c 128,-1,18
 440 77 440 77 489 114 c 1,19,-1
 513 82 l 1,20,-1
 537 50 l 1,21,22
 469 -1 469 -1 389 -8 c 128,-1,23
 309 -15 309 -15 243 13.5 c 128,-1,24
 177 42 177 42 134 99 c 4,25,26
 101 144 101 144 84.5 196.5 c 128,-1,27
 68 249 68 249 75 308.5 c 0,28,29
 82 365 82 365 118 421 c 0,30,31
 157 481 157 481 219 509.5 c 128,-1,32
 281 538 281 538 346 532.5 c 128,-1,33
 411 527 411 527 465 491 c 0,34,35
 533 445 533 445 561 366 c 1,36,-1
 523 353 l 1,6,-1
EndSplineSet
EndChar

StartChar: f
Encoding: 102 102 103
Width: 646
Flags: W
LayerCount: 2
Fore
SplineSet
546 754 m 1,0,-1
 526 719 l 1,1,2
 495 737 495 737 460 737 c 0,3,4
 422 737 422 737 387 716 c 128,-1,5
 352 695 352 695 329 655.5 c 128,-1,6
 306 616 306 616 306 567 c 2,7,-1
 306 2 l 1,8,-1
 266 2 l 1,9,-1
 226 2 l 1,10,-1
 226 567 l 2,11,12
 226 672 226 672 296 744.5 c 128,-1,13
 366 817 366 817 460 817 c 0,14,15
 516 817 516 817 566 788 c 1,16,-1
 546 754 l 1,0,-1
80 483 m 1,17,-1
 80 523 l 1,18,-1
 553 523 l 5,19,-1
 553 483 l 5,20,-1
 553 443 l 5,21,-1
 80 443 l 1,22,-1
 80 483 l 1,17,-1
EndSplineSet
EndChar

StartChar: g
Encoding: 103 103 104
Width: 646
Flags: W
LayerCount: 2
Fore
SplineSet
539 377 m 1,0,-1
 508 351 l 1,1,2
 491 371 491 371 471 388 c 0,3,4
 400 447 400 447 321.5 450 c 128,-1,5
 243 453 243 453 197 397 c 0,6,7
 160 354 160 354 153.5 299 c 128,-1,8
 147 244 147 244 167 196.5 c 128,-1,9
 187 149 187 149 225 117 c 0,10,11
 265 83 265 83 311.5 71.5 c 128,-1,12
 358 60 358 60 411.5 77.5 c 128,-1,13
 465 95 465 95 508 147 c 1,14,-1
 539 122 l 1,15,-1
 569 96 l 1,16,17
 525 44 525 44 471 16.5 c 128,-1,18
 417 -11 417 -11 364.5 -12 c 128,-1,19
 312 -13 312 -13 262.5 4.5 c 128,-1,20
 213 22 213 22 173 56 c 0,21,22
 122 99 122 99 95 164.5 c 128,-1,23
 68 230 68 230 76.5 307.5 c 128,-1,24
 85 385 85 385 135 449 c 0,25,26
 183 509 183 509 254 525.5 c 128,-1,27
 325 542 325 542 394.5 520.5 c 128,-1,28
 464 499 464 499 523 449 c 0,29,30
 548 428 548 428 569 402 c 1,31,-1
 539 377 l 1,0,-1
572 480 m 1,32,-1
 572 440 l 1,33,-1
 571 440 l 1,34,-1
 571 -60 l 2,35,36
 571 -133 571 -133 516 -180 c 0,37,38
 469 -219 469 -219 401 -224.5 c 128,-1,39
 333 -230 333 -230 259 -197 c 128,-1,40
 185 -164 185 -164 128 -95 c 1,41,-1
 159 -69 l 1,42,-1
 189 -44 l 1,43,44
 225 -86 225 -86 267 -111 c 128,-1,45
 309 -136 309 -136 346 -141 c 128,-1,46
 383 -146 383 -146 414 -140 c 128,-1,47
 445 -134 445 -134 465 -118 c 0,48,49
 491 -96 491 -96 491 -60 c 2,50,-1
 491 500 l 2,51,52
 491 503 491 503 491 506 c 128,-1,53
 491 509 491 509 491 510.5 c 128,-1,54
 491 512 491 512 491 514 c 128,-1,55
 491 516 491 516 492 516.5 c 128,-1,56
 493 517 493 517 494.5 518 c 128,-1,57
 496 519 496 519 498 519.5 c 128,-1,58
 500 520 500 520 503.5 520 c 128,-1,59
 507 520 507 520 511 520 c 2,60,-1
 572 520 l 1,61,-1
 572 480 l 1,32,-1
EndSplineSet
EndChar

StartChar: h
Encoding: 104 104 105
Width: 646
Flags: W
LayerCount: 2
Fore
SplineSet
113 3 m 1,0,-1
 73 3 l 1,1,-1
 73 802 l 1,2,-1
 113 802 l 1,3,-1
 153 802 l 1,4,-1
 153 3 l 1,5,-1
 113 3 l 1,0,-1
113 376 m 1,6,-1
 88 407 l 1,7,8
 161 468 161 468 240 500 c 128,-1,9
 319 532 319 532 391 532 c 0,10,11
 427 532 427 532 459 522 c 128,-1,12
 491 512 491 512 517 493.5 c 128,-1,13
 543 475 543 475 558 444.5 c 128,-1,14
 573 414 573 414 573 376 c 2,15,-1
 573 3 l 1,16,-1
 533 3 l 1,17,-1
 493 3 l 1,18,-1
 493 376 l 2,19,20
 493 452 493 452 391 452 c 0,21,22
 355 452 355 452 314.5 441 c 128,-1,23
 274 430 274 430 227.5 405.5 c 128,-1,24
 181 381 181 381 139 345 c 1,25,-1
 113 376 l 1,6,-1
EndSplineSet
EndChar

StartChar: i
Encoding: 105 105 106
Width: 646
Flags: W
LayerCount: 2
Fore
SplineSet
136 442 m 5,0,-1
 136 522 l 5,1,-1
 368 522 l 5,2,-1
 368 482 l 5,3,-1
 368 442 l 5,4,-1
 136 442 l 5,0,-1
74 2 m 5,5,-1
 74 82 l 5,6,-1
 572 82 l 5,7,-1
 572 42 l 5,8,-1
 572 2 l 5,9,-1
 74 2 l 5,5,-1
399 712 m 1,10,-1
 419 677 l 1,11,-1
 242 575 l 1,12,-1
 222 609 l 1,13,-1
 202 644 l 1,14,-1
 379 746 l 1,15,-1
 399 712 l 1,10,-1
328 17 m 1,16,-1
 288 17 l 1,17,-1
 288 513 l 1,18,-1
 328 513 l 1,19,-1
 368 513 l 1,20,-1
 368 17 l 1,21,-1
 328 17 l 1,16,-1
EndSplineSet
EndChar

StartChar: j
Encoding: 106 106 107
Width: 646
Flags: W
LayerCount: 2
Fore
SplineSet
236 444 m 1,0,-1
 236 524 l 1,1,-1
 516 524 l 1,2,-1
 516 484 l 1,3,-1
 516 444 l 1,4,-1
 236 444 l 1,0,-1
553 715 m 5,5,-1
 573 680 l 5,6,-1
 396 578 l 5,7,-1
 376 612 l 5,8,-1
 356 647 l 5,9,-1
 533 749 l 5,10,-1
 553 715 l 5,5,-1
91 -108 m 1,11,-1
 98 -74 l 1,12,13
 107 -68 107 -68 208 -105 c 0,14,15
 370 -163 370 -163 426 -63 c 0,16,17
 436 -45 436 -45 436 -16 c 2,18,-1
 436 524 l 1,19,-1
 476 524 l 1,20,-1
 516 524 l 1,21,-1
 516 -16 l 2,22,23
 516 -72 516 -72 496 -103 c 0,24,25
 400 -248 400 -248 225 -192.5 c 0,26,27
 148 -168 148 -168 71 -143 c 1,28,-1
 91 -108 l 1,11,-1
EndSplineSet
EndChar

StartChar: k
Encoding: 107 107 108
Width: 646
Flags: W
LayerCount: 2
Fore
SplineSet
97 1 m 1,0,-1
 57 1 l 1,1,-1
 57 861 l 1,2,-1
 97 861 l 1,3,-1
 137 861 l 1,4,-1
 137 1 l 1,5,-1
 97 1 l 1,0,-1
423 505 m 1,6,-1
 443 470 l 1,7,-1
 117 261 l 1,8,-1
 97 296 l 1,9,-1
 77 331 l 1,10,-1
 403 540 l 1,11,-1
 423 505 l 1,6,-1
190 342 m 1,12,-1
 216 372 l 1,13,-1
 589 46 l 1,14,-1
 563 16 l 1,15,-1
 536 -14 l 1,16,-1
 164 312 l 1,17,-1
 190 342 l 1,12,-1
EndSplineSet
EndChar

StartChar: l
Encoding: 108 108 109
Width: 646
Flags: W
LayerCount: 2
Fore
SplineSet
159 719 m 5,0,-1
 159 799 l 5,1,-1
 357 799 l 1,2,-1
 357 759 l 1,3,-1
 357 719 l 1,4,-1
 159 719 l 5,0,-1
74 2 m 1,5,-1
 74 82 l 1,6,-1
 572 82 l 1,7,-1
 572 42 l 1,8,-1
 572 2 l 1,9,-1
 74 2 l 1,5,-1
323 2 m 1,10,-1
 283 2 l 1,11,-1
 283 720 l 1,12,-1
 283 760 l 1,13,-1
 283 800 l 1,14,-1
 343 800 l 2,15,16
 346 800 346 800 349 800 c 0,17,18
 353 800 353 800 354.5 800.5 c 128,-1,19
 356 801 356 801 358 800 c 128,-1,20
 360 799 360 799 360.5 798 c 128,-1,21
 361 797 361 797 362 794.5 c 128,-1,22
 363 792 363 792 363 789 c 128,-1,23
 363 786 363 786 363 780 c 2,24,-1
 363 2 l 1,25,-1
 323 2 l 1,10,-1
EndSplineSet
EndChar

StartChar: m
Encoding: 109 109 110
Width: 646
Flags: W
LayerCount: 2
Fore
SplineSet
113 2 m 1,0,-1
 73 2 l 1,1,-1
 73 522 l 1,2,-1
 113 522 l 1,3,-1
 153 522 l 1,4,-1
 153 2 l 1,5,-1
 113 2 l 1,0,-1
113 429 m 1,6,-1
 93 464 l 1,7,8
 123 481 123 481 138 489.5 c 128,-1,9
 153 498 153 498 178 510 c 128,-1,10
 203 522 203 522 223.5 527 c 128,-1,11
 244 532 244 532 263 532 c 0,12,13
 316 533 316 533 343 501 c 0,14,15
 363 477 363 477 363 441 c 2,16,-1
 363 2 l 1,17,-1
 323 2 l 1,18,-1
 283 2 l 1,19,-1
 283 441 l 2,20,21
 283 447 283 447 282 449 c 0,22,23
 279 452 279 452 259.5 448 c 128,-1,24
 240 444 240 444 205 430 c 128,-1,25
 170 416 170 416 133 395 c 1,26,-1
 113 429 l 1,6,-1
323 441 m 1,27,-1
 303 476 l 1,28,29
 400 532 400 532 473 532 c 0,30,31
 526 533 526 533 553 501 c 0,32,33
 573 477 573 477 573 441 c 2,34,-1
 573 2 l 1,35,-1
 533 2 l 1,36,-1
 493 2 l 1,37,-1
 493 441 l 2,38,39
 493 447 493 447 491 449 c 0,40,41
 490 450 490 450 485.5 450.5 c 128,-1,42
 481 451 481 451 473.5 450.5 c 128,-1,43
 466 450 466 450 456 448.5 c 128,-1,44
 446 447 446 447 433 444 c 128,-1,45
 420 441 420 441 406 436 c 128,-1,46
 392 431 392 431 375.5 423.5 c 128,-1,47
 359 416 359 416 343 407 c 1,48,-1
 323 441 l 1,27,-1
EndSplineSet
EndChar

StartChar: n
Encoding: 110 110 111
Width: 646
Flags: W
LayerCount: 2
Fore
SplineSet
113 2 m 1,0,-1
 73 2 l 1,1,-1
 73 523 l 1,2,-1
 113 523 l 1,3,-1
 153 523 l 1,4,-1
 153 2 l 1,5,-1
 113 2 l 1,0,-1
113 389 m 1,6,-1
 93 424 l 1,7,8
 278 531 278 531 414 531 c 0,9,10
 481 531 481 531 527 495 c 128,-1,11
 573 459 573 459 573 389 c 2,12,-1
 573 2 l 1,13,-1
 533 2 l 1,14,-1
 493 2 l 1,15,-1
 493 389 l 2,16,17
 493 424 493 424 475.5 437.5 c 128,-1,18
 458 451 458 451 414 451 c 0,19,20
 362 451 362 451 286 425 c 128,-1,21
 210 399 210 399 133 354 c 1,22,-1
 113 389 l 1,6,-1
EndSplineSet
EndChar

StartChar: o
Encoding: 111 111 112
Width: 646
Flags: W
LayerCount: 2
Fore
SplineSet
238 487 m 5,0,-1
 258 453 l 5,1,2
 189 413 189 413 164.5 354 c 132,-1,3
 140 295 140 295 156 228 c 4,4,5
 177 144 177 144 247.5 99.5 c 132,-1,6
 318 55 318 55 415 78 c 5,7,-1
 424 40 l 5,8,-1
 434 1 l 5,9,10
 365 -15 365 -15 306 -5 c 132,-1,11
 247 5 247 5 200.5 35.5 c 132,-1,12
 154 66 154 66 122.5 111 c 132,-1,13
 91 156 91 156 78 210 c 4,14,15
 57 300 57 300 91 384.5 c 132,-1,16
 125 469 125 469 218 522 c 5,17,-1
 238 487 l 5,0,-1
408 36 m 5,18,-1
 388 70 l 5,19,20
 457 110 457 110 481.5 168 c 132,-1,21
 506 226 506 226 490 292 c 4,22,23
 469 377 469 377 398.5 422.5 c 132,-1,24
 328 468 328 468 231 444 c 5,25,-1
 222 483 l 5,26,-1
 212 522 l 5,27,28
 281 538 281 538 340 527.5 c 132,-1,29
 399 517 399 517 445.5 486.5 c 132,-1,30
 492 456 492 456 523.5 410.5 c 132,-1,31
 555 365 555 365 568 311 c 4,32,33
 589 221 589 221 555 137.5 c 132,-1,34
 521 54 521 54 428 1 c 5,35,-1
 408 36 l 5,18,-1
EndSplineSet
EndChar

StartChar: p
Encoding: 112 112 113
Width: 646
Flags: W
LayerCount: 2
Fore
SplineSet
80 484 m 1,0,-1
 80 524 l 1,1,-1
 140 524 l 2,2,3
 147 524 147 524 150.5 523.5 c 128,-1,4
 154 523 154 523 156.5 523 c 128,-1,5
 159 523 159 523 159.5 520.5 c 128,-1,6
 160 518 160 518 160.5 517 c 128,-1,7
 161 516 161 516 160.5 511.5 c 128,-1,8
 160 507 160 507 160 504 c 2,9,-1
 160 -200 l 1,10,-1
 120 -200 l 1,11,-1
 80 -200 l 1,12,-1
 80 444 l 1,13,-1
 80 484 l 1,0,-1
120 406 m 1,14,-1
 89 430 l 1,15,16
 134 489 134 489 196 514.5 c 128,-1,17
 258 540 258 540 317.5 534 c 128,-1,18
 377 528 377 528 430 498 c 0,19,20
 488 464 488 464 525 401.5 c 128,-1,21
 562 339 562 339 566 264 c 128,-1,22
 570 189 570 189 528 112 c 0,23,24
 507 77 507 77 477 51 c 0,25,26
 444 24 444 24 404 8.5 c 128,-1,27
 364 -7 364 -7 322 -8 c 128,-1,28
 280 -9 280 -9 238.5 1.5 c 128,-1,29
 197 12 197 12 158.5 36.5 c 128,-1,30
 120 61 120 61 90 97 c 1,31,-1
 121 122 l 1,32,-1
 151 148 l 1,33,34
 189 103 189 103 241 84.5 c 128,-1,35
 293 66 293 66 341.5 74.5 c 128,-1,36
 390 83 390 83 425 112 c 0,37,38
 445 129 445 129 458 152 c 0,39,40
 501 234 501 234 478.5 312.5 c 128,-1,41
 456 391 456 391 390 428 c 0,42,43
 352 450 352 450 311 454.5 c 128,-1,44
 270 459 270 459 227.5 441 c 128,-1,45
 185 423 185 423 152 381 c 1,46,-1
 120 406 l 1,14,-1
EndSplineSet
EndChar

StartChar: q
Encoding: 113 113 114
Width: 646
Flags: W
LayerCount: 2
Fore
SplineSet
576 482 m 1,0,-1
 576 442 l 1,1,-1
 575 442 l 1,2,-1
 574 -198 l 1,3,-1
 534 -198 l 1,4,-1
 494 -198 l 1,5,-1
 495 502 l 2,6,7
 495 505 495 505 495 508.5 c 128,-1,8
 495 512 495 512 495 513.5 c 128,-1,9
 495 515 495 515 495.5 517 c 128,-1,10
 496 519 496 519 497 519.5 c 128,-1,11
 498 520 498 520 500.5 521 c 128,-1,12
 503 522 503 522 506.5 522 c 128,-1,13
 510 522 510 522 515 522 c 2,14,-1
 576 522 l 1,15,-1
 576 482 l 1,0,-1
535 377 m 1,16,-1
 504 351 l 1,17,18
 487 371 487 371 467 388 c 0,19,20
 397 447 397 447 318.5 450 c 128,-1,21
 240 453 240 453 193 397 c 0,22,23
 156 354 156 354 149.5 299 c 128,-1,24
 143 244 143 244 163 196.5 c 128,-1,25
 183 149 183 149 221 117 c 0,26,27
 261 83 261 83 308 71.5 c 128,-1,28
 355 60 355 60 408 77.5 c 128,-1,29
 461 95 461 95 504 147 c 1,30,-1
 535 122 l 1,31,-1
 566 96 l 1,32,33
 522 44 522 44 467.5 16.5 c 128,-1,34
 413 -11 413 -11 360.5 -12 c 128,-1,35
 308 -13 308 -13 259 4.5 c 128,-1,36
 210 22 210 22 170 56 c 0,37,38
 118 99 118 99 91 164.5 c 128,-1,39
 64 230 64 230 72.5 307.5 c 128,-1,40
 81 385 81 385 132 449 c 0,41,42
 180 509 180 509 251 525.5 c 128,-1,43
 322 542 322 542 391 520.5 c 128,-1,44
 460 499 460 499 519 449 c 0,45,46
 544 428 544 428 566 402 c 1,47,-1
 535 377 l 1,16,-1
EndSplineSet
EndChar

StartChar: r
Encoding: 114 114 115
Width: 646
Flags: WO
LayerCount: 2
Fore
SplineSet
125 0 m 5,0,-1
 85 0 l 5,1,-1
 85 523 l 5,2,-1
 125 523 l 5,3,-1
 165 523 l 5,4,-1
 165 0 l 5,5,-1
 125 0 l 5,0,-1
512 376 m 2,6,-1
 492 379 l 1,7,8
 498 410 498 410 483.5 427 c 128,-1,9
 469 444 469 444 431 451 c 0,10,11
 396 457 396 457 350 448.5 c 128,-1,12
 304 440 304 440 247 413 c 128,-1,13
 190 386 190 386 138 342 c 1,14,-1
 112 372 l 1,15,-1
 87 403 l 1,16,17
 176 478 176 478 272 510.5 c 128,-1,18
 368 543 368 543 445 529 c 0,19,20
 508 518 508 518 545 474 c 128,-1,21
 582 430 582 430 571 365 c 1,22,-1
 532 372 l 2,23,24
 531 372 531 372 529 373 c 0,25,26
 527 373 527 373 525.5 373.5 c 128,-1,27
 524 374 524 374 520 374.5 c 128,-1,28
 516 375 516 375 512 376 c 2,6,-1
EndSplineSet
EndChar

StartChar: s
Encoding: 115 115 116
Width: 646
Flags: W
LayerCount: 2
Fore
SplineSet
486 404 m 1,0,-1
 455 379 l 1,1,2
 416 425 416 425 363 445 c 0,3,4
 305 465 305 465 259 449.5 c 128,-1,5
 213 434 213 434 197 391 c 0,6,7
 189 369 189 369 213 354 c 128,-1,8
 237 339 237 339 280 330 c 128,-1,9
 323 321 323 321 369 313 c 128,-1,10
 415 305 415 305 459 291.5 c 128,-1,11
 503 278 503 278 521 260 c 0,12,13
 550 233 550 233 560 203.5 c 128,-1,14
 570 174 570 174 560 139 c 128,-1,15
 550 104 550 104 516 64 c 0,16,17
 514 61 514 61 512 59 c 0,18,19
 503 52 503 52 494 46 c 0,20,21
 429 -1 429 -1 351 -9 c 128,-1,22
 273 -17 273 -17 200.5 15 c 128,-1,23
 128 47 128 47 81 113 c 1,24,-1
 113 136 l 1,25,-1
 146 160 l 1,26,27
 198 87 198 87 287 72.5 c 128,-1,28
 376 58 376 58 447 110 c 0,29,30
 452 114 452 114 457 118 c 0,31,32
 465 127 465 127 470 134.5 c 128,-1,33
 475 142 475 142 479.5 147.5 c 128,-1,34
 484 153 484 153 485.5 158.5 c 128,-1,35
 487 164 487 164 489.5 167 c 128,-1,36
 492 170 492 170 490.5 174 c 128,-1,37
 489 178 489 178 489.5 179.5 c 128,-1,38
 490 181 490 181 486 185 c 128,-1,39
 482 189 482 189 481.5 189.5 c 128,-1,40
 481 190 481 190 475.5 194.5 c 128,-1,41
 470 199 470 199 469 200 c 0,42,43
 458 209 458 209 429 217.5 c 128,-1,44
 400 226 400 226 365 233 c 128,-1,45
 330 240 330 240 289.5 250.5 c 128,-1,46
 249 261 249 261 215 274 c 128,-1,47
 181 287 181 287 154 307.5 c 128,-1,48
 127 328 127 328 119 354.5 c 128,-1,49
 111 381 111 381 122 418 c 0,50,51
 137 458 137 458 166.5 486 c 128,-1,52
 196 514 196 514 232.5 525.5 c 128,-1,53
 269 537 269 537 310 535.5 c 128,-1,54
 351 534 351 534 390 520 c 0,55,56
 464 493 464 493 516 430 c 1,57,-1
 486 404 l 1,0,-1
EndSplineSet
EndChar

StartChar: t
Encoding: 116 116 117
Width: 646
Flags: W
LayerCount: 2
Fore
SplineSet
272 596 m 1,0,-1
 312 596 l 1,1,-1
 312 102 l 2,2,3
 312 83 312 83 354 77 c 128,-1,4
 396 71 396 71 467 71 c 4,5,6
 478 71 478 71 485 74 c 128,-1,7
 492 77 492 77 503 77 c 128,-1,8
 514 77 514 77 524 77 c 1,9,-1
 524 37 l 1,10,-1
 524 -3 l 1,11,12
 514 -3 514 -3 489 -5 c 128,-1,13
 464 -7 464 -7 443.5 -7.5 c 128,-1,14
 423 -8 423 -8 396 -6.5 c 128,-1,15
 369 -5 369 -5 329 1.5 c 128,-1,16
 289 8 289 8 270.5 19.5 c 128,-1,17
 252 31 252 31 242 52 c 128,-1,18
 232 73 232 73 232 102 c 2,19,-1
 232 596 l 1,20,-1
 272 596 l 1,0,-1
74 482 m 1,21,-1
 74 522 l 1,22,-1
 571 522 l 1,23,-1
 571 482 l 1,24,-1
 571 442 l 1,25,-1
 74 442 l 1,26,-1
 74 482 l 1,21,-1
EndSplineSet
EndChar

StartChar: u
Encoding: 117 117 118
Width: 646
Flags: W
LayerCount: 2
Fore
SplineSet
533 1 m 5,0,-1
 493 1 l 5,1,-1
 493 523 l 5,2,-1
 533 523 l 5,3,-1
 573 523 l 5,4,-1
 573 1 l 5,5,-1
 533 1 l 5,0,-1
533 146 m 5,6,-1
 558 116 l 5,7,8
 485 55 485 55 406 22.5 c 132,-1,9
 327 -10 327 -10 255 -10 c 4,10,11
 179 -10 179 -10 126 31 c 132,-1,12
 73 72 73 72 73 146 c 6,13,-1
 73 523 l 5,14,-1
 113 523 l 5,15,-1
 153 523 l 5,16,-1
 153 146 l 6,17,18
 153 70 153 70 255 70 c 4,19,20
 310 70 310 70 377 97 c 132,-1,21
 444 124 444 124 507 177 c 5,22,-1
 533 146 l 5,6,-1
EndSplineSet
EndChar

StartChar: v
Encoding: 118 118 119
Width: 646
Flags: W
LayerCount: 2
Fore
SplineSet
113 522 m 1,0,-1
 150 539 l 1,1,-1
 323 127 l 1,2,-1
 496 539 l 1,3,-1
 533 522 l 1,4,-1
 569 506 l 1,5,-1
 359 13 l 2,6,7
 354 1 354 1 342 -5 c 0,8,9
 335 -10 335 -10 326.5 -10.5 c 128,-1,10
 318 -11 318 -11 310.5 -8.5 c 128,-1,11
 303 -6 303 -6 296.5 0 c 128,-1,12
 290 6 290 6 287 13 c 2,13,-1
 77 506 l 1,14,-1
 113 522 l 1,0,-1
EndSplineSet
EndChar

StartChar: w
Encoding: 119 119 120
Width: 646
Flags: W
LayerCount: 2
Fore
SplineSet
113 521 m 1,0,-1
 152 532 l 1,1,-1
 232 206 l 1,2,-1
 284 459 l 1,3,-1
 323 451 l 1,4,-1
 362 443 l 1,5,-1
 276 24 l 2,6,7
 272 1 272 1 250 -6 c 0,8,9
 234 -12 234 -12 218.5 -3.5 c 128,-1,10
 203 5 203 5 199 21 c 2,11,-1
 75 511 l 1,12,-1
 113 521 l 1,0,-1
323 451 m 1,13,-1
 362 460 l 1,14,-1
 423 205 l 1,15,-1
 493 530 l 1,16,-1
 532 521 l 1,17,-1
 571 512 l 1,18,-1
 462 23 l 2,19,20
 457 1 457 1 436 -6 c 0,21,22
 428 -9 428 -9 419.5 -8 c 128,-1,23
 411 -7 411 -7 404 -3 c 128,-1,24
 397 1 397 1 392 7.5 c 128,-1,25
 387 14 387 14 385 22 c 2,26,-1
 284 441 l 1,27,-1
 323 451 l 1,13,-1
EndSplineSet
EndChar

StartChar: x
Encoding: 120 120 121
Width: 646
Flags: W
LayerCount: 2
Fore
SplineSet
113 521 m 1,0,-1
 143 548 l 1,1,-1
 562 38 l 1,2,-1
 533 12 l 1,3,-1
 503 -15 l 1,4,-1
 84 495 l 1,5,-1
 113 521 l 1,0,-1
533 521 m 1,6,-1
 562 495 l 1,7,-1
 353 239 l 1,8,-1
 323 266 l 1,9,-1
 293 292 l 1,10,-1
 503 548 l 1,11,-1
 533 521 l 1,6,-1
323 266 m 1,12,-1
 353 239 l 1,13,-1
 143 -15 l 1,14,-1
 113 12 l 1,15,-1
 84 38 l 1,16,-1
 293 292 l 1,17,-1
 323 266 l 1,12,-1
EndSplineSet
EndChar

StartChar: y
Encoding: 121 121 122
Width: 646
Flags: W
LayerCount: 2
Fore
SplineSet
533 151 m 5,0,-1
 558 120 l 5,1,2
 510 79 510 79 456.5 50.5 c 132,-1,3
 403 22 403 22 352.5 8.5 c 132,-1,4
 302 -5 302 -5 255 -5 c 4,5,6
 179 -6 179 -6 126 35 c 132,-1,7
 73 76 73 76 73 151 c 6,8,-1
 73 523 l 5,9,-1
 113 523 l 5,10,-1
 153 523 l 5,11,-1
 153 151 l 6,12,13
 153 74 153 74 255 75 c 4,14,15
 310 75 310 75 377 102 c 132,-1,16
 444 129 444 129 507 181 c 5,17,-1
 533 151 l 5,0,-1
533 523 m 5,18,-1
 573 523 l 5,19,-1
 573 -17 l 6,20,21
 573 -84 573 -84 531 -134 c 4,22,23
 486 -188 486 -188 411 -205.5 c 132,-1,24
 336 -223 336 -223 249 -199 c 132,-1,25
 162 -175 162 -175 88 -113 c 5,26,-1
 113 -82 l 5,27,-1
 139 -52 l 5,28,29
 186 -91 186 -91 238.5 -111 c 132,-1,30
 291 -131 291 -131 335 -131 c 132,-1,31
 379 -131 379 -131 414.5 -118.5 c 132,-1,32
 450 -106 450 -106 470 -82 c 4,33,34
 493 -55 493 -55 493 -17 c 6,35,-1
 493 523 l 5,36,-1
 533 523 l 5,18,-1
EndSplineSet
EndChar

StartChar: z
Encoding: 122 122 123
Width: 646
Flags: W
LayerCount: 2
Fore
SplineSet
118 482 m 1,0,-1
 118 522 l 1,1,-1
 534 522 l 2,2,3
 562 522 562 522 558 479 c 0,4,5
 557 466 557 466 548 456 c 2,6,-1
 217 83 l 1,7,-1
 546 83 l 1,8,-1
 546 43 l 1,9,-1
 546 3 l 1,10,-1
 112 3 l 2,11,12
 109 3 109 3 108 3.5 c 128,-1,13
 107 4 107 4 106.5 6.5 c 128,-1,14
 106 9 106 9 103 11 c 0,15,16
 89 21 89 21 87.5 39 c 128,-1,17
 86 57 86 57 97 69 c 2,18,-1
 429 442 l 1,19,-1
 118 442 l 1,20,-1
 118 482 l 1,0,-1
EndSplineSet
EndChar

StartChar: braceleft
Encoding: 123 123 124
Width: 646
Flags: W
LayerCount: 2
Fore
SplineSet
250 372 m 1,0,-1
 250 406 l 1,1,2
 279 406 279 406 286.5 416.5 c 128,-1,3
 294 427 294 427 294 462 c 0,4,5
 293 475 293 475 288.5 503 c 128,-1,6
 284 531 284 531 279.5 560 c 128,-1,7
 275 589 275 589 272 623.5 c 128,-1,8
 269 658 269 658 273.5 687.5 c 128,-1,9
 278 717 278 717 290 742 c 128,-1,10
 302 767 302 767 329 781.5 c 128,-1,11
 356 796 356 796 396 796 c 1,12,-1
 396 752 l 1,13,-1
 396 716 l 1,14,15
 372 716 372 716 362 705.5 c 128,-1,16
 352 695 352 695 352.5 671 c 128,-1,17
 353 647 353 647 357.5 620.5 c 128,-1,18
 362 594 362 594 367.5 548.5 c 128,-1,19
 373 503 373 503 374 462 c 0,20,21
 374 436 374 436 367.5 413.5 c 128,-1,22
 361 391 361 391 347.5 370.5 c 128,-1,23
 334 350 334 350 309 338 c 128,-1,24
 284 326 284 326 250 326 c 1,25,-1
 250 372 l 1,0,-1
396 -17 m 1,26,-1
 396 -63 l 1,27,28
 362 -63 362 -63 337 -51 c 128,-1,29
 312 -39 312 -39 298.5 -19 c 128,-1,30
 285 1 285 1 278.5 24 c 128,-1,31
 272 47 272 47 272 73 c 0,32,33
 273 114 273 114 278.5 159 c 128,-1,34
 284 204 284 204 288.5 231 c 128,-1,35
 293 258 293 258 293.5 282 c 128,-1,36
 294 306 294 306 284 316 c 128,-1,37
 274 326 274 326 250 326 c 1,38,-1
 250 363 l 1,39,-1
 250 406 l 1,40,41
 297 406 297 406 325.5 386 c 128,-1,42
 354 366 354 366 364 336 c 128,-1,43
 374 306 374 306 374.5 266 c 128,-1,44
 375 226 375 226 369.5 191.5 c 128,-1,45
 364 157 364 157 358.5 121.5 c 128,-1,46
 353 86 353 86 352 73 c 0,47,48
 352 37 352 37 359.5 27 c 128,-1,49
 367 17 367 17 396 17 c 1,50,-1
 396 -17 l 1,26,-1
EndSplineSet
EndChar

StartChar: braceright
Encoding: 125 125 126
Width: 646
Flags: W
LayerCount: 2
Fore
SplineSet
396 372 m 1,0,-1
 396 406 l 1,1,2
 367 406 367 406 359.5 416.5 c 128,-1,3
 352 427 352 427 352 462 c 0,4,5
 353 475 353 475 357.5 503 c 128,-1,6
 362 531 362 531 366.5 560 c 128,-1,7
 371 589 371 589 374 623.5 c 128,-1,8
 377 658 377 658 372.5 687.5 c 128,-1,9
 368 717 368 717 356 742 c 128,-1,10
 344 767 344 767 317 781.5 c 128,-1,11
 290 796 290 796 250 796 c 1,12,-1
 250 752 l 1,13,-1
 250 716 l 1,14,15
 274 716 274 716 284 705.5 c 128,-1,16
 294 695 294 695 293.5 671 c 128,-1,17
 293 647 293 647 288.5 620.5 c 128,-1,18
 284 594 284 594 278.5 548.5 c 128,-1,19
 273 503 273 503 272 462 c 0,20,21
 272 436 272 436 278.5 413.5 c 128,-1,22
 285 391 285 391 298.5 370.5 c 128,-1,23
 312 350 312 350 337 338 c 128,-1,24
 362 326 362 326 396 326 c 1,25,-1
 396 372 l 1,0,-1
250 -17 m 1,26,-1
 250 -63 l 1,27,28
 284 -63 284 -63 309 -51 c 128,-1,29
 334 -39 334 -39 347.5 -19 c 128,-1,30
 361 1 361 1 367.5 24 c 128,-1,31
 374 47 374 47 374 73 c 0,32,33
 373 114 373 114 367.5 159 c 128,-1,34
 362 204 362 204 357.5 231 c 128,-1,35
 353 258 353 258 352.5 282 c 128,-1,36
 352 306 352 306 362 316 c 128,-1,37
 372 326 372 326 396 326 c 1,38,-1
 396 363 l 1,39,-1
 396 406 l 1,40,41
 349 406 349 406 320.5 386 c 128,-1,42
 292 366 292 366 282 336 c 128,-1,43
 272 306 272 306 271.5 266 c 128,-1,44
 271 226 271 226 276.5 191.5 c 128,-1,45
 282 157 282 157 287.5 121.5 c 128,-1,46
 293 86 293 86 294 73 c 0,47,48
 294 37 294 37 286.5 27 c 128,-1,49
 279 17 279 17 250 17 c 1,50,-1
 250 -17 l 1,26,-1
EndSplineSet
EndChar

StartChar: cent
Encoding: 162 162 163
Width: 646
Flags: W
LayerCount: 2
Fore
SplineSet
523 591 m 5,0,-1
 503 557 l 5,1,2
 464 579 464 579 420 579 c 132,-1,3
 376 579 376 579 338 557 c 4,4,5
 258 511 258 511 227 438.5 c 132,-1,6
 196 366 196 366 210 287 c 4,7,8
 219 236 219 236 245 192.5 c 132,-1,9
 271 149 271 149 309.5 118 c 132,-1,10
 348 87 348 87 401.5 74 c 132,-1,11
 455 61 455 61 515 72 c 5,12,-1
 523 32 l 5,13,-1
 530 -7 l 5,14,15
 452 -21 452 -21 381.5 -3.5 c 132,-1,16
 311 14 311 14 260.5 55 c 132,-1,17
 210 96 210 96 176.5 152.5 c 132,-1,18
 143 209 143 209 131 272 c 4,19,20
 113 374 113 374 154.5 470.5 c 132,-1,21
 196 567 196 567 298 626 c 4,22,23
 354 659 354 659 420 659 c 132,-1,24
 486 659 486 659 543 626 c 5,25,-1
 523 591 l 5,0,-1
83 383 m 5,26,-1
 83 423 l 5,27,-1
 316 423 l 5,28,-1
 316 383 l 5,29,-1
 316 343 l 5,30,-1
 83 343 l 5,31,-1
 83 383 l 5,26,-1
83 245 m 5,32,-1
 83 285 l 5,33,-1
 316 285 l 5,34,-1
 316 245 l 5,35,-1
 316 205 l 5,36,-1
 83 205 l 5,37,-1
 83 245 l 5,32,-1
EndSplineSet
EndChar

StartChar: yen
Encoding: 165 165 166
Width: 646
Flags: W
LayerCount: 2
Fore
SplineSet
145 599 m 5,0,-1
 179 621 l 5,1,-1
 357 341 l 6,2,3
 363 332 363 332 363 320 c 6,4,-1
 363 1 l 5,5,-1
 323 1 l 5,6,-1
 283 1 l 5,7,-1
 283 308 l 5,8,-1
 111 578 l 5,9,-1
 145 599 l 5,0,-1
501 599 m 5,10,-1
 535 578 l 5,11,-1
 357 299 l 5,12,-1
 323 320 l 5,13,-1
 289 341 l 5,14,-1
 467 621 l 5,15,-1
 501 599 l 5,10,-1
207 187 m 5,16,-1
 207 227 l 5,17,-1
 439 227 l 5,18,-1
 439 187 l 5,19,-1
 439 147 l 5,20,-1
 207 147 l 5,21,-1
 207 187 l 5,16,-1
207 320 m 5,22,-1
 207 360 l 5,23,-1
 439 360 l 5,24,-1
 439 320 l 5,25,-1
 439 280 l 5,26,-1
 207 280 l 5,27,-1
 207 320 l 5,22,-1
EndSplineSet
EndChar

StartChar: dieresis
Encoding: 168 168 169
Width: 646
Flags: W
LayerCount: 2
Fore
SplineSet
226 760 m 5,0,-1
 186 760 l 5,1,-1
 186 843 l 5,2,-1
 226 843 l 5,3,-1
 266 843 l 5,4,-1
 266 760 l 5,5,-1
 226 760 l 5,0,-1
420 760 m 5,6,-1
 380 760 l 5,7,-1
 380 843 l 5,8,-1
 420 843 l 5,9,-1
 460 843 l 5,10,-1
 460 760 l 5,11,-1
 420 760 l 5,6,-1
EndSplineSet
EndChar

StartChar: guillemotleft
Encoding: 171 171 172
Width: 646
Flags: W
LayerCount: 2
Fore
SplineSet
481 134 m 1,0,-1
 448 112 l 1,1,-1
 351 258 l 2,2,3
 336 280 336 280 351 302 c 2,4,-1
 448 448 l 1,5,-1
 481 426 l 1,6,-1
 515 404 l 1,7,-1
 432 280 l 1,8,-1
 515 156 l 1,9,-1
 481 134 l 1,0,-1
268 134 m 1,10,-1
 235 112 l 1,11,-1
 138 258 l 2,12,13
 123 280 123 280 138 302 c 2,14,-1
 235 448 l 1,15,-1
 268 426 l 1,16,-1
 302 404 l 1,17,-1
 219 280 l 1,18,-1
 302 156 l 1,19,-1
 268 134 l 1,10,-1
EndSplineSet
EndChar

StartChar: uni00AD
Encoding: 173 173 174
Width: 646
Flags: W
LayerCount: 2
Fore
SplineSet
518 316 m 1,0,-1
 518 276 l 1,1,-1
 128 276 l 1,2,-1
 128 316 l 1,3,-1
 128 356 l 1,4,-1
 518 356 l 1,5,-1
 518 316 l 1,0,-1
EndSplineSet
EndChar

StartChar: macron
Encoding: 175 175 176
Width: 646
Flags: W
LayerCount: 2
Fore
SplineSet
566 342 m 1,0,-1
 566 302 l 1,1,-1
 80 302 l 1,2,-1
 80 342 l 1,3,-1
 80 382 l 1,4,-1
 566 382 l 1,5,-1
 566 342 l 1,0,-1
EndSplineSet
EndChar

StartChar: acute
Encoding: 180 180 181
Width: 646
Flags: W
LayerCount: 2
Fore
SplineSet
177 719 m 5,0,-1
 164 757 l 5,1,-1
 456 855 l 5,2,-1
 469 817 l 5,3,-1
 482 779 l 5,4,-1
 190 681 l 5,5,-1
 177 719 l 5,0,-1
EndSplineSet
EndChar

StartChar: guillemotright
Encoding: 187 187 188
Width: 646
Flags: W
LayerCount: 2
Fore
SplineSet
165 426 m 1,0,-1
 198 448 l 1,1,-1
 295 302 l 2,2,3
 310 280 310 280 295 258 c 2,4,-1
 198 112 l 1,5,-1
 165 134 l 1,6,-1
 131 156 l 1,7,-1
 214 280 l 1,8,-1
 131 404 l 1,9,-1
 165 426 l 1,0,-1
378 426 m 1,10,-1
 411 448 l 1,11,-1
 508 302 l 2,12,13
 523 280 523 280 508 258 c 2,14,-1
 411 112 l 1,15,-1
 378 134 l 1,16,-1
 344 156 l 1,17,-1
 427 280 l 1,18,-1
 344 404 l 1,19,-1
 378 426 l 1,10,-1
EndSplineSet
EndChar

StartChar: Agrave
Encoding: 192 192 193
Width: 646
Flags: W
LayerCount: 2
Fore
SplineSet
177 919 m 5,0,-1
 190 957 l 5,1,-1
 482 859 l 5,2,-1
 469 821 l 5,3,-1
 456 783 l 5,4,-1
 164 881 l 5,5,-1
 177 919 l 5,0,-1
108 12 m 1,6,-1
 70 24 l 1,7,-1
 282 704 l 2,8,9
 287 720 287 720 303 727.5 c 128,-1,10
 319 735 319 735 335 729 c 0,11,12
 352 721 352 721 358 704 c 2,13,-1
 576 24 l 1,14,-1
 538 12 l 1,15,-1
 500 0 l 1,16,-1
 320 561 l 1,17,-1
 146 0 l 1,18,-1
 108 12 l 1,6,-1
176 226 m 1,19,-1
 176 266 l 1,20,-1
 446 266 l 1,21,-1
 446 226 l 1,22,-1
 446 186 l 1,23,-1
 176 186 l 1,24,-1
 176 226 l 1,19,-1
EndSplineSet
EndChar

StartChar: Aacute
Encoding: 193 193 194
Width: 646
Flags: W
LayerCount: 2
Fore
SplineSet
177 824 m 5,0,-1
 164 862 l 5,1,-1
 456 960 l 5,2,-1
 469 922 l 5,3,-1
 482 884 l 5,4,-1
 190 786 l 5,5,-1
 177 824 l 5,0,-1
108 12 m 1,6,-1
 70 24 l 1,7,-1
 282 704 l 2,8,9
 287 720 287 720 303 727.5 c 128,-1,10
 319 735 319 735 335 729 c 0,11,12
 352 721 352 721 358 704 c 2,13,-1
 576 24 l 1,14,-1
 538 12 l 1,15,-1
 500 0 l 1,16,-1
 320 561 l 1,17,-1
 146 0 l 1,18,-1
 108 12 l 1,6,-1
176 226 m 1,19,-1
 176 266 l 1,20,-1
 446 266 l 1,21,-1
 446 226 l 1,22,-1
 446 186 l 1,23,-1
 176 186 l 1,24,-1
 176 226 l 1,19,-1
EndSplineSet
EndChar

StartChar: Acircumflex
Encoding: 194 194 195
Width: 646
Flags: W
LayerCount: 2
Fore
SplineSet
177 818 m 5,0,-1
 155 851 l 5,1,-1
 301 948 l 6,2,3
 323 963 323 963 345 948 c 6,4,-1
 491 851 l 5,5,-1
 469 818 l 5,6,-1
 447 784 l 5,7,-1
 323 867 l 5,8,-1
 199 784 l 5,9,-1
 177 818 l 5,0,-1
108 12 m 1,10,-1
 70 24 l 1,11,-1
 282 704 l 2,12,13
 287 720 287 720 303 727.5 c 128,-1,14
 319 735 319 735 335 729 c 0,15,16
 352 721 352 721 358 704 c 2,17,-1
 576 24 l 1,18,-1
 538 12 l 1,19,-1
 500 0 l 1,20,-1
 320 561 l 1,21,-1
 146 0 l 1,22,-1
 108 12 l 1,10,-1
176 226 m 1,23,-1
 176 266 l 1,24,-1
 446 266 l 1,25,-1
 446 226 l 1,26,-1
 446 186 l 1,27,-1
 176 186 l 1,28,-1
 176 226 l 1,23,-1
EndSplineSet
EndChar

StartChar: Adieresis
Encoding: 196 196 197
Width: 646
Flags: W
LayerCount: 2
Fore
SplineSet
226 796 m 5,0,-1
 186 796 l 5,1,-1
 186 879 l 5,2,-1
 226 879 l 5,3,-1
 266 879 l 5,4,-1
 266 796 l 5,5,-1
 226 796 l 5,0,-1
420 796 m 5,6,-1
 380 796 l 5,7,-1
 380 879 l 5,8,-1
 420 879 l 5,9,-1
 460 879 l 5,10,-1
 460 796 l 5,11,-1
 420 796 l 5,6,-1
108 12 m 1,12,-1
 70 24 l 1,13,-1
 282 704 l 2,14,15
 287 720 287 720 303 727.5 c 128,-1,16
 319 735 319 735 335 729 c 0,17,18
 352 721 352 721 358 704 c 2,19,-1
 576 24 l 1,20,-1
 538 12 l 1,21,-1
 500 0 l 1,22,-1
 320 561 l 1,23,-1
 146 0 l 1,24,-1
 108 12 l 1,12,-1
176 226 m 1,25,-1
 176 266 l 1,26,-1
 446 266 l 1,27,-1
 446 226 l 1,28,-1
 446 186 l 1,29,-1
 176 186 l 1,30,-1
 176 226 l 1,25,-1
EndSplineSet
EndChar

StartChar: Ccedilla
Encoding: 199 199 200
Width: 646
Flags: W
LayerCount: 2
Fore
SplineSet
364 -230 m 5,0,-1
 327 -215 l 5,1,2
 373 -106 373 -106 373 13 c 5,3,-1
 413 13 l 5,4,-1
 453 13 l 5,5,6
 453 -121 453 -121 401 -246 c 5,7,-1
 364 -230 l 5,0,-1
539 647 m 1,8,-1
 513 617 l 1,9,10
 477 647 477 647 431 658 c 128,-1,11
 385 669 385 669 339.5 658 c 128,-1,12
 294 647 294 647 257.5 616.5 c 128,-1,13
 221 586 221 586 197.5 542 c 128,-1,14
 174 498 174 498 166.5 451.5 c 128,-1,15
 159 405 159 405 162 360 c 128,-1,16
 165 315 165 315 177 276 c 0,17,18
 200 204 200 204 249 152.5 c 128,-1,19
 298 101 298 101 369 80 c 128,-1,20
 440 59 440 59 527 86 c 1,21,-1
 539 48 l 1,22,-1
 551 10 l 1,23,24
 440 -24 440 -24 348.5 3 c 128,-1,25
 257 30 257 30 193 96 c 128,-1,26
 129 162 129 162 101 251 c 0,27,28
 88 290 88 290 83.5 334 c 128,-1,29
 79 378 79 378 83.5 425.5 c 128,-1,30
 88 473 88 473 101.5 518 c 128,-1,31
 115 563 115 563 142 605 c 128,-1,32
 169 647 169 647 206 678 c 0,33,34
 284 743 284 743 385.5 743 c 128,-1,35
 487 743 487 743 565 678 c 1,36,-1
 539 647 l 1,8,-1
EndSplineSet
EndChar

StartChar: Egrave
Encoding: 200 200 201
Width: 646
Flags: W
LayerCount: 2
Fore
SplineSet
172 919 m 5,0,-1
 185 957 l 5,1,-1
 477 859 l 5,2,-1
 464 821 l 5,3,-1
 451 783 l 5,4,-1
 159 881 l 5,5,-1
 172 919 l 5,0,-1
133 1 m 1,6,-1
 93 1 l 1,7,-1
 93 704 l 2,8,9
 93 722 93 722 97 728 c 128,-1,10
 101 734 101 734 113 734 c 2,11,-1
 506 734 l 1,12,-1
 506 694 l 1,13,-1
 506 654 l 1,14,-1
 173 654 l 1,15,-1
 173 1 l 1,16,-1
 133 1 l 1,6,-1
133 386 m 1,17,-1
 133 426 l 1,18,-1
 459 426 l 1,19,-1
 459 386 l 1,20,-1
 459 346 l 1,21,-1
 133 346 l 1,22,-1
 133 386 l 1,17,-1
133 1 m 1,23,-1
 133 81 l 1,24,-1
 553 81 l 1,25,-1
 553 41 l 1,26,-1
 553 1 l 1,27,-1
 133 1 l 1,23,-1
EndSplineSet
EndChar

StartChar: Eacute
Encoding: 201 201 202
Width: 646
Flags: W
LayerCount: 2
Fore
SplineSet
170 824 m 5,0,-1
 157 862 l 5,1,-1
 449 960 l 5,2,-1
 462 922 l 5,3,-1
 475 884 l 5,4,-1
 183 786 l 5,5,-1
 170 824 l 5,0,-1
133 1 m 1,6,-1
 93 1 l 1,7,-1
 93 704 l 2,8,9
 93 722 93 722 97 728 c 128,-1,10
 101 734 101 734 113 734 c 2,11,-1
 506 734 l 1,12,-1
 506 694 l 1,13,-1
 506 654 l 1,14,-1
 173 654 l 1,15,-1
 173 1 l 1,16,-1
 133 1 l 1,6,-1
133 386 m 1,17,-1
 133 426 l 1,18,-1
 459 426 l 1,19,-1
 459 386 l 1,20,-1
 459 346 l 1,21,-1
 133 346 l 1,22,-1
 133 386 l 1,17,-1
133 1 m 1,23,-1
 133 81 l 1,24,-1
 553 81 l 1,25,-1
 553 41 l 1,26,-1
 553 1 l 1,27,-1
 133 1 l 1,23,-1
EndSplineSet
EndChar

StartChar: Ecircumflex
Encoding: 202 202 203
Width: 646
Flags: W
LayerCount: 2
Fore
SplineSet
169 818 m 5,0,-1
 147 851 l 5,1,-1
 293 948 l 6,2,3
 315 963 315 963 337 948 c 6,4,-1
 483 851 l 5,5,-1
 461 818 l 5,6,-1
 439 784 l 5,7,-1
 315 867 l 5,8,-1
 191 784 l 5,9,-1
 169 818 l 5,0,-1
133 1 m 1,10,-1
 93 1 l 1,11,-1
 93 704 l 2,12,13
 93 722 93 722 97 728 c 128,-1,14
 101 734 101 734 113 734 c 2,15,-1
 506 734 l 1,16,-1
 506 694 l 1,17,-1
 506 654 l 1,18,-1
 173 654 l 1,19,-1
 173 1 l 1,20,-1
 133 1 l 1,10,-1
133 386 m 1,21,-1
 133 426 l 1,22,-1
 459 426 l 1,23,-1
 459 386 l 1,24,-1
 459 346 l 1,25,-1
 133 346 l 1,26,-1
 133 386 l 1,21,-1
133 1 m 1,27,-1
 133 81 l 1,28,-1
 553 81 l 1,29,-1
 553 41 l 1,30,-1
 553 1 l 1,31,-1
 133 1 l 1,27,-1
EndSplineSet
EndChar

StartChar: Edieresis
Encoding: 203 203 204
Width: 646
Flags: W
LayerCount: 2
Fore
SplineSet
216 796 m 5,0,-1
 176 796 l 5,1,-1
 176 879 l 5,2,-1
 216 879 l 5,3,-1
 256 879 l 5,4,-1
 256 796 l 5,5,-1
 216 796 l 5,0,-1
410 796 m 5,6,-1
 370 796 l 5,7,-1
 370 879 l 5,8,-1
 410 879 l 5,9,-1
 450 879 l 5,10,-1
 450 796 l 5,11,-1
 410 796 l 5,6,-1
133 1 m 1,12,-1
 93 1 l 1,13,-1
 93 704 l 2,14,15
 93 722 93 722 97 728 c 128,-1,16
 101 734 101 734 113 734 c 2,17,-1
 506 734 l 1,18,-1
 506 694 l 1,19,-1
 506 654 l 1,20,-1
 173 654 l 1,21,-1
 173 1 l 1,22,-1
 133 1 l 1,12,-1
133 386 m 1,23,-1
 133 426 l 1,24,-1
 459 426 l 1,25,-1
 459 386 l 1,26,-1
 459 346 l 1,27,-1
 133 346 l 1,28,-1
 133 386 l 1,23,-1
133 1 m 1,29,-1
 133 81 l 1,30,-1
 553 81 l 1,31,-1
 553 41 l 1,32,-1
 553 1 l 1,33,-1
 133 1 l 1,29,-1
EndSplineSet
EndChar

StartChar: Igrave
Encoding: 204 204 205
Width: 646
Flags: W
LayerCount: 2
Fore
SplineSet
74 652 m 1,0,-1
 74 732 l 1,1,-1
 572 732 l 1,2,-1
 572 692 l 1,3,-1
 572 652 l 1,4,-1
 74 652 l 1,0,-1
74 1 m 1,5,-1
 74 81 l 1,6,-1
 572 81 l 1,7,-1
 572 41 l 1,8,-1
 572 1 l 1,9,-1
 74 1 l 1,5,-1
179 916 m 5,10,-1
 192 954 l 5,11,-1
 484 856 l 5,12,-1
 471 818 l 5,13,-1
 458 780 l 5,14,-1
 166 878 l 5,15,-1
 179 916 l 5,10,-1
323 0 m 1,16,-1
 283 0 l 1,17,-1
 283 730 l 1,18,-1
 323 730 l 1,19,-1
 363 730 l 1,20,-1
 363 0 l 1,21,-1
 323 0 l 1,16,-1
EndSplineSet
EndChar

StartChar: Iacute
Encoding: 205 205 206
Width: 646
Flags: W
LayerCount: 2
Fore
SplineSet
74 654 m 5,0,-1
 74 734 l 5,1,-1
 572 734 l 5,2,-1
 572 694 l 5,3,-1
 572 654 l 5,4,-1
 74 654 l 5,0,-1
74 1 m 5,5,-1
 74 81 l 5,6,-1
 572 81 l 5,7,-1
 572 41 l 5,8,-1
 572 1 l 5,9,-1
 74 1 l 5,5,-1
173 819 m 1,10,-1
 160 857 l 1,11,-1
 452 955 l 1,12,-1
 465 917 l 1,13,-1
 478 879 l 1,14,-1
 186 781 l 1,15,-1
 173 819 l 1,10,-1
323 0 m 1,16,-1
 283 0 l 1,17,-1
 283 730 l 1,18,-1
 323 730 l 1,19,-1
 363 730 l 1,20,-1
 363 0 l 1,21,-1
 323 0 l 1,16,-1
EndSplineSet
EndChar

StartChar: Icircumflex
Encoding: 206 206 207
Width: 646
Flags: W
LayerCount: 2
Fore
SplineSet
74 654 m 5,0,-1
 74 734 l 5,1,-1
 572 734 l 5,2,-1
 572 694 l 5,3,-1
 572 654 l 5,4,-1
 74 654 l 5,0,-1
74 1 m 5,5,-1
 74 81 l 5,6,-1
 572 81 l 5,7,-1
 572 41 l 5,8,-1
 572 1 l 5,9,-1
 74 1 l 5,5,-1
179 818 m 1,10,-1
 157 851 l 1,11,-1
 303 948 l 2,12,13
 325 963 325 963 347 948 c 2,14,-1
 493 851 l 1,15,-1
 471 818 l 1,16,-1
 449 784 l 1,17,-1
 325 867 l 1,18,-1
 201 784 l 1,19,-1
 179 818 l 1,10,-1
323 0 m 1,20,-1
 283 0 l 1,21,-1
 283 730 l 1,22,-1
 323 730 l 1,23,-1
 363 730 l 1,24,-1
 363 0 l 1,25,-1
 323 0 l 1,20,-1
EndSplineSet
EndChar

StartChar: Idieresis
Encoding: 207 207 208
Width: 646
Flags: W
LayerCount: 2
Fore
SplineSet
74 654 m 5,0,-1
 74 734 l 5,1,-1
 572 734 l 5,2,-1
 572 694 l 5,3,-1
 572 654 l 5,4,-1
 74 654 l 5,0,-1
74 1 m 5,5,-1
 74 81 l 5,6,-1
 572 81 l 5,7,-1
 572 41 l 5,8,-1
 572 1 l 5,9,-1
 74 1 l 5,5,-1
226 796 m 1,10,-1
 186 796 l 1,11,-1
 186 879 l 1,12,-1
 226 879 l 1,13,-1
 266 879 l 1,14,-1
 266 796 l 1,15,-1
 226 796 l 1,10,-1
420 796 m 1,16,-1
 380 796 l 1,17,-1
 380 879 l 1,18,-1
 420 879 l 1,19,-1
 460 879 l 1,20,-1
 460 796 l 1,21,-1
 420 796 l 1,16,-1
323 0 m 1,22,-1
 283 0 l 1,23,-1
 283 730 l 1,24,-1
 323 730 l 1,25,-1
 363 730 l 1,26,-1
 363 0 l 1,27,-1
 323 0 l 1,22,-1
EndSplineSet
EndChar

StartChar: Ograve
Encoding: 210 210 211
Width: 646
Flags: W
LayerCount: 2
Fore
SplineSet
163 919 m 5,0,-1
 176 957 l 5,1,-1
 468 859 l 5,2,-1
 455 821 l 5,3,-1
 442 783 l 5,4,-1
 150 881 l 5,5,-1
 163 919 l 5,0,-1
261 702 m 1,6,-1
 296 662 l 1,7,8
 179 594 179 594 148 467 c 0,9,10
 129 388 129 388 153.5 304 c 128,-1,11
 178 220 178 220 243.5 154 c 128,-1,12
 309 88 309 88 398 66 c 1,13,-1
 389 27 l 1,14,-1
 379 -12 l 1,15,16
 337 -1 337 -1 297.5 18 c 128,-1,17
 258 37 258 37 226 62.5 c 128,-1,18
 194 88 194 88 167 119 c 128,-1,19
 140 150 140 150 120 184.5 c 128,-1,20
 100 219 100 219 86 257 c 128,-1,21
 72 295 72 295 65.5 333.5 c 128,-1,22
 59 372 59 372 60 411 c 128,-1,23
 61 450 61 450 70 486 c 0,24,25
 89 561 89 561 136 625 c 128,-1,26
 183 689 183 689 256 731 c 1,27,-1
 261 702 l 1,6,-1
389 27 m 1,28,-1
 349 59 l 1,29,30
 467 127 467 127 498 254 c 0,31,32
 508 302 508 302 505 352.5 c 128,-1,33
 502 403 502 403 481.5 453 c 128,-1,34
 461 503 461 503 430 545 c 128,-1,35
 399 587 399 587 352.5 618.5 c 128,-1,36
 306 650 306 650 252 663 c 1,37,-1
 261 702 l 1,38,-1
 271 741 l 1,39,40
 327 727 327 727 377 697.5 c 128,-1,41
 427 668 427 668 463.5 628 c 128,-1,42
 500 588 500 588 528 540 c 128,-1,43
 556 492 556 492 569.5 440.5 c 128,-1,44
 583 389 583 389 586 336 c 128,-1,45
 589 283 589 283 575 235 c 0,46,47
 557 160 557 160 510 96 c 128,-1,48
 463 32 463 32 389 -10 c 1,49,-1
 389 27 l 1,28,-1
EndSplineSet
EndChar

StartChar: Oacute
Encoding: 211 211 212
Width: 646
Flags: W
LayerCount: 2
Fore
SplineSet
126 824 m 5,0,-1
 113 862 l 5,1,-1
 405 960 l 5,2,-1
 418 922 l 5,3,-1
 431 884 l 5,4,-1
 139 786 l 5,5,-1
 126 824 l 5,0,-1
261 702 m 1,6,-1
 296 662 l 1,7,8
 179 594 179 594 148 467 c 0,9,10
 129 388 129 388 153.5 304 c 128,-1,11
 178 220 178 220 243.5 154 c 128,-1,12
 309 88 309 88 398 66 c 1,13,-1
 389 27 l 1,14,-1
 379 -12 l 1,15,16
 337 -1 337 -1 297.5 18 c 128,-1,17
 258 37 258 37 226 62.5 c 128,-1,18
 194 88 194 88 167 119 c 128,-1,19
 140 150 140 150 120 184.5 c 128,-1,20
 100 219 100 219 86 257 c 128,-1,21
 72 295 72 295 65.5 333.5 c 128,-1,22
 59 372 59 372 60 411 c 128,-1,23
 61 450 61 450 70 486 c 0,24,25
 89 561 89 561 136 625 c 128,-1,26
 183 689 183 689 256 731 c 1,27,-1
 261 702 l 1,6,-1
389 27 m 1,28,-1
 349 59 l 1,29,30
 467 127 467 127 498 254 c 0,31,32
 508 302 508 302 505 352.5 c 128,-1,33
 502 403 502 403 481.5 453 c 128,-1,34
 461 503 461 503 430 545 c 128,-1,35
 399 587 399 587 352.5 618.5 c 128,-1,36
 306 650 306 650 252 663 c 1,37,-1
 261 702 l 1,38,-1
 271 741 l 1,39,40
 327 727 327 727 377 697.5 c 128,-1,41
 427 668 427 668 463.5 628 c 128,-1,42
 500 588 500 588 528 540 c 128,-1,43
 556 492 556 492 569.5 440.5 c 128,-1,44
 583 389 583 389 586 336 c 128,-1,45
 589 283 589 283 575 235 c 0,46,47
 557 160 557 160 510 96 c 128,-1,48
 463 32 463 32 389 -10 c 1,49,-1
 389 27 l 1,28,-1
EndSplineSet
EndChar

StartChar: Ocircumflex
Encoding: 212 212 213
Width: 646
Flags: W
LayerCount: 2
Fore
SplineSet
135 818 m 5,0,-1
 113 851 l 5,1,-1
 259 948 l 6,2,3
 281 963 281 963 303 948 c 6,4,-1
 449 851 l 5,5,-1
 427 818 l 5,6,-1
 405 784 l 5,7,-1
 281 867 l 5,8,-1
 157 784 l 5,9,-1
 135 818 l 5,0,-1
261 702 m 1,10,-1
 296 662 l 1,11,12
 179 594 179 594 148 467 c 0,13,14
 129 388 129 388 153.5 304 c 128,-1,15
 178 220 178 220 243.5 154 c 128,-1,16
 309 88 309 88 398 66 c 1,17,-1
 389 27 l 1,18,-1
 379 -12 l 1,19,20
 337 -1 337 -1 297.5 18 c 128,-1,21
 258 37 258 37 226 62.5 c 128,-1,22
 194 88 194 88 167 119 c 128,-1,23
 140 150 140 150 120 184.5 c 128,-1,24
 100 219 100 219 86 257 c 128,-1,25
 72 295 72 295 65.5 333.5 c 128,-1,26
 59 372 59 372 60 411 c 128,-1,27
 61 450 61 450 70 486 c 0,28,29
 89 561 89 561 136 625 c 128,-1,30
 183 689 183 689 256 731 c 1,31,-1
 261 702 l 1,10,-1
389 27 m 1,32,-1
 349 59 l 1,33,34
 467 127 467 127 498 254 c 0,35,36
 508 302 508 302 505 352.5 c 128,-1,37
 502 403 502 403 481.5 453 c 128,-1,38
 461 503 461 503 430 545 c 128,-1,39
 399 587 399 587 352.5 618.5 c 128,-1,40
 306 650 306 650 252 663 c 1,41,-1
 261 702 l 1,42,-1
 271 741 l 1,43,44
 327 727 327 727 377 697.5 c 128,-1,45
 427 668 427 668 463.5 628 c 128,-1,46
 500 588 500 588 528 540 c 128,-1,47
 556 492 556 492 569.5 440.5 c 128,-1,48
 583 389 583 389 586 336 c 128,-1,49
 589 283 589 283 575 235 c 0,50,51
 557 160 557 160 510 96 c 128,-1,52
 463 32 463 32 389 -10 c 1,53,-1
 389 27 l 1,32,-1
EndSplineSet
EndChar

StartChar: Odieresis
Encoding: 214 214 215
Width: 646
Flags: W
LayerCount: 2
Fore
SplineSet
176 796 m 5,0,-1
 136 796 l 5,1,-1
 136 879 l 5,2,-1
 176 879 l 5,3,-1
 216 879 l 5,4,-1
 216 796 l 5,5,-1
 176 796 l 5,0,-1
370 796 m 5,6,-1
 330 796 l 5,7,-1
 330 879 l 5,8,-1
 370 879 l 5,9,-1
 410 879 l 5,10,-1
 410 796 l 5,11,-1
 370 796 l 5,6,-1
261 702 m 1,12,-1
 296 662 l 1,13,14
 179 594 179 594 148 467 c 0,15,16
 129 388 129 388 153.5 304 c 128,-1,17
 178 220 178 220 243.5 154 c 128,-1,18
 309 88 309 88 398 66 c 1,19,-1
 389 27 l 1,20,-1
 379 -12 l 1,21,22
 337 -1 337 -1 297.5 18 c 128,-1,23
 258 37 258 37 226 62.5 c 128,-1,24
 194 88 194 88 167 119 c 128,-1,25
 140 150 140 150 120 184.5 c 128,-1,26
 100 219 100 219 86 257 c 128,-1,27
 72 295 72 295 65.5 333.5 c 128,-1,28
 59 372 59 372 60 411 c 128,-1,29
 61 450 61 450 70 486 c 0,30,31
 89 561 89 561 136 625 c 128,-1,32
 183 689 183 689 256 731 c 1,33,-1
 261 702 l 1,12,-1
389 27 m 1,34,-1
 349 59 l 1,35,36
 467 127 467 127 498 254 c 0,37,38
 508 302 508 302 505 352.5 c 128,-1,39
 502 403 502 403 481.5 453 c 128,-1,40
 461 503 461 503 430 545 c 128,-1,41
 399 587 399 587 352.5 618.5 c 128,-1,42
 306 650 306 650 252 663 c 1,43,-1
 261 702 l 1,44,-1
 271 741 l 1,45,46
 327 727 327 727 377 697.5 c 128,-1,47
 427 668 427 668 463.5 628 c 128,-1,48
 500 588 500 588 528 540 c 128,-1,49
 556 492 556 492 569.5 440.5 c 128,-1,50
 583 389 583 389 586 336 c 128,-1,51
 589 283 589 283 575 235 c 0,52,53
 557 160 557 160 510 96 c 128,-1,54
 463 32 463 32 389 -10 c 1,55,-1
 389 27 l 1,34,-1
EndSplineSet
EndChar

StartChar: Oslash
Encoding: 216 216 217
Width: 646
Flags: W
LayerCount: 2
Fore
SplineSet
537 692 m 5,0,-1
 570 670 l 5,1,-1
 151 18 l 5,2,-1
 117 39 l 5,3,-1
 84 61 l 5,4,-1
 503 713 l 5,5,-1
 537 692 l 5,0,-1
261 702 m 1,6,-1
 296 662 l 1,7,8
 179 594 179 594 148 467 c 0,9,10
 129 388 129 388 153.5 304 c 128,-1,11
 178 220 178 220 243.5 154 c 128,-1,12
 309 88 309 88 398 66 c 1,13,-1
 389 27 l 1,14,-1
 379 -12 l 1,15,16
 337 -1 337 -1 297.5 18 c 128,-1,17
 258 37 258 37 226 62.5 c 128,-1,18
 194 88 194 88 167 119 c 128,-1,19
 140 150 140 150 120 184.5 c 128,-1,20
 100 219 100 219 86 257 c 128,-1,21
 72 295 72 295 65.5 333.5 c 128,-1,22
 59 372 59 372 60 411 c 128,-1,23
 61 450 61 450 70 486 c 0,24,25
 89 561 89 561 136 625 c 128,-1,26
 183 689 183 689 256 731 c 1,27,-1
 261 702 l 1,6,-1
389 27 m 1,28,-1
 349 59 l 1,29,30
 467 127 467 127 498 254 c 0,31,32
 508 302 508 302 505 352.5 c 128,-1,33
 502 403 502 403 481.5 453 c 128,-1,34
 461 503 461 503 430 545 c 128,-1,35
 399 587 399 587 352.5 618.5 c 128,-1,36
 306 650 306 650 252 663 c 1,37,-1
 261 702 l 1,38,-1
 271 741 l 1,39,40
 327 727 327 727 377 697.5 c 128,-1,41
 427 668 427 668 463.5 628 c 128,-1,42
 500 588 500 588 528 540 c 128,-1,43
 556 492 556 492 569.5 440.5 c 128,-1,44
 583 389 583 389 586 336 c 128,-1,45
 589 283 589 283 575 235 c 0,46,47
 557 160 557 160 510 96 c 128,-1,48
 463 32 463 32 389 -10 c 1,49,-1
 389 27 l 1,28,-1
EndSplineSet
EndChar

StartChar: Ugrave
Encoding: 217 217 218
Width: 646
Flags: W
LayerCount: 2
Fore
SplineSet
177 919 m 5,0,-1
 190 957 l 5,1,-1
 482 859 l 5,2,-1
 469 821 l 5,3,-1
 456 783 l 5,4,-1
 164 881 l 5,5,-1
 177 919 l 5,0,-1
533 0 m 1,6,-1
 493 0 l 1,7,-1
 493 730 l 1,8,-1
 533 730 l 1,9,-1
 573 730 l 1,10,-1
 573 0 l 1,11,-1
 533 0 l 1,6,-1
533 133 m 1,12,-1
 553 99 l 1,13,14
 467 49 467 49 383.5 20.5 c 128,-1,15
 300 -8 300 -8 232 -9 c 0,16,17
 165 -9 165 -9 119 27 c 128,-1,18
 73 63 73 63 73 133 c 2,19,-1
 73 730 l 1,20,-1
 113 730 l 1,21,-1
 153 730 l 1,22,-1
 153 133 l 2,23,24
 153 99 153 99 170.5 85 c 128,-1,25
 188 71 188 71 232 71 c 0,26,27
 284 71 284 71 360 97 c 128,-1,28
 436 123 436 123 513 168 c 1,29,-1
 533 133 l 1,12,-1
EndSplineSet
EndChar

StartChar: Uacute
Encoding: 218 218 219
Width: 646
Flags: W
LayerCount: 2
Fore
SplineSet
177 824 m 5,0,-1
 164 862 l 5,1,-1
 456 960 l 5,2,-1
 469 922 l 5,3,-1
 482 884 l 5,4,-1
 190 786 l 5,5,-1
 177 824 l 5,0,-1
533 0 m 1,6,-1
 493 0 l 1,7,-1
 493 730 l 1,8,-1
 533 730 l 1,9,-1
 573 730 l 1,10,-1
 573 0 l 1,11,-1
 533 0 l 1,6,-1
533 133 m 1,12,-1
 553 99 l 1,13,14
 467 49 467 49 383.5 20.5 c 128,-1,15
 300 -8 300 -8 232 -9 c 0,16,17
 165 -9 165 -9 119 27 c 128,-1,18
 73 63 73 63 73 133 c 2,19,-1
 73 730 l 1,20,-1
 113 730 l 1,21,-1
 153 730 l 1,22,-1
 153 133 l 2,23,24
 153 99 153 99 170.5 85 c 128,-1,25
 188 71 188 71 232 71 c 0,26,27
 284 71 284 71 360 97 c 128,-1,28
 436 123 436 123 513 168 c 1,29,-1
 533 133 l 1,12,-1
EndSplineSet
EndChar

StartChar: Ucircumflex
Encoding: 219 219 220
Width: 646
Flags: W
LayerCount: 2
Fore
SplineSet
182 818 m 5,0,-1
 160 851 l 5,1,-1
 306 948 l 6,2,3
 328 963 328 963 350 948 c 6,4,-1
 496 851 l 5,5,-1
 474 818 l 5,6,-1
 452 784 l 5,7,-1
 328 867 l 5,8,-1
 204 784 l 5,9,-1
 182 818 l 5,0,-1
533 0 m 1,10,-1
 493 0 l 1,11,-1
 493 730 l 1,12,-1
 533 730 l 1,13,-1
 573 730 l 1,14,-1
 573 0 l 1,15,-1
 533 0 l 1,10,-1
533 133 m 1,16,-1
 553 99 l 1,17,18
 467 49 467 49 383.5 20.5 c 128,-1,19
 300 -8 300 -8 232 -9 c 0,20,21
 165 -9 165 -9 119 27 c 128,-1,22
 73 63 73 63 73 133 c 2,23,-1
 73 730 l 1,24,-1
 113 730 l 1,25,-1
 153 730 l 1,26,-1
 153 133 l 2,27,28
 153 99 153 99 170.5 85 c 128,-1,29
 188 71 188 71 232 71 c 0,30,31
 284 71 284 71 360 97 c 128,-1,32
 436 123 436 123 513 168 c 1,33,-1
 533 133 l 1,16,-1
EndSplineSet
EndChar

StartChar: Udieresis
Encoding: 220 220 221
Width: 646
Flags: W
LayerCount: 2
Fore
SplineSet
230 796 m 5,0,-1
 190 796 l 5,1,-1
 190 879 l 5,2,-1
 230 879 l 5,3,-1
 270 879 l 5,4,-1
 270 796 l 5,5,-1
 230 796 l 5,0,-1
424 796 m 5,6,-1
 384 796 l 5,7,-1
 384 879 l 5,8,-1
 424 879 l 5,9,-1
 464 879 l 5,10,-1
 464 796 l 5,11,-1
 424 796 l 5,6,-1
533 0 m 1,12,-1
 493 0 l 1,13,-1
 493 730 l 1,14,-1
 533 730 l 1,15,-1
 573 730 l 1,16,-1
 573 0 l 1,17,-1
 533 0 l 1,12,-1
533 133 m 1,18,-1
 553 99 l 1,19,20
 467 49 467 49 383.5 20.5 c 128,-1,21
 300 -8 300 -8 232 -9 c 0,22,23
 165 -9 165 -9 119 27 c 128,-1,24
 73 63 73 63 73 133 c 2,25,-1
 73 730 l 1,26,-1
 113 730 l 1,27,-1
 153 730 l 1,28,-1
 153 133 l 2,29,30
 153 99 153 99 170.5 85 c 128,-1,31
 188 71 188 71 232 71 c 0,32,33
 284 71 284 71 360 97 c 128,-1,34
 436 123 436 123 513 168 c 1,35,-1
 533 133 l 1,18,-1
EndSplineSet
EndChar

StartChar: Yacute
Encoding: 221 221 222
Width: 646
Flags: W
LayerCount: 2
Fore
SplineSet
170 824 m 5,0,-1
 157 862 l 5,1,-1
 449 960 l 5,2,-1
 462 922 l 5,3,-1
 475 884 l 5,4,-1
 183 786 l 5,5,-1
 170 824 l 5,0,-1
113 729 m 1,6,-1
 147 750 l 1,7,-1
 357 379 l 2,8,9
 363 369 363 369 363 358 c 2,10,-1
 363 1 l 1,11,-1
 323 1 l 1,12,-1
 283 1 l 1,13,-1
 283 346 l 1,14,-1
 80 707 l 1,15,-1
 113 729 l 1,6,-1
533 729 m 1,16,-1
 566 707 l 1,17,-1
 357 336 l 1,18,-1
 323 358 l 1,19,-1
 289 379 l 1,20,-1
 499 750 l 1,21,-1
 533 729 l 1,16,-1
EndSplineSet
EndChar

StartChar: agrave
Encoding: 224 224 225
Width: 646
Flags: W
LayerCount: 2
Fore
SplineSet
197 728 m 1,0,-1
 210 766 l 1,1,-1
 502 668 l 1,2,-1
 489 630 l 1,3,-1
 476 592 l 1,4,-1
 184 690 l 1,5,-1
 197 728 l 1,0,-1
158 394 m 1,6,-1
 121 408 l 1,7,8
 163 523 163 523 313 538 c 0,9,10
 372 544 372 544 427.5 522.5 c 128,-1,11
 483 501 483 501 523.5 450.5 c 0,12,13
 571 391 571 391 571 330 c 0,14,15
 571 328 571 328 571 326 c 2,16,-1
 571 3 l 1,17,-1
 531 3 l 1,18,-1
 491 3 l 1,19,-1
 491 324 l 1,20,21
 483 392 483 392 432.5 429 c 128,-1,22
 382 466 382 466 320 459 c 0,23,24
 296 456 296 456 280.5 452.5 c 128,-1,25
 265 449 265 449 247 441 c 128,-1,26
 229 433 229 433 216.5 418 c 128,-1,27
 204 403 204 403 196 380 c 1,28,-1
 158 394 l 1,6,-1
516 280 m 5,29,-1
 516 240 l 5,30,-1
 174 240 l 6,31,32
 173 239 173 239 168 234 c 4,33,34
 156 223 156 223 153 204.5 c 132,-1,35
 150 186 150 186 159.5 162.5 c 132,-1,36
 169 139 169 139 190 118 c 4,37,38
 213 95 213 95 242.5 82.5 c 132,-1,39
 272 70 272 70 310.5 69 c 132,-1,40
 349 68 349 68 395 90.5 c 132,-1,41
 441 113 441 113 488 159 c 5,42,-1
 516 131 l 5,43,-1
 544 102 l 5,44,45
 488 46 488 46 427 18 c 132,-1,46
 366 -10 366 -10 312.5 -9.5 c 132,-1,47
 259 -9 259 -9 213.5 9 c 132,-1,48
 168 27 168 27 134 61 c 4,49,50
 102 93 102 93 85.5 132.5 c 132,-1,51
 69 172 69 172 74 215.5 c 4,52,53
 79 262 79 262 111 291 c 4,54,55
 125 304 125 304 142 314 c 4,56,57
 151 320 151 320 162 320 c 6,58,-1
 516 320 l 5,59,-1
 516 280 l 5,29,-1
EndSplineSet
EndChar

StartChar: aacute
Encoding: 225 225 226
Width: 646
Flags: W
LayerCount: 2
Fore
SplineSet
178 633 m 1,0,-1
 165 671 l 1,1,-1
 457 769 l 1,2,-1
 470 731 l 1,3,-1
 483 693 l 1,4,-1
 191 595 l 1,5,-1
 178 633 l 1,0,-1
158 394 m 1,6,-1
 121 408 l 1,7,8
 163 523 163 523 313 538 c 0,9,10
 372 544 372 544 427.5 522.5 c 128,-1,11
 483 501 483 501 523.5 450.5 c 0,12,13
 571 391 571 391 571 330 c 0,14,15
 571 328 571 328 571 326 c 2,16,-1
 571 3 l 1,17,-1
 531 3 l 1,18,-1
 491 3 l 1,19,-1
 491 324 l 1,20,21
 483 392 483 392 432.5 429 c 128,-1,22
 382 466 382 466 320 459 c 0,23,24
 296 456 296 456 280.5 452.5 c 128,-1,25
 265 449 265 449 247 441 c 128,-1,26
 229 433 229 433 216.5 418 c 128,-1,27
 204 403 204 403 196 380 c 1,28,-1
 158 394 l 1,6,-1
518 280 m 5,29,-1
 518 240 l 5,30,-1
 176 240 l 6,31,32
 175 239 175 239 170 234 c 4,33,34
 158 223 158 223 155 204.5 c 132,-1,35
 152 186 152 186 161.5 162.5 c 132,-1,36
 171 139 171 139 192 118 c 4,37,38
 215 95 215 95 244.5 82.5 c 132,-1,39
 274 70 274 70 312.5 69 c 132,-1,40
 351 68 351 68 397 90.5 c 132,-1,41
 443 113 443 113 490 159 c 5,42,-1
 518 131 l 5,43,-1
 546 102 l 5,44,45
 490 46 490 46 429 18 c 132,-1,46
 368 -10 368 -10 314.5 -9.5 c 132,-1,47
 261 -9 261 -9 215.5 9 c 132,-1,48
 170 27 170 27 136 61 c 4,49,50
 104 93 104 93 87.5 132.5 c 132,-1,51
 71 172 71 172 76 215.5 c 4,52,53
 81 262 81 262 113 291 c 4,54,55
 127 304 127 304 144 314 c 4,56,57
 153 320 153 320 164 320 c 6,58,-1
 518 320 l 5,59,-1
 518 280 l 5,29,-1
EndSplineSet
EndChar

StartChar: acircumflex
Encoding: 226 226 227
Width: 646
Flags: W
LayerCount: 2
Fore
SplineSet
191 617 m 1,0,-1
 169 650 l 1,1,-1
 315 747 l 2,2,3
 337 762 337 762 359 747 c 2,4,-1
 505 650 l 1,5,-1
 483 617 l 1,6,-1
 461 583 l 1,7,-1
 337 666 l 1,8,-1
 213 583 l 1,9,-1
 191 617 l 1,0,-1
158 394 m 1,10,-1
 121 408 l 1,11,12
 163 523 163 523 313 538 c 0,13,14
 372 544 372 544 427.5 522.5 c 128,-1,15
 483 501 483 501 523.5 450.5 c 0,16,17
 571 391 571 391 571 330 c 0,18,19
 571 328 571 328 571 326 c 2,20,-1
 571 3 l 1,21,-1
 531 3 l 1,22,-1
 491 3 l 1,23,-1
 491 324 l 1,24,25
 483 392 483 392 432.5 429 c 128,-1,26
 382 466 382 466 320 459 c 0,27,28
 296 456 296 456 280.5 452.5 c 128,-1,29
 265 449 265 449 247 441 c 128,-1,30
 229 433 229 433 216.5 418 c 128,-1,31
 204 403 204 403 196 380 c 1,32,-1
 158 394 l 1,10,-1
516 280 m 5,33,-1
 516 240 l 5,34,-1
 174 240 l 6,35,36
 173 239 173 239 168 234 c 4,37,38
 156 223 156 223 153 204.5 c 132,-1,39
 150 186 150 186 159.5 162.5 c 132,-1,40
 169 139 169 139 190 118 c 4,41,42
 213 95 213 95 242.5 82.5 c 132,-1,43
 272 70 272 70 310.5 69 c 132,-1,44
 349 68 349 68 395 90.5 c 132,-1,45
 441 113 441 113 488 159 c 5,46,-1
 516 131 l 5,47,-1
 544 102 l 5,48,49
 488 46 488 46 427 18 c 132,-1,50
 366 -10 366 -10 312.5 -9.5 c 132,-1,51
 259 -9 259 -9 213.5 9 c 132,-1,52
 168 27 168 27 134 61 c 4,53,54
 102 93 102 93 85.5 132.5 c 132,-1,55
 69 172 69 172 74 215.5 c 4,56,57
 79 262 79 262 111 291 c 4,58,59
 125 304 125 304 142 314 c 4,60,61
 151 320 151 320 162 320 c 6,62,-1
 516 320 l 5,63,-1
 516 280 l 5,33,-1
EndSplineSet
EndChar

StartChar: adieresis
Encoding: 228 228 229
Width: 646
Flags: W
LayerCount: 2
Fore
SplineSet
241 610 m 1,0,-1
 201 610 l 1,1,-1
 201 693 l 1,2,-1
 241 693 l 1,3,-1
 281 693 l 1,4,-1
 281 610 l 1,5,-1
 241 610 l 1,0,-1
435 610 m 1,6,-1
 395 610 l 1,7,-1
 395 693 l 1,8,-1
 435 693 l 1,9,-1
 475 693 l 1,10,-1
 475 610 l 1,11,-1
 435 610 l 1,6,-1
159 394 m 1,12,-1
 122 408 l 1,13,14
 164 523 164 523 314 538 c 0,15,16
 373 544 373 544 428.5 522.5 c 128,-1,17
 484 501 484 501 524.5 450.5 c 0,18,19
 572 391 572 391 572 330 c 0,20,21
 572 328 572 328 572 326 c 2,22,-1
 572 3 l 1,23,-1
 532 3 l 1,24,-1
 492 3 l 1,25,-1
 492 324 l 1,26,27
 484 392 484 392 433.5 429 c 128,-1,28
 383 466 383 466 321 459 c 0,29,30
 297 456 297 456 281.5 452.5 c 128,-1,31
 266 449 266 449 248 441 c 128,-1,32
 230 433 230 433 217.5 418 c 128,-1,33
 205 403 205 403 197 380 c 1,34,-1
 159 394 l 1,12,-1
518 280 m 5,35,-1
 518 240 l 5,36,-1
 176 240 l 6,37,38
 175 239 175 239 170 234 c 4,39,40
 158 223 158 223 155 204.5 c 132,-1,41
 152 186 152 186 161.5 162.5 c 132,-1,42
 171 139 171 139 192 118 c 4,43,44
 215 95 215 95 244.5 82.5 c 132,-1,45
 274 70 274 70 312.5 69 c 132,-1,46
 351 68 351 68 397 90.5 c 132,-1,47
 443 113 443 113 490 159 c 5,48,-1
 518 131 l 5,49,-1
 546 102 l 5,50,51
 490 46 490 46 429 18 c 132,-1,52
 368 -10 368 -10 314.5 -9.5 c 132,-1,53
 261 -9 261 -9 215.5 9 c 132,-1,54
 170 27 170 27 136 61 c 4,55,56
 104 93 104 93 87.5 132.5 c 132,-1,57
 71 172 71 172 76 215.5 c 4,58,59
 81 262 81 262 113 291 c 4,60,61
 127 304 127 304 144 314 c 4,62,63
 153 320 153 320 164 320 c 6,64,-1
 518 320 l 5,65,-1
 518 280 l 5,35,-1
EndSplineSet
EndChar

StartChar: ccedilla
Encoding: 231 231 232
Width: 646
Flags: W
LayerCount: 2
Fore
SplineSet
303 -230 m 5,0,-1
 266 -215 l 5,1,2
 312 -106 312 -106 312 13 c 5,3,-1
 352 13 l 5,4,-1
 392 13 l 5,5,6
 392 -121 392 -121 340 -246 c 5,7,-1
 303 -230 l 5,0,-1
527 385 m 1,8,-1
 493 365 l 1,9,10
 469 406 469 406 429.5 429 c 128,-1,11
 390 452 390 452 344 453 c 128,-1,12
 298 454 298 454 256 431 c 128,-1,13
 214 408 214 408 189 365 c 0,14,15
 164 321 164 321 164 276 c 128,-1,16
 164 231 164 231 182 195 c 128,-1,17
 200 159 200 159 231 129 c 0,18,19
 269 93 269 93 313 78.5 c 128,-1,20
 357 64 357 64 406.5 76.5 c 128,-1,21
 456 89 456 89 498 133 c 1,22,-1
 527 106 l 1,23,-1
 556 78 l 1,24,25
 498 17 498 17 426 -0.5 c 128,-1,26
 354 -18 354 -18 290.5 2.5 c 128,-1,27
 227 23 227 23 176 71 c 0,28,29
 133 112 133 112 108.5 164 c 128,-1,30
 84 216 84 216 84.5 280.5 c 128,-1,31
 85 345 85 345 120 405 c 0,32,33
 156 468 156 468 217 501 c 128,-1,34
 278 534 278 534 345 533 c 128,-1,35
 412 532 412 532 469 498 c 0,36,37
 528 465 528 465 562 405 c 1,38,-1
 527 385 l 1,8,-1
EndSplineSet
EndChar

StartChar: egrave
Encoding: 232 232 233
Width: 646
Flags: W
LayerCount: 2
Fore
SplineSet
192 728 m 5,0,-1
 205 766 l 5,1,-1
 497 668 l 5,2,-1
 484 630 l 5,3,-1
 471 592 l 5,4,-1
 179 690 l 5,5,-1
 192 728 l 5,0,-1
133 243 m 1,6,-1
 119 281 l 1,7,-1
 510 359 l 1,8,-1
 560 369 l 1,9,-1
 573 291 l 1,10,-1
 147 206 l 1,11,-1
 133 243 l 1,6,-1
523 353 m 1,12,-1
 486 339 l 1,13,14
 467 393 467 393 421 424 c 0,15,16
 384 449 384 449 339.5 453 c 128,-1,17
 295 457 295 457 253 437.5 c 128,-1,18
 211 418 211 418 184 377 c 0,19,20
 112 268 112 268 199 152 c 0,21,22
 230 110 230 110 278 88 c 128,-1,23
 326 66 326 66 383 71.5 c 128,-1,24
 440 77 440 77 489 114 c 1,25,-1
 513 82 l 1,26,-1
 537 50 l 1,27,28
 469 -1 469 -1 389 -8 c 128,-1,29
 309 -15 309 -15 243 16 c 128,-1,30
 177 47 177 47 134 104 c 0,31,32
 101 149 101 149 84.5 199 c 128,-1,33
 68 249 68 249 75 308.5 c 128,-1,34
 82 368 82 368 118 421 c 0,35,36
 157 481 157 481 219 509.5 c 128,-1,37
 281 538 281 538 346 532.5 c 128,-1,38
 411 527 411 527 465 491 c 0,39,40
 533 445 533 445 561 366 c 1,41,-1
 523 353 l 1,12,-1
EndSplineSet
EndChar

StartChar: eacute
Encoding: 233 233 234
Width: 646
Flags: W
LayerCount: 2
Fore
SplineSet
155 633 m 5,0,-1
 142 671 l 5,1,-1
 434 769 l 5,2,-1
 447 731 l 5,3,-1
 460 693 l 5,4,-1
 168 595 l 5,5,-1
 155 633 l 5,0,-1
133 243 m 1,6,-1
 119 281 l 1,7,-1
 510 359 l 1,8,-1
 560 369 l 1,9,-1
 573 291 l 1,10,-1
 147 206 l 1,11,-1
 133 243 l 1,6,-1
523 353 m 1,12,-1
 486 339 l 1,13,14
 467 393 467 393 421 424 c 0,15,16
 384 449 384 449 339.5 453 c 128,-1,17
 295 457 295 457 253 437.5 c 128,-1,18
 211 418 211 418 184 377 c 0,19,20
 112 268 112 268 199 152 c 0,21,22
 230 110 230 110 278 88 c 128,-1,23
 326 66 326 66 383 71.5 c 128,-1,24
 440 77 440 77 489 114 c 1,25,-1
 513 82 l 1,26,-1
 537 50 l 1,27,28
 469 -1 469 -1 389 -8 c 128,-1,29
 309 -15 309 -15 243 16 c 128,-1,30
 177 47 177 47 134 104 c 0,31,32
 101 149 101 149 84.5 199 c 128,-1,33
 68 249 68 249 75 308.5 c 128,-1,34
 82 368 82 368 118 421 c 0,35,36
 157 481 157 481 219 509.5 c 128,-1,37
 281 538 281 538 346 532.5 c 128,-1,38
 411 527 411 527 465 491 c 0,39,40
 533 445 533 445 561 366 c 1,41,-1
 523 353 l 1,12,-1
EndSplineSet
EndChar

StartChar: ecircumflex
Encoding: 234 234 235
Width: 646
Flags: W
LayerCount: 2
Fore
SplineSet
172 617 m 5,0,-1
 150 650 l 5,1,-1
 296 747 l 6,2,3
 318 762 318 762 340 747 c 6,4,-1
 486 650 l 5,5,-1
 464 617 l 5,6,-1
 442 583 l 5,7,-1
 318 666 l 5,8,-1
 194 583 l 5,9,-1
 172 617 l 5,0,-1
133 243 m 1,10,-1
 119 281 l 1,11,-1
 510 359 l 1,12,-1
 560 369 l 1,13,-1
 573 291 l 1,14,-1
 147 206 l 1,15,-1
 133 243 l 1,10,-1
523 353 m 1,16,-1
 486 339 l 1,17,18
 467 393 467 393 421 424 c 0,19,20
 384 449 384 449 339.5 453 c 128,-1,21
 295 457 295 457 253 437.5 c 128,-1,22
 211 418 211 418 184 377 c 0,23,24
 112 268 112 268 199 152 c 0,25,26
 230 110 230 110 278 88 c 128,-1,27
 326 66 326 66 383 71.5 c 128,-1,28
 440 77 440 77 489 114 c 1,29,-1
 513 82 l 1,30,-1
 537 50 l 1,31,32
 469 -1 469 -1 389 -8 c 128,-1,33
 309 -15 309 -15 243 16 c 128,-1,34
 177 47 177 47 134 104 c 0,35,36
 101 149 101 149 84.5 199 c 128,-1,37
 68 249 68 249 75 308.5 c 128,-1,38
 82 368 82 368 118 421 c 0,39,40
 157 481 157 481 219 509.5 c 128,-1,41
 281 538 281 538 346 532.5 c 128,-1,42
 411 527 411 527 465 491 c 0,43,44
 533 445 533 445 561 366 c 1,45,-1
 523 353 l 1,16,-1
EndSplineSet
EndChar

StartChar: edieresis
Encoding: 235 235 236
Width: 646
Flags: W
LayerCount: 2
Fore
SplineSet
221 610 m 5,0,-1
 181 610 l 5,1,-1
 181 693 l 5,2,-1
 221 693 l 5,3,-1
 261 693 l 5,4,-1
 261 610 l 5,5,-1
 221 610 l 5,0,-1
415 610 m 5,6,-1
 375 610 l 5,7,-1
 375 693 l 5,8,-1
 415 693 l 5,9,-1
 455 693 l 5,10,-1
 455 610 l 5,11,-1
 415 610 l 5,6,-1
133 243 m 1,12,-1
 119 281 l 1,13,-1
 510 359 l 1,14,-1
 560 369 l 1,15,-1
 573 291 l 1,16,-1
 147 206 l 1,17,-1
 133 243 l 1,12,-1
523 353 m 1,18,-1
 486 339 l 1,19,20
 467 393 467 393 421 424 c 0,21,22
 384 449 384 449 339.5 453 c 128,-1,23
 295 457 295 457 253 437.5 c 128,-1,24
 211 418 211 418 184 377 c 0,25,26
 112 268 112 268 199 152 c 0,27,28
 230 110 230 110 278 88 c 128,-1,29
 326 66 326 66 383 71.5 c 128,-1,30
 440 77 440 77 489 114 c 1,31,-1
 513 82 l 1,32,-1
 537 50 l 1,33,34
 469 -1 469 -1 389 -8 c 128,-1,35
 309 -15 309 -15 243 16 c 128,-1,36
 177 47 177 47 134 104 c 0,37,38
 101 149 101 149 84.5 199 c 128,-1,39
 68 249 68 249 75 308.5 c 128,-1,40
 82 368 82 368 118 421 c 0,41,42
 157 481 157 481 219 509.5 c 128,-1,43
 281 538 281 538 346 532.5 c 128,-1,44
 411 527 411 527 465 491 c 0,45,46
 533 445 533 445 561 366 c 1,47,-1
 523 353 l 1,18,-1
EndSplineSet
EndChar

StartChar: igrave
Encoding: 236 236 237
Width: 646
Flags: W
LayerCount: 2
Fore
SplineSet
136 442 m 5,0,-1
 136 522 l 5,1,-1
 368 522 l 5,2,-1
 368 482 l 5,3,-1
 368 442 l 5,4,-1
 136 442 l 5,0,-1
74 2 m 5,5,-1
 74 82 l 5,6,-1
 572 82 l 5,7,-1
 572 42 l 5,8,-1
 572 2 l 5,9,-1
 74 2 l 5,5,-1
192 728 m 1,10,-1
 205 766 l 1,11,-1
 497 668 l 1,12,-1
 484 630 l 1,13,-1
 471 592 l 1,14,-1
 179 690 l 1,15,-1
 192 728 l 1,10,-1
328 1 m 1,16,-1
 288 1 l 1,17,-1
 288 523 l 1,18,-1
 328 523 l 1,19,-1
 368 523 l 1,20,-1
 368 1 l 1,21,-1
 328 1 l 1,16,-1
EndSplineSet
EndChar

StartChar: iacute
Encoding: 237 237 238
Width: 646
Flags: W
LayerCount: 2
Fore
SplineSet
136 442 m 5,0,-1
 136 522 l 5,1,-1
 368 522 l 5,2,-1
 368 482 l 5,3,-1
 368 442 l 5,4,-1
 136 442 l 5,0,-1
74 2 m 5,5,-1
 74 82 l 5,6,-1
 572 82 l 5,7,-1
 572 42 l 5,8,-1
 572 2 l 5,9,-1
 74 2 l 5,5,-1
178 633 m 1,10,-1
 165 671 l 1,11,-1
 457 769 l 1,12,-1
 470 731 l 1,13,-1
 483 693 l 1,14,-1
 191 595 l 1,15,-1
 178 633 l 1,10,-1
328 1 m 1,16,-1
 288 1 l 1,17,-1
 288 523 l 1,18,-1
 328 523 l 1,19,-1
 368 523 l 1,20,-1
 368 1 l 1,21,-1
 328 1 l 1,16,-1
EndSplineSet
EndChar

StartChar: icircumflex
Encoding: 238 238 239
Width: 646
Flags: W
LayerCount: 2
Fore
SplineSet
136 442 m 5,0,-1
 136 522 l 5,1,-1
 368 522 l 5,2,-1
 368 482 l 5,3,-1
 368 442 l 5,4,-1
 136 442 l 5,0,-1
74 2 m 5,5,-1
 74 82 l 5,6,-1
 572 82 l 5,7,-1
 572 42 l 5,8,-1
 572 2 l 5,9,-1
 74 2 l 5,5,-1
184 617 m 1,10,-1
 162 650 l 1,11,-1
 308 747 l 2,12,13
 330 762 330 762 352 747 c 2,14,-1
 498 650 l 1,15,-1
 476 617 l 1,16,-1
 454 583 l 1,17,-1
 330 666 l 1,18,-1
 206 583 l 1,19,-1
 184 617 l 1,10,-1
328 1 m 1,20,-1
 288 1 l 1,21,-1
 288 523 l 1,22,-1
 328 523 l 1,23,-1
 368 523 l 1,24,-1
 368 1 l 1,25,-1
 328 1 l 1,20,-1
EndSplineSet
EndChar

StartChar: idieresis
Encoding: 239 239 240
Width: 646
Flags: W
LayerCount: 2
Fore
SplineSet
136 442 m 5,0,-1
 136 522 l 5,1,-1
 368 522 l 5,2,-1
 368 482 l 5,3,-1
 368 442 l 5,4,-1
 136 442 l 5,0,-1
74 2 m 5,5,-1
 74 82 l 5,6,-1
 572 82 l 5,7,-1
 572 42 l 5,8,-1
 572 2 l 5,9,-1
 74 2 l 5,5,-1
231 610 m 1,10,-1
 191 610 l 1,11,-1
 191 693 l 1,12,-1
 231 693 l 1,13,-1
 271 693 l 1,14,-1
 271 610 l 1,15,-1
 231 610 l 1,10,-1
425 610 m 1,16,-1
 385 610 l 1,17,-1
 385 693 l 1,18,-1
 425 693 l 1,19,-1
 465 693 l 1,20,-1
 465 610 l 1,21,-1
 425 610 l 1,16,-1
328 1 m 1,22,-1
 288 1 l 1,23,-1
 288 523 l 1,24,-1
 328 523 l 1,25,-1
 368 523 l 1,26,-1
 368 1 l 1,27,-1
 328 1 l 1,22,-1
EndSplineSet
EndChar

StartChar: ograve
Encoding: 242 242 243
Width: 646
Flags: W
LayerCount: 2
Fore
SplineSet
238 487 m 5,0,-1
 258 453 l 5,1,2
 189 413 189 413 164.5 354 c 132,-1,3
 140 295 140 295 156 228 c 4,4,5
 177 144 177 144 247.5 99.5 c 132,-1,6
 318 55 318 55 415 78 c 5,7,-1
 424 40 l 5,8,-1
 434 1 l 5,9,10
 365 -15 365 -15 306 -5 c 132,-1,11
 247 5 247 5 200.5 35.5 c 132,-1,12
 154 66 154 66 122.5 111 c 132,-1,13
 91 156 91 156 78 210 c 4,14,15
 57 300 57 300 91 384.5 c 132,-1,16
 125 469 125 469 218 522 c 5,17,-1
 238 487 l 5,0,-1
408 36 m 5,18,-1
 388 70 l 5,19,20
 457 110 457 110 481.5 168 c 132,-1,21
 506 226 506 226 490 292 c 4,22,23
 469 377 469 377 398.5 422.5 c 132,-1,24
 328 468 328 468 231 444 c 5,25,-1
 222 483 l 5,26,-1
 212 522 l 5,27,28
 281 538 281 538 340 527.5 c 132,-1,29
 399 517 399 517 445.5 486.5 c 132,-1,30
 492 456 492 456 523.5 410.5 c 132,-1,31
 555 365 555 365 568 311 c 4,32,33
 589 221 589 221 555 137.5 c 132,-1,34
 521 54 521 54 428 1 c 5,35,-1
 408 36 l 5,18,-1
186 728 m 1,36,-1
 199 766 l 1,37,-1
 491 668 l 1,38,-1
 478 630 l 1,39,-1
 465 592 l 1,40,-1
 173 690 l 1,41,-1
 186 728 l 1,36,-1
EndSplineSet
EndChar

StartChar: oacute
Encoding: 243 243 244
Width: 646
Flags: W
LayerCount: 2
Fore
SplineSet
238 487 m 5,0,-1
 258 453 l 5,1,2
 189 413 189 413 164.5 354 c 132,-1,3
 140 295 140 295 156 228 c 4,4,5
 177 144 177 144 247.5 99.5 c 132,-1,6
 318 55 318 55 415 78 c 5,7,-1
 424 40 l 5,8,-1
 434 1 l 5,9,10
 365 -15 365 -15 306 -5 c 132,-1,11
 247 5 247 5 200.5 35.5 c 132,-1,12
 154 66 154 66 122.5 111 c 132,-1,13
 91 156 91 156 78 210 c 4,14,15
 57 300 57 300 91 384.5 c 132,-1,16
 125 469 125 469 218 522 c 5,17,-1
 238 487 l 5,0,-1
408 36 m 5,18,-1
 388 70 l 5,19,20
 457 110 457 110 481.5 168 c 132,-1,21
 506 226 506 226 490 292 c 4,22,23
 469 377 469 377 398.5 422.5 c 132,-1,24
 328 468 328 468 231 444 c 5,25,-1
 222 483 l 5,26,-1
 212 522 l 5,27,28
 281 538 281 538 340 527.5 c 132,-1,29
 399 517 399 517 445.5 486.5 c 132,-1,30
 492 456 492 456 523.5 410.5 c 132,-1,31
 555 365 555 365 568 311 c 4,32,33
 589 221 589 221 555 137.5 c 132,-1,34
 521 54 521 54 428 1 c 5,35,-1
 408 36 l 5,18,-1
138 633 m 1,36,-1
 125 671 l 1,37,-1
 417 769 l 1,38,-1
 430 731 l 1,39,-1
 443 693 l 1,40,-1
 151 595 l 1,41,-1
 138 633 l 1,36,-1
EndSplineSet
EndChar

StartChar: ocircumflex
Encoding: 244 244 245
Width: 646
Flags: W
LayerCount: 2
Fore
SplineSet
238 487 m 5,0,-1
 258 453 l 5,1,2
 189 413 189 413 164.5 354 c 132,-1,3
 140 295 140 295 156 228 c 4,4,5
 177 144 177 144 247.5 99.5 c 132,-1,6
 318 55 318 55 415 78 c 5,7,-1
 424 40 l 5,8,-1
 434 1 l 5,9,10
 365 -15 365 -15 306 -5 c 132,-1,11
 247 5 247 5 200.5 35.5 c 132,-1,12
 154 66 154 66 122.5 111 c 132,-1,13
 91 156 91 156 78 210 c 4,14,15
 57 300 57 300 91 384.5 c 132,-1,16
 125 469 125 469 218 522 c 5,17,-1
 238 487 l 5,0,-1
408 36 m 5,18,-1
 388 70 l 5,19,20
 457 110 457 110 481.5 168 c 132,-1,21
 506 226 506 226 490 292 c 4,22,23
 469 377 469 377 398.5 422.5 c 132,-1,24
 328 468 328 468 231 444 c 5,25,-1
 222 483 l 5,26,-1
 212 522 l 5,27,28
 281 538 281 538 340 527.5 c 132,-1,29
 399 517 399 517 445.5 486.5 c 132,-1,30
 492 456 492 456 523.5 410.5 c 132,-1,31
 555 365 555 365 568 311 c 4,32,33
 589 221 589 221 555 137.5 c 132,-1,34
 521 54 521 54 428 1 c 5,35,-1
 408 36 l 5,18,-1
152 617 m 1,36,-1
 130 650 l 1,37,-1
 276 747 l 2,38,39
 298 762 298 762 320 747 c 2,40,-1
 466 650 l 1,41,-1
 444 617 l 1,42,-1
 422 583 l 1,43,-1
 298 666 l 1,44,-1
 174 583 l 1,45,-1
 152 617 l 1,36,-1
EndSplineSet
EndChar

StartChar: odieresis
Encoding: 246 246 247
Width: 646
Flags: W
LayerCount: 2
Fore
SplineSet
238 487 m 5,0,-1
 258 453 l 5,1,2
 189 413 189 413 164.5 354 c 132,-1,3
 140 295 140 295 156 228 c 4,4,5
 177 144 177 144 247.5 99.5 c 132,-1,6
 318 55 318 55 415 78 c 5,7,-1
 424 40 l 5,8,-1
 434 1 l 5,9,10
 365 -15 365 -15 306 -5 c 132,-1,11
 247 5 247 5 200.5 35.5 c 132,-1,12
 154 66 154 66 122.5 111 c 132,-1,13
 91 156 91 156 78 210 c 4,14,15
 57 300 57 300 91 384.5 c 132,-1,16
 125 469 125 469 218 522 c 5,17,-1
 238 487 l 5,0,-1
408 36 m 5,18,-1
 388 70 l 5,19,20
 457 110 457 110 481.5 168 c 132,-1,21
 506 226 506 226 490 292 c 4,22,23
 469 377 469 377 398.5 422.5 c 132,-1,24
 328 468 328 468 231 444 c 5,25,-1
 222 483 l 5,26,-1
 212 522 l 5,27,28
 281 538 281 538 340 527.5 c 132,-1,29
 399 517 399 517 445.5 486.5 c 132,-1,30
 492 456 492 456 523.5 410.5 c 132,-1,31
 555 365 555 365 568 311 c 4,32,33
 589 221 589 221 555 137.5 c 132,-1,34
 521 54 521 54 428 1 c 5,35,-1
 408 36 l 5,18,-1
204 610 m 1,36,-1
 164 610 l 1,37,-1
 164 693 l 1,38,-1
 204 693 l 1,39,-1
 244 693 l 1,40,-1
 244 610 l 1,41,-1
 204 610 l 1,36,-1
398 610 m 1,42,-1
 358 610 l 1,43,-1
 358 693 l 1,44,-1
 398 693 l 1,45,-1
 438 693 l 1,46,-1
 438 610 l 1,47,-1
 398 610 l 1,42,-1
EndSplineSet
EndChar

StartChar: oslash
Encoding: 248 248 249
Width: 646
Flags: W
LayerCount: 2
Fore
SplineSet
238 487 m 1,0,-1
 258 453 l 1,1,2
 189 413 189 413 164.5 354 c 128,-1,3
 140 295 140 295 156 228 c 0,4,5
 177 144 177 144 247.5 99.5 c 128,-1,6
 318 55 318 55 415 78 c 1,7,-1
 424 40 l 1,8,-1
 434 1 l 1,9,10
 365 -15 365 -15 306 -5 c 128,-1,11
 247 5 247 5 200.5 35.5 c 128,-1,12
 154 66 154 66 122.5 111 c 128,-1,13
 91 156 91 156 78 210 c 0,14,15
 57 300 57 300 91 384.5 c 128,-1,16
 125 469 125 469 218 522 c 1,17,-1
 238 487 l 1,0,-1
408 36 m 1,18,-1
 388 70 l 1,19,20
 457 110 457 110 481.5 168 c 128,-1,21
 506 226 506 226 490 292 c 0,22,23
 469 377 469 377 398.5 422.5 c 128,-1,24
 328 468 328 468 231 444 c 1,25,-1
 222 483 l 1,26,-1
 212 522 l 1,27,28
 281 538 281 538 340 527.5 c 128,-1,29
 399 517 399 517 445.5 486.5 c 128,-1,30
 492 456 492 456 523.5 410.5 c 128,-1,31
 555 365 555 365 568 311 c 0,32,33
 589 221 589 221 555 137.5 c 128,-1,34
 521 54 521 54 428 1 c 1,35,-1
 408 36 l 1,18,-1
485 525 m 5,36,-1
 518 503 l 5,37,-1
 184 -17 l 5,38,-1
 150 4 l 5,39,-1
 117 26 l 5,40,-1
 451 546 l 5,41,-1
 485 525 l 5,36,-1
EndSplineSet
EndChar

StartChar: ugrave
Encoding: 249 249 250
Width: 646
Flags: W
LayerCount: 2
Fore
SplineSet
187 728 m 5,0,-1
 200 766 l 5,1,-1
 492 668 l 5,2,-1
 479 630 l 5,3,-1
 466 592 l 5,4,-1
 174 690 l 5,5,-1
 187 728 l 5,0,-1
533 1 m 1,6,-1
 493 1 l 1,7,-1
 493 523 l 1,8,-1
 533 523 l 1,9,-1
 573 523 l 1,10,-1
 573 1 l 1,11,-1
 533 1 l 1,6,-1
533 146 m 1,12,-1
 558 116 l 1,13,14
 485 55 485 55 406 22.5 c 128,-1,15
 327 -10 327 -10 255 -10 c 0,16,17
 179 -10 179 -10 126 31 c 128,-1,18
 73 72 73 72 73 146 c 2,19,-1
 73 523 l 1,20,-1
 113 523 l 1,21,-1
 153 523 l 1,22,-1
 153 146 l 2,23,24
 153 70 153 70 255 70 c 0,25,26
 310 70 310 70 377 97 c 128,-1,27
 444 124 444 124 507 177 c 1,28,-1
 533 146 l 1,12,-1
EndSplineSet
EndChar

StartChar: uacute
Encoding: 250 250 251
Width: 646
Flags: W
LayerCount: 2
Fore
SplineSet
176 633 m 5,0,-1
 163 671 l 5,1,-1
 455 769 l 5,2,-1
 468 731 l 5,3,-1
 481 693 l 5,4,-1
 189 595 l 5,5,-1
 176 633 l 5,0,-1
533 1 m 1,6,-1
 493 1 l 1,7,-1
 493 523 l 1,8,-1
 533 523 l 1,9,-1
 573 523 l 1,10,-1
 573 1 l 1,11,-1
 533 1 l 1,6,-1
533 146 m 1,12,-1
 558 116 l 1,13,14
 485 55 485 55 406 22.5 c 128,-1,15
 327 -10 327 -10 255 -10 c 0,16,17
 179 -10 179 -10 126 31 c 128,-1,18
 73 72 73 72 73 146 c 2,19,-1
 73 523 l 1,20,-1
 113 523 l 1,21,-1
 153 523 l 1,22,-1
 153 146 l 2,23,24
 153 70 153 70 255 70 c 0,25,26
 310 70 310 70 377 97 c 128,-1,27
 444 124 444 124 507 177 c 1,28,-1
 533 146 l 1,12,-1
EndSplineSet
EndChar

StartChar: ucircumflex
Encoding: 251 251 252
Width: 646
Flags: W
LayerCount: 2
Fore
SplineSet
178 617 m 5,0,-1
 156 650 l 5,1,-1
 302 747 l 6,2,3
 324 762 324 762 346 747 c 6,4,-1
 492 650 l 5,5,-1
 470 617 l 5,6,-1
 448 583 l 5,7,-1
 324 666 l 5,8,-1
 200 583 l 5,9,-1
 178 617 l 5,0,-1
533 1 m 1,10,-1
 493 1 l 1,11,-1
 493 523 l 1,12,-1
 533 523 l 1,13,-1
 573 523 l 1,14,-1
 573 1 l 1,15,-1
 533 1 l 1,10,-1
533 146 m 1,16,-1
 558 116 l 1,17,18
 485 55 485 55 406 22.5 c 128,-1,19
 327 -10 327 -10 255 -10 c 0,20,21
 179 -10 179 -10 126 31 c 128,-1,22
 73 72 73 72 73 146 c 2,23,-1
 73 523 l 1,24,-1
 113 523 l 1,25,-1
 153 523 l 1,26,-1
 153 146 l 2,27,28
 153 70 153 70 255 70 c 0,29,30
 310 70 310 70 377 97 c 128,-1,31
 444 124 444 124 507 177 c 1,32,-1
 533 146 l 1,16,-1
EndSplineSet
EndChar

StartChar: udieresis
Encoding: 252 252 253
Width: 646
Flags: W
LayerCount: 2
Fore
SplineSet
231 610 m 5,0,-1
 191 610 l 5,1,-1
 191 693 l 5,2,-1
 231 693 l 5,3,-1
 271 693 l 5,4,-1
 271 610 l 5,5,-1
 231 610 l 5,0,-1
425 610 m 5,6,-1
 385 610 l 5,7,-1
 385 693 l 5,8,-1
 425 693 l 5,9,-1
 465 693 l 5,10,-1
 465 610 l 5,11,-1
 425 610 l 5,6,-1
533 1 m 1,12,-1
 493 1 l 1,13,-1
 493 523 l 1,14,-1
 533 523 l 1,15,-1
 573 523 l 1,16,-1
 573 1 l 1,17,-1
 533 1 l 1,12,-1
533 146 m 1,18,-1
 558 116 l 1,19,20
 485 55 485 55 406 22.5 c 128,-1,21
 327 -10 327 -10 255 -10 c 0,22,23
 179 -10 179 -10 126 31 c 128,-1,24
 73 72 73 72 73 146 c 2,25,-1
 73 523 l 1,26,-1
 113 523 l 1,27,-1
 153 523 l 1,28,-1
 153 146 l 2,29,30
 153 70 153 70 255 70 c 0,31,32
 310 70 310 70 377 97 c 128,-1,33
 444 124 444 124 507 177 c 1,34,-1
 533 146 l 1,18,-1
EndSplineSet
EndChar

StartChar: yacute
Encoding: 253 253 254
Width: 646
Flags: W
LayerCount: 2
Fore
SplineSet
176 633 m 5,0,-1
 163 671 l 5,1,-1
 455 769 l 5,2,-1
 468 731 l 5,3,-1
 481 693 l 5,4,-1
 189 595 l 5,5,-1
 176 633 l 5,0,-1
533 151 m 1,6,-1
 558 120 l 1,7,8
 510 79 510 79 456.5 50.5 c 128,-1,9
 403 22 403 22 352.5 8.5 c 128,-1,10
 302 -5 302 -5 255 -5 c 0,11,12
 179 -6 179 -6 126 35 c 128,-1,13
 73 76 73 76 73 151 c 2,14,-1
 73 523 l 1,15,-1
 113 523 l 1,16,-1
 153 523 l 1,17,-1
 153 151 l 2,18,19
 153 74 153 74 255 75 c 0,20,21
 310 75 310 75 377 102 c 128,-1,22
 444 129 444 129 507 181 c 1,23,-1
 533 151 l 1,6,-1
533 523 m 1,24,-1
 573 523 l 1,25,-1
 573 -17 l 2,26,27
 573 -84 573 -84 531 -134 c 0,28,29
 486 -188 486 -188 411 -205.5 c 128,-1,30
 336 -223 336 -223 249 -199 c 128,-1,31
 162 -175 162 -175 88 -113 c 1,32,-1
 113 -82 l 1,33,-1
 139 -52 l 1,34,35
 186 -91 186 -91 238.5 -111 c 128,-1,36
 291 -131 291 -131 335 -131 c 128,-1,37
 379 -131 379 -131 414.5 -118.5 c 128,-1,38
 450 -106 450 -106 470 -82 c 0,39,40
 493 -55 493 -55 493 -17 c 2,41,-1
 493 523 l 1,42,-1
 533 523 l 1,24,-1
EndSplineSet
EndChar

StartChar: ydieresis
Encoding: 255 255 256
Width: 646
Flags: W
LayerCount: 2
Fore
SplineSet
232 610 m 5,0,-1
 192 610 l 5,1,-1
 192 693 l 5,2,-1
 232 693 l 5,3,-1
 272 693 l 5,4,-1
 272 610 l 5,5,-1
 232 610 l 5,0,-1
426 610 m 5,6,-1
 386 610 l 5,7,-1
 386 693 l 5,8,-1
 426 693 l 5,9,-1
 466 693 l 5,10,-1
 466 610 l 5,11,-1
 426 610 l 5,6,-1
533 151 m 1,12,-1
 558 120 l 1,13,14
 510 79 510 79 456.5 50.5 c 128,-1,15
 403 22 403 22 352.5 8.5 c 128,-1,16
 302 -5 302 -5 255 -5 c 0,17,18
 179 -6 179 -6 126 35 c 128,-1,19
 73 76 73 76 73 151 c 2,20,-1
 73 523 l 1,21,-1
 113 523 l 1,22,-1
 153 523 l 1,23,-1
 153 151 l 2,24,25
 153 74 153 74 255 75 c 0,26,27
 310 75 310 75 377 102 c 128,-1,28
 444 129 444 129 507 181 c 1,29,-1
 533 151 l 1,12,-1
533 523 m 1,30,-1
 573 523 l 1,31,-1
 573 -17 l 2,32,33
 573 -84 573 -84 531 -134 c 0,34,35
 486 -188 486 -188 411 -205.5 c 128,-1,36
 336 -223 336 -223 249 -199 c 128,-1,37
 162 -175 162 -175 88 -113 c 1,38,-1
 113 -82 l 1,39,-1
 139 -52 l 1,40,41
 186 -91 186 -91 238.5 -111 c 128,-1,42
 291 -131 291 -131 335 -131 c 128,-1,43
 379 -131 379 -131 414.5 -118.5 c 128,-1,44
 450 -106 450 -106 470 -82 c 0,45,46
 493 -55 493 -55 493 -17 c 2,47,-1
 493 523 l 1,48,-1
 533 523 l 1,30,-1
EndSplineSet
EndChar

